<?xml version="1.0" encoding="UTF-8"?>
<svg version="1.1" xmlns="http://www.w3.org/2000/svg" width="256" height="256">
<path d="M0 0 C84.48 0 168.96 0 256 0 C256 84.48 256 168.96 256 256 C171.52 256 87.04 256 0 256 C0 171.52 0 87.04 0 0 Z " fill="#FEFEFE" transform="translate(0,0)"/>
<path d="M0 0 C5.63813687 4.47162579 7.97848173 8.79359975 8.99609375 15.8359375 C9.42241578 22.64643192 7.61979963 27.93405302 3.65234375 33.45703125 C0.49997684 36.697235 -2.84223968 39.60725741 -6.34765625 42.45703125 C-7.64289973 43.55058031 -7.64289973 43.55058031 -7.72265625 46.20703125 C-7.23315337 50.44938957 -5.52929918 51.75263476 -2.34765625 54.45703125 C-1.35765625 54.12703125 -0.36765625 53.79703125 0.65234375 53.45703125 C3.13533066 54.34715863 5.31815707 55.27259257 7.65234375 56.45703125 C8.72484375 56.99328125 9.79734375 57.52953125 10.90234375 58.08203125 C20.28946261 66.18908845 19.17730669 86.32218555 20.33984375 97.70703125 C20.48228516 99.00382812 20.62472656 100.300625 20.77148438 101.63671875 C21.47146831 108.47636281 21.75763541 114.66208387 20.65234375 121.45703125 C16.82882543 122.7264491 13.08028679 122.4902703 9.11328125 122.3359375 C8.03018173 122.30052101 8.03018173 122.30052101 6.92520142 122.26438904 C4.62570059 122.1880499 2.32656084 122.10394811 0.02734375 122.01953125 C-1.52732591 121.96627362 -3.0820134 121.91353349 -4.63671875 121.86132812 C-7.47620089 121.76571044 -10.31552304 121.66662142 -13.15478516 121.56469727 C-16.88866614 121.43878799 -20.51090013 121.58986897 -24.23970032 121.83891296 C-27.6454678 122.06376045 -31.05229826 122.2699415 -34.45922852 122.47631836 C-36.25483888 122.58814838 -38.05010644 122.70563086 -39.8449707 122.82885742 C-42.43500148 123.00546668 -45.02558561 123.16093341 -47.6171875 123.3125 C-48.41631058 123.37173141 -49.21543365 123.43096283 -50.03877258 123.49198914 C-54.65724211 123.7386575 -57.64369565 123.59485066 -61.34765625 120.45703125 C-61.97265625 117.58203125 -61.97265625 117.58203125 -61.34765625 114.45703125 C-59.41015625 112.20703125 -59.41015625 112.20703125 -58.02734375 110.984375 C-51.69951564 105.23046618 -46.3948449 98.32443182 -41.11328125 91.62890625 C-39.01904237 89.0528071 -36.72389614 86.77386514 -34.34765625 84.45703125 C-30.37263506 80.30430323 -26.70176644 75.98892857 -23.3046875 71.3515625 C-22.51010132 70.26742065 -22.51010132 70.26742065 -21.69946289 69.16137695 C-20.6430157 67.7075343 -19.59635803 66.24652044 -18.56030273 64.77807617 C-18.07247314 64.10494385 -17.58464355 63.43181152 -17.08203125 62.73828125 C-16.65116211 62.13048828 -16.22029297 61.52269531 -15.77636719 60.89648438 C-14.04780492 59.1549254 -12.73753147 58.84237152 -10.34765625 58.45703125 C-10.01765625 55.81703125 -9.68765625 53.17703125 -9.34765625 50.45703125 C-10.33765625 49.96203125 -10.33765625 49.96203125 -11.34765625 49.45703125 C-11.34765625 48.46703125 -11.34765625 47.47703125 -11.34765625 46.45703125 C-12.51683594 46.67359375 -13.68601563 46.89015625 -14.890625 47.11328125 C-16.43876043 47.39476042 -17.98693986 47.67599769 -19.53515625 47.95703125 C-20.30408203 48.10011719 -21.07300781 48.24320313 -21.86523438 48.390625 C-25.74187398 49.0894184 -29.38912725 49.64742142 -33.34765625 49.45703125 C-33.34765625 48.46703125 -33.34765625 47.47703125 -33.34765625 46.45703125 C-34.66765625 46.45703125 -35.98765625 46.45703125 -37.34765625 46.45703125 C-38.72265625 45.26953125 -38.72265625 45.26953125 -40.34765625 43.45703125 C-41.27578125 42.71453125 -42.20390625 41.97203125 -43.16015625 41.20703125 C-49.11004938 36.26609755 -53.63559441 31.32041549 -54.59765625 23.3984375 C-54.99193113 16.2891686 -53.1377469 10.60425351 -48.39453125 5.25390625 C-35.32549121 -7.08399868 -15.42008894 -10.13466744 0 0 Z " fill="#080101" transform="translate(150.34765625,66.54296875)"/>
<path d="M0 0 C0.5259375 0.52207031 1.051875 1.04414062 1.59375 1.58203125 C3.98496454 3.31786482 3.98496454 3.31786482 7.09375 2.63671875 C8.2178125 2.32347656 9.341875 2.01023437 10.5 1.6875 C14.26100778 0.66529949 17.07573613 0 21 0 C21 0.66 21 1.32 21 2 C22.32 2.33 23.64 2.66 25 3 C24.34 3.33 23.68 3.66 23 4 C23.66 4.66 24.32 5.32 25 6 C24.01 6 23.02 6 22 6 C22 6.66 22 7.32 22 8 C22.99 8.33 23.98 8.66 25 9 C23.68 9 22.36 9 21 9 C20.60167969 9.86238281 20.60167969 9.86238281 20.1953125 10.7421875 C18.00955834 14.87083425 14.90145802 18.35617675 12 22 C11.319375 22.88042969 10.63875 23.76085937 9.9375 24.66796875 C9.256875 25.54066406 8.57625 26.41335937 7.875 27.3125 C7.25367188 28.11300781 6.63234375 28.91351563 5.9921875 29.73828125 C4 32 4 32 1.5546875 33.91015625 C-1.39396303 36.32227862 -3.52098341 39.0734664 -5.75 42.125 C-9.61487253 47.29640078 -13.70821608 52.11189423 -18.11328125 56.83984375 C-19.72597456 58.68626073 -20.88687459 60.36949981 -22.0625 62.5 C-24.90010544 66.16142637 -27.50679544 66.25113257 -32 67 C-32 66.01 -32 65.02 -32 64 C-32.04125 62.845 -32.0825 61.69 -32.125 60.5 C-32 57 -32 57 -30 54 C-29.34 54 -28.68 54 -28 54 C-27.92652344 53.46246094 -27.85304688 52.92492187 -27.77734375 52.37109375 C-26.70312234 49.09444854 -24.68899868 46.71713304 -22.5625 44.0625 C-22.11946533 43.49474854 -21.67643066 42.92699707 -21.2199707 42.34204102 C-18.94274411 39.42691782 -16.63071647 36.54322502 -14.2890625 33.6796875 C-5.87283539 23.27388618 -1.58711687 13.36020768 0 0 Z " fill="#0D0302" transform="translate(114,115)"/>
<path d="M0 0 C1.8871875 0.061875 1.8871875 0.061875 3.8125 0.125 C3.35114102 10.27489762 -2.33014718 18.77790454 -9.15625 25.9453125 C-11.9537316 28.94722544 -14.37904966 32.19346594 -16.83984375 35.47265625 C-17.28457031 36.01792969 -17.72929688 36.56320313 -18.1875 37.125 C-18.5175 37.125 -18.8475 37.125 -19.1875 37.125 C-19.85279059 25.20890629 -19.05874757 17.21838973 -11.5 7.5 C-10.736875 6.71625 -9.97375 5.9325 -9.1875 5.125 C-8.5275 5.125 -7.8675 5.125 -7.1875 5.125 C-7.1875 4.135 -7.1875 3.145 -7.1875 2.125 C-4.09861478 0.06574319 -3.47814073 -0.1140374 0 0 Z " fill="#0E0505" transform="translate(107.1875,122.875)"/>
<path d="M0 0 C1.32 0 2.64 0 4 0 C4 0.99 4 1.98 4 3 C4.99 3.33 5.98 3.66 7 4 C6.67 6.64 6.34 9.28 6 12 C4.93652344 12.26876953 4.93652344 12.26876953 3.8515625 12.54296875 C-0.19459907 14.61039103 -2.05488268 17.64618452 -4.625 21.3125 C-5.67774215 22.76537944 -6.73379565 24.21586465 -7.79296875 25.6640625 C-8.3245459 26.39141602 -8.85612305 27.11876953 -9.40380859 27.86816406 C-11.80245832 31.07174458 -14.34363709 34.14103174 -16.9375 37.1875 C-18.21947266 38.69376953 -18.21947266 38.69376953 -19.52734375 40.23046875 C-21.11429624 42.00795582 -22.74852966 43.74493096 -24.4375 45.42578125 C-27.48260295 48.48480997 -30.26972787 51.71190602 -33.0625 55 C-33.57876953 55.60328125 -34.09503906 56.2065625 -34.62695312 56.828125 C-37.47985755 60.1716563 -40.27544613 63.55020517 -43 67 C-43.66 66.67 -44.32 66.34 -45 66 C-40.77970405 60.13847785 -36.20009828 54.6791393 -31.47143555 49.22851562 C-28.5541125 45.85386772 -25.74892872 42.43923108 -23.0625 38.875 C-20.64808589 35.69844553 -18.1202333 33.49618664 -15 31 C-12.52837284 28.10395202 -10.28081448 25.04709602 -8 22 C-7.20335937 20.98421875 -6.40671875 19.9684375 -5.5859375 18.921875 C-4.76530437 17.86483217 -3.94498847 16.80754299 -3.125 15.75 C-2.36445313 14.77546875 -1.60390625 13.8009375 -0.8203125 12.796875 C0.97276573 10.04184493 1.77962693 8.26039128 2 5 C0.66621425 3.1645201 0.66621425 3.1645201 -1 2 C-0.67 1.34 -0.34 0.68 0 0 Z " fill="#FBF5F3" transform="translate(135,113)"/>
<path d="M0 0 C2.30123461 3.45185191 2.09722333 5.05207597 1.4921875 9.05859375 C0.86201191 11.54428635 -0.23521758 13.15848791 -2 15 C-3.875 14.5 -3.875 14.5 -6 13 C-7.6995772 8.96016728 -8.55417985 5.19901222 -7 1 C-4.46578263 -0.26710868 -2.80561762 -0.28056176 0 0 Z " fill="#0D0404" transform="translate(169,47)"/>
<path d="M0 0 C0.66 0.99 1.32 1.98 2 3 C-0.95328235 9.15526215 -4.66979084 14.21519594 -9.11230469 19.38867188 C-13.38468275 24.38003652 -17.21450187 29.6283993 -21 35 C-21.99 34.67 -22.98 34.34 -24 34 C-22.74771001 30.24313003 -21.06309873 29.45047898 -18 27 C-16.46325599 25.1291812 -14.98574628 23.20854925 -13.5625 21.25 C-12.78777344 20.18910156 -12.01304688 19.12820312 -11.21484375 18.03515625 C-10.11849609 16.53275391 -10.11849609 16.53275391 -9 15 C-7.87663626 13.56122095 -6.75189336 12.12351623 -5.625 10.6875 C-3.07143979 7.30403272 -1.48616126 3.9630967 0 0 Z " fill="#FBF4F3" transform="translate(109,130)"/>
<path d="M0 0 C2.64 0 5.28 0 8 0 C8.33 1.65 8.66 3.3 9 5 C5.6875 6.125 5.6875 6.125 2 7 C1.01 6.34 0.02 5.68 -1 5 C-0.67 3.35 -0.34 1.7 0 0 Z " fill="#FBFBFB" transform="translate(122,90)"/>
<path d="M0 0 C-0.33 2.64 -0.66 5.28 -1 8 C-2.32 8.33 -3.64 8.66 -5 9 C-5.6875 6.75 -5.6875 6.75 -6 4 C-3.83783784 0 -3.83783784 0 0 0 Z " fill="#070405" transform="translate(100,110)"/>
<path d="M0 0 C0.99 0.66 1.98 1.32 3 2 C1.515 4.475 1.515 4.475 0 7 C-1.65 6.67 -3.3 6.34 -5 6 C-4.75 4.125 -4.75 4.125 -4 2 C-1.9375 0.75 -1.9375 0.75 0 0 Z " fill="#090607" transform="translate(167,65)"/>
<path d="M0 0 C2.31 0.66 4.62 1.32 7 2 C6.67 3.32 6.34 4.64 6 6 C4.35 5.67 2.7 5.34 1 5 C0.67 3.35 0.34 1.7 0 0 Z " fill="#080607" transform="translate(155,105)"/>
<path d="M0 0 C2.475 0.99 2.475 0.99 5 2 C2.75 4.5625 2.75 4.5625 0 7 C-2.3125 6.8125 -2.3125 6.8125 -4 6 C-2.68 4.02 -1.36 2.04 0 0 Z " fill="#0E0505" transform="translate(141,104)"/>
<path d="M0 0 C6.0546875 -0.1953125 6.0546875 -0.1953125 8 0 C8.66 0.66 9.32 1.32 10 2 C9.01 3.485 9.01 3.485 8 5 C2.25 3.375 2.25 3.375 0 0 Z " fill="#090909" transform="translate(161,95)"/>
<path d="M0 0 C1.32 0.66 2.64 1.32 4 2 C3.67 2.99 3.34 3.98 3 5 C1.67696283 5.3721042 0.34262065 5.70630173 -1 6 C-1.33 6.66 -1.66 7.32 -2 8 C-2.66 7.01 -3.32 6.02 -4 5 C-2.68 3.35 -1.36 1.7 0 0 Z " fill="#FBF6F7" transform="translate(164,61)"/>
<path d="M0 0 C-0.50603992 2.16874252 -0.99983813 3.99967627 -2 6 C-3.32 6 -4.64 6 -6 6 C-6 4.68 -6 3.36 -6 2 C-3 0 -3 0 0 0 Z " fill="#040404" transform="translate(97,102)"/>
<path d="M0 0 C1.32 0 2.64 0 4 0 C4 1.32 4 2.64 4 4 C2.68 3.67 1.36 3.34 0 3 C0 2.01 0 1.02 0 0 Z " fill="#070203" transform="translate(107,123)"/>
</svg>
