<?xml version="1.0" encoding="UTF-8"?>
<svg version="1.1" xmlns="http://www.w3.org/2000/svg" width="256" height="256">
<path d="M0 0 C84.48 0 168.96 0 256 0 C256 84.48 256 168.96 256 256 C171.52 256 87.04 256 0 256 C0 171.52 0 87.04 0 0 Z " fill="#FEFEFE" transform="translate(0,0)"/>
<path d="M0 0 C0 0.66 0 1.32 0 2 C0.62648438 2.13277344 1.25296875 2.26554687 1.8984375 2.40234375 C2.71570313 2.57894531 3.53296875 2.75554688 4.375 2.9375 C5.18710938 3.11152344 5.99921875 3.28554687 6.8359375 3.46484375 C9 4 9 4 11 5 C11 5.66 11 6.32 11 7 C12.65 7.66 14.3 8.32 16 9 C16 9.66 16 10.32 16 11 C16.598125 11.268125 17.19625 11.53625 17.8125 11.8125 C21.75281902 13.95153032 22.77561139 15.3032143 24.1875 19.6875 C24.5896875 21.3271875 24.5896875 21.3271875 25 23 C25.66 23 26.32 23 27 23 C27.80954165 25.84666036 28.12828737 28.37973331 28.1328125 31.3359375 C28.13410156 32.15320313 28.13539063 32.97046875 28.13671875 33.8125 C28.13285156 34.658125 28.12898438 35.50375 28.125 36.375 C28.12886719 37.21289062 28.13273437 38.05078125 28.13671875 38.9140625 C28.12968189 43.38950693 27.90387448 47.59540529 27 52 C26.34 52 25.68 52 25 52 C24.9071875 53.3303125 24.9071875 53.3303125 24.8125 54.6875 C23.80546264 58.79311386 22.21120491 60.32399591 19 63 C17.515 63.495 17.515 63.495 16 64 C14.79117904 66.00016466 14.79117904 66.00016466 14 68 C13.01 68 12.02 68 11 68 C11 68.66 11 69.32 11 70 C4.5 73 4.5 73 0 73 C0 73.66 0 74.32 0 75 C-3.465 75.99 -3.465 75.99 -7 77 C-6.98839844 77.77085937 -6.97679687 78.54171875 -6.96484375 79.3359375 C-6.95582031 80.33882813 -6.94679688 81.34171875 -6.9375 82.375 C-6.92589844 83.37273437 -6.91429687 84.37046875 -6.90234375 85.3984375 C-7 88 -7 88 -8 90 C-6.19015625 89.98259766 -6.19015625 89.98259766 -4.34375 89.96484375 C-2.72916823 89.95545665 -1.11458476 89.94635744 0.5 89.9375 C1.29148437 89.92912109 2.08296875 89.92074219 2.8984375 89.91210938 C8.02761717 89.89108815 12.92336106 90.26062713 18 91 C18 91.66 18 92.32 18 93 C18.74765625 93.06058594 19.4953125 93.12117188 20.265625 93.18359375 C21.25046875 93.26738281 22.2353125 93.35117188 23.25 93.4375 C24.71179688 93.55931641 24.71179688 93.55931641 26.203125 93.68359375 C28.56461753 93.95074584 30.71901065 94.35371968 33 95 C33 95.66 33 96.32 33 97 C34.093125 97.12375 35.18625 97.2475 36.3125 97.375 C40 98 40 98 43 100 C43 100.66 43 101.32 43 102 C44.32 102.66 45.64 103.32 47 104 C47 104.66 47 105.32 47 106 C47.66 106 48.32 106 49 106 C51.04061541 113.17859349 52.37369729 119.52605426 52 127 C52.66 127 53.32 127 54 127 C55.18078586 135.70209411 55.34373548 144.42103582 55.5625 153.1875 C55.58334656 153.98225739 55.60419312 154.77701477 55.62567139 155.59585571 C55.88331556 165.45875783 56.09716863 175.32085725 56.125 185.1875 C56.12959229 186.08815186 56.13418457 186.98880371 56.13891602 187.91674805 C56.12400148 193.87599852 56.12400148 193.87599852 55 195 C53.14658629 195.10086984 51.2892902 195.13077013 49.43313599 195.13371277 C48.22445862 195.13797775 47.01578125 195.14224274 45.77047729 195.14663696 C44.41876217 195.1462874 43.06704708 195.14582584 41.71533203 195.14526367 C40.30135 195.14825362 38.88736879 195.15165576 37.47338867 195.15544128 C33.62212527 195.16430308 29.77088406 195.16662033 25.91961145 195.16725707 C22.70879755 195.16820453 19.49798887 195.171881 16.28717697 195.17542917 C8.7134213 195.18358229 1.13967752 195.18601265 -6.43408203 195.18530273 C-14.25537666 195.18470196 -22.07660231 195.19525167 -29.89787948 195.2110464 C-36.60447607 195.22410911 -43.31105009 195.22948715 -50.01765931 195.22884732 C-54.02685156 195.22859193 -58.03598258 195.23146586 -62.0451622 195.24202538 C-65.81586759 195.25168487 -69.58645294 195.2518004 -73.35716248 195.24450874 C-74.74270426 195.24346016 -76.12825343 195.24584196 -77.5137825 195.2518692 C-79.40222957 195.25955326 -81.29071727 195.25376124 -83.1791687 195.24723816 C-84.76593068 195.24805531 -84.76593068 195.24805531 -86.38474846 195.24888897 C-89 195 -89 195 -92 193 C-94.72565011 185.93447981 -94.09331951 178.66367235 -93.77856445 171.21899414 C-93.68787539 169.07138948 -93.61296142 166.92369712 -93.54101562 164.77539062 C-93.29263091 157.81002983 -92.90376281 150.91339926 -92 144 C-91.34 144 -90.68 144 -90 144 C-90.04125 142.80375 -90.0825 141.6075 -90.125 140.375 C-90.14592234 133.83676721 -89.02622968 127.44142377 -88 121 C-87.34 121 -86.68 121 -86 121 C-85.95101562 120.443125 -85.90203125 119.88625 -85.8515625 119.3125 C-84.57028537 106.23463687 -84.57028537 106.23463687 -81.375 101.6875 C-76.86414809 98.48242101 -72.52462137 97 -67 97 C-67 96.34 -67 95.68 -67 95 C-58.57142857 92.71428571 -58.57142857 92.71428571 -54 93 C-54 92.34 -54 91.68 -54 91 C-44.98187001 90.36635473 -36.04691745 89.87434837 -27 90 C-27 86.37 -27 82.74 -27 79 C-27.66 79 -28.32 79 -29 79 C-29 78.34 -29 77.68 -29 77 C-29.83144531 76.93941406 -30.66289063 76.87882812 -31.51953125 76.81640625 C-33.14955078 76.69072266 -33.14955078 76.69072266 -34.8125 76.5625 C-36.43091797 76.44068359 -36.43091797 76.44068359 -38.08203125 76.31640625 C-41 76 -41 76 -44 75 C-44 74.34 -44 73.68 -44 73 C-45.11375 72.814375 -45.11375 72.814375 -46.25 72.625 C-50.37291787 71.68797321 -53.29619623 70.29158719 -56 67 C-59 61.55555556 -59 61.55555556 -59 59 C-59.66 59 -60.32 59 -61 59 C-62.60355101 55.49223216 -63.22036864 52.85645121 -63 49 C-63.66 49 -64.32 49 -65 49 C-65.33088235 29.66176471 -65.33088235 29.66176471 -61 21 C-60.34 21 -59.68 21 -59 21 C-58.34 19.35 -57.68 17.7 -57 16 C-56.34 16 -55.68 16 -55 16 C-54.34 14.68 -53.68 13.36 -53 12 C-52.01 12 -51.02 12 -50 12 C-49.731875 11.360625 -49.46375 10.72125 -49.1875 10.0625 C-48 8 -48 8 -45 7 C-44.67 6.34 -44.34 5.68 -44 5 C-41.85546875 4.1484375 -41.85546875 4.1484375 -39.1875 3.375 C-38.31480469 3.11460938 -37.44210938 2.85421875 -36.54296875 2.5859375 C-34 2 -34 2 -30 2 C-30 1.34 -30 0.68 -30 0 C-20.12499831 -2.81147107 -9.97054425 -2.222007 0 0 Z " fill="#010101" transform="translate(149,61)"/>
<path d="M0 0 C1.32 0 2.64 0 4 0 C4 6.93 4 13.86 4 21 C3.34 21 2.68 21 2 21 C2 21.66 2 22.32 2 23 C2.66 23 3.32 23 4 23 C4 25.97 4 28.94 4 32 C3.34 32 2.68 32 2 32 C2 32.99 2 33.98 2 35 C2.99 35.495 2.99 35.495 4 36 C3.34 36 2.68 36 2 36 C1.94610913 37.95803507 1.90725783 39.91648909 1.875 41.875 C1.85179687 42.96554688 1.82859375 44.05609375 1.8046875 45.1796875 C1.69939466 48.1371051 1.69939466 48.1371051 4 50 C3.01 50.495 3.01 50.495 2 51 C2 52.32 2 53.64 2 55 C2.66 55 3.32 55 4 55 C7 59.38461538 7 59.38461538 7 62 C7.66 62 8.32 62 9 62 C9.495 61.01 9.495 61.01 10 60 C10.33 60.99 10.66 61.98 11 63 C11.66 63.33 12.32 63.66 13 64 C13 64.66 13 65.32 13 66 C14.98 66.33 16.96 66.66 19 67 C18.67 66.01 18.34 65.02 18 64 C19.32 63.67 20.64 63.34 22 63 C22 58.71 22 54.42 22 50 C26.17642656 48.32942937 27.66895852 47.75131219 31.8125 47.875 C32.60269531 47.89304688 33.39289063 47.91109375 34.20703125 47.9296875 C34.79871094 47.95289063 35.39039063 47.97609375 36 48 C36 48.66 36 49.32 36 50 C36.8971875 50.1546875 36.8971875 50.1546875 37.8125 50.3125 C40 51 40 51 41.3125 52.5 C43.89757027 54.79784024 46.64796938 54.6837707 50 55 C50.103125 55.639375 50.20625 56.27875 50.3125 56.9375 C50.539375 57.618125 50.76625 58.29875 51 59 C52.485 59.495 52.485 59.495 54 60 C55.98834962 64.39529916 56.19118486 68.22037853 56 73 C56.66 73 57.32 73 58 73 C58.33 73.99 58.66 74.98 59 76 C58.67 76.33 58.34 76.66 58 77 C57.95936168 78.66617115 57.957279 80.33388095 58 82 C57.34 82 56.68 82 56 82 C56 82.99 56 83.98 56 85 C56.66 85 57.32 85 58 85 C58 85.66 58 86.32 58 87 C57.34 87 56.68 87 56 87 C56 87.99 56 88.98 56 90 C56.66 90.33 57.32 90.66 58 91 C57.34 91 56.68 91 56 91 C56 93.31 56 95.62 56 98 C56.66 98.33 57.32 98.66 58 99 C57.01 99.495 57.01 99.495 56 100 C55.56845773 102.74936305 55.56845773 102.74936305 55.4375 105.9375 C55.09446694 111.81106613 55.09446694 111.81106613 54 114 C53.34 114 52.68 114 52 114 C51.505 115.485 51.505 115.485 51 117 C50.34 117 49.68 117 49 117 C49 117.99 49 118.98 49 120 C46.69 120 44.38 120 42 120 C41.67 120.66 41.34 121.32 41 122 C34.93107371 122.25287193 29.83799592 121.69832609 24 120 C24 119.34 24 118.68 24 118 C22.02 117.67 20.04 117.34 18 117 C18 116.01 18 115.02 18 114 C16.02 113.01 16.02 113.01 14 112 C14 111.01 14 110.02 14 109 C12.515 108.505 12.515 108.505 11 108 C11 103.38 11 98.76 11 94 C11.66 94 12.32 94 13 94 C13 86.41 13 78.82 13 71 C13.66 71 14.32 71 15 71 C15 70.34 15 69.68 15 69 C14.34 69 13.68 69 13 69 C13 68.34 13 67.68 13 67 C11.515 66.505 11.515 66.505 10 66 C10 65.34 10 64.68 10 64 C9.360625 63.896875 8.72125 63.79375 8.0625 63.6875 C7.381875 63.460625 6.70125 63.23375 6 63 C5.67 62.01 5.34 61.02 5 60 C1.78673743 59.0508054 1.78673743 59.0508054 -2 59 C-5.31708204 61.15310372 -5.31708204 61.15310372 -8 64 C-8.54567627 64.44641846 -9.09135254 64.89283691 -9.65356445 65.3527832 C-11.52674002 67.64440886 -11.34377307 69.17575283 -11.29296875 72.10546875 C-11.28330078 73.08837891 -11.27363281 74.07128906 -11.26367188 75.08398438 C-11.23853516 76.10814453 -11.21339844 77.13230469 -11.1875 78.1875 C-11.17396484 79.22326172 -11.16042969 80.25902344 -11.14648438 81.32617188 C-11.11111389 83.88463699 -11.06175544 86.4420578 -11 89 C-10.34 89 -9.68 89 -9 89 C-9 97.91 -9 106.82 -9 116 C-9.66 116 -10.32 116 -11 116 C-11.06445312 116.62390625 -11.12890625 117.2478125 -11.1953125 117.890625 C-12 120 -12 120 -14.1796875 121.046875 C-15.06914063 121.27890625 -15.95859375 121.5109375 -16.875 121.75 C-17.75929687 121.99234375 -18.64359375 122.2346875 -19.5546875 122.484375 C-22 123 -22 123 -25 123 C-25 123.66 -25 124.32 -25 125 C-30.94 125 -36.88 125 -43 125 C-43 124.34 -43 123.68 -43 123 C-43.60328125 123.02320313 -44.2065625 123.04640625 -44.828125 123.0703125 C-45.62734375 123.08835937 -46.4265625 123.10640625 -47.25 123.125 C-48.03890625 123.14820313 -48.8278125 123.17140625 -49.640625 123.1953125 C-52.2979611 122.97533435 -53.81803622 122.53509841 -56 121 C-56.90452047 118.2322197 -57.17154271 115.56914573 -57.31640625 112.671875 C-57.35830078 111.87265625 -57.40019531 111.0734375 -57.44335938 110.25 C-57.48267578 109.425 -57.52199219 108.6 -57.5625 107.75 C-57.60568359 106.90953125 -57.64886719 106.0690625 -57.69335938 105.203125 C-57.79908543 103.13559329 -57.90001295 101.06781719 -58 99 C-57.34 99 -56.68 99 -56 99 C-56 96.03 -56 93.06 -56 90 C-55.34 90 -54.68 90 -54 90 C-53.93941406 89.39671875 -53.87882812 88.7934375 -53.81640625 88.171875 C-53.73261719 87.37265625 -53.64882812 86.5734375 -53.5625 85.75 C-53.48128906 84.96109375 -53.40007812 84.1721875 -53.31640625 83.359375 C-53.02365007 81.17635361 -52.57935581 79.1226818 -52 77 C-51.34 77 -50.68 77 -50 77 C-49.92652344 75.57107422 -49.92652344 75.57107422 -49.8515625 74.11328125 C-49.77679688 72.85902344 -49.70203125 71.60476562 -49.625 70.3125 C-49.52058594 68.45044922 -49.52058594 68.45044922 -49.4140625 66.55078125 C-48.83105023 61.55117603 -47.71073409 58.38806156 -44 55 C-43.67 54.34 -43.34 53.68 -43 53 C-42.34 53 -41.68 53 -41 53 C-40.731875 52.360625 -40.46375 51.72125 -40.1875 51.0625 C-39 49 -39 49 -36 48 C-35.67 47.34 -35.34 46.68 -35 46 C-29.88471203 44.41249684 -25.39628659 43.57676184 -20 44 C-17 46 -17 46 -16.56762695 48.15478516 C-16.54144287 49.02409668 -16.51525879 49.8934082 -16.48828125 50.7890625 C-16.45283203 51.73007813 -16.41738281 52.67109375 -16.38085938 53.640625 C-16.34702148 55.11789063 -16.34702148 55.11789063 -16.3125 56.625 C-16.27833984 57.61757812 -16.24417969 58.61015625 -16.20898438 59.6328125 C-16.12634343 62.08842906 -16.05724873 64.54368141 -16 67 C-15.34 67 -14.68 67 -14 67 C-14 65.35 -14 63.7 -14 62 C-13.34 62 -12.68 62 -12 62 C-9.37211797 59.69064913 -8.12005631 58.36016893 -7 55 C-6.34 55 -5.68 55 -5 55 C-4.34517194 51.15288515 -3.94510455 47.52943858 -4 43.625 C-4.05477528 39.01605107 -3.59474764 34.56508998 -3 30 C-2.8124316 28.4791751 -2.62492774 26.95834224 -2.4375 25.4375 C-2.293125 24.303125 -2.14875 23.16875 -2 22 C-1.34 22 -0.68 22 0 22 C0 21.01 0 20.02 0 19 C-0.66 19 -1.32 19 -2 19 C-2 18.34 -2 17.68 -2 17 C-1.34 17 -0.68 17 0 17 C0 16.01 0 15.02 0 14 C-0.66 13.67 -1.32 13.34 -2 13 C-1.34 13 -0.68 13 0 13 C0 8.71 0 4.42 0 0 Z " fill="#FDFDFD" transform="translate(131,128)"/>
<path d="M0 0 C2.4375 2.125 2.4375 2.125 4 5 C4 8.77910616 3.83289714 11.00693033 1.375 13.9375 C-2.01168643 15.45259656 -4.33417263 15.52368962 -8 15 C-12.01012125 11.51752628 -12.5943871 8.17156444 -13 3 C-12.34 3 -11.68 3 -11 3 C-11 2.34 -11 1.68 -11 1 C-6.95269975 -1.02365012 -4.34390623 -1.38635305 0 0 Z " fill="#FCFCFC" transform="translate(137,108)"/>
<path d="M0 0 C0 0.66 0 1.32 0 2 C0.66 2.33 1.32 2.66 2 3 C1.34 3 0.68 3 0 3 C0 3.99 0 4.98 0 6 C-1.45706726 6.50367757 -2.91570096 7.00282556 -4.375 7.5 C-5.18710937 7.7784375 -5.99921875 8.056875 -6.8359375 8.34375 C-9 9 -9 9 -11 9 C-11.33 9.99 -11.66 10.98 -12 12 C-14.64 12 -17.28 12 -20 12 C-19.65310493 6.62312634 -19.65310493 6.62312634 -19 4 C-16.47763955 1.98211164 -15.24903049 2 -12 2 C-12 1.34 -12 0.68 -12 0 C-10.56359829 -0.19573608 -9.12580496 -0.38127816 -7.6875 -0.5625 C-6.88699219 -0.66691406 -6.08648437 -0.77132812 -5.26171875 -0.87890625 C-3 -1 -3 -1 0 0 Z " fill="#030303" transform="translate(48,215)"/>
<path d="M0 0 C0.680625 0.07863281 1.36125 0.15726563 2.0625 0.23828125 C4 0.6875 4 0.6875 7 2.6875 C7 3.3475 7 4.0075 7 4.6875 C7.99 5.0175 8.98 5.3475 10 5.6875 C10 7.0075 10 8.3275 10 9.6875 C3.73960391 10.61963141 -1.02197063 10.89677172 -7 8.6875 C-8.125 2.9375 -8.125 2.9375 -7 0.6875 C-4.09583903 -0.28055366 -2.92345144 -0.37096827 0 0 Z " fill="#020202" transform="translate(41,194.3125)"/>
<path d="M0 0 C-0.34796683 3.13170151 -0.81274086 4.76754038 -2.8125 7.25 C-4.97650817 8.98120654 -6.29222168 9.61317453 -9 10 C-9 10.66 -9 11.32 -9 12 C-9.63808594 12.12117187 -10.27617187 12.24234375 -10.93359375 12.3671875 C-11.75988281 12.53476563 -12.58617187 12.70234375 -13.4375 12.875 C-14.67306641 13.11863281 -14.67306641 13.11863281 -15.93359375 13.3671875 C-16.61550781 13.57601562 -17.29742187 13.78484375 -18 14 C-18.33 14.66 -18.66 15.32 -19 16 C-19.3125 13.3125 -19.3125 13.3125 -19 10 C-16.75 7.375 -16.75 7.375 -14 5 C-13.29875 4.2575 -12.5975 3.515 -11.875 2.75 C-8.29843714 -0.58812533 -4.65607095 -0.0878504 0 0 Z " fill="#030303" transform="translate(232,178)"/>
<path d="M0 0 C0.33 1.65 0.66 3.3 1 5 C0.01 5.33 -0.98 5.66 -2 6 C-2 6.66 -2 7.32 -2 8 C-4.98594424 9.49297212 -7.70853624 9.11755228 -11 9 C-11.66 8.67 -12.32 8.34 -13 8 C-13 7.34 -13 6.68 -13 6 C-13.99 5.67 -14.98 5.34 -16 5 C-16 3.68 -16 2.36 -16 1 C-10.59255982 0.22750855 -5.46137814 -0.09752461 0 0 Z " fill="#030303" transform="translate(230,204)"/>
<path d="M0 0 C2.64 0.33 5.28 0.66 8 1 C8.33 1.99 8.66 2.98 9 4 C9.99 4.33 10.98 4.66 12 5 C11.67 6.65 11.34 8.3 11 10 C8.69 10 6.38 10 4 10 C3.34 8.68 2.68 7.36 2 6 C1.34 6 0.68 6 0 6 C0 4.02 0 2.04 0 0 Z " fill="#040404" transform="translate(210,222)"/>
<path d="M0 0 C0.66 0.66 1.32 1.32 2 2 C1.67 2.66 1.34 3.32 1 4 C-0.65 4 -2.3 4 -4 4 C-3.67 3.01 -3.34 2.02 -3 1 C-2.01 0.67 -1.02 0.34 0 0 Z M-7 5 C-6.01 5.33 -5.02 5.66 -4 6 C-4.66 6.66 -5.32 7.32 -6 8 C-6.33 7.01 -6.66 6.02 -7 5 Z " fill="#090909" transform="translate(73,160)"/>
</svg>
