<?xml version="1.0" encoding="UTF-8"?>
<svg version="1.1" xmlns="http://www.w3.org/2000/svg" width="256" height="256">
<path d="M0 0 C84.48 0 168.96 0 256 0 C256 84.48 256 168.96 256 256 C171.52 256 87.04 256 0 256 C0 171.52 0 87.04 0 0 Z " fill="#FEFEFE" transform="translate(0,0)"/>
<path d="M0 0 C0.7734375 0.40089844 1.546875 0.80179688 2.34375 1.21484375 C17.99945217 9.76107357 28.89110774 23.48055042 35.1484375 40.0390625 C37.27527949 47.43422867 36.54049984 54.62452474 33.37890625 61.59765625 C28.97516116 69.26990337 22.29766531 74.53529957 15.453125 79.94921875 C12.84177593 81.99960863 12.84177593 81.99960863 10.5625 85 C7.21451422 88.9195931 3.27061177 91.6123865 -0.87890625 94.64453125 C-5.51941603 98.1466932 -9.74400964 102.04653561 -14 106 C-19.25516472 110.87672405 -24.57712284 115.50734254 -30.3125 119.8125 C-35.54204123 123.74561973 -40.35688007 127.97653492 -45.11767578 132.46142578 C-49.3992389 136.4849857 -53.8240829 140.29714336 -58.33374023 144.06176758 C-61.65342305 146.83931767 -64.87885345 149.69055262 -68.0625 152.625 C-81.76621457 164.98693834 -99.57779872 178.73441571 -118.6875 178.2890625 C-125.25815121 177.7156802 -129.65880329 174.78334767 -135 171 C-136.11375 170.29875 -137.2275 169.5975 -138.375 168.875 C-148.26239887 161.69796266 -159.11571839 145.94916668 -162 134 C-162.54069153 120.97190892 -151.72314648 110.92339908 -143.69921875 101.92578125 C-142.57473892 100.65137078 -141.47248339 99.3569688 -140.39453125 98.04296875 C-133.44785015 89.67725065 -125.04058822 83.54189705 -115.828125 77.8828125 C-111.54240707 75.02961355 -107.70776694 71.70271519 -103.80078125 68.36328125 C-101.42007137 66.35445353 -99.01112554 64.4652497 -96.5 62.625 C-92.89446713 59.96554704 -89.9227981 57.21833474 -87.20703125 53.6328125 C-84.96753796 50.96127537 -82.70171336 49.05035233 -79.9375 46.9375 C-74.62786262 42.68696582 -70.20290329 38.04771343 -65.703125 32.98828125 C-63.14511152 30.12112833 -60.4396644 27.43212428 -57.6875 24.75 C-54.85781551 21.96466793 -52.33834631 19.25120902 -50.0625 16 C-38.52260702 -0.17557648 -18.67791509 -11.11614722 0 0 Z " fill="#010101" transform="translate(186,43)"/>
<path d="M0 0 C4.0837114 1.5124857 6.68297597 4.41914468 9 8 C9.4125 9.05960938 9.825 10.11921875 10.25 11.2109375 C12.14347505 15.78799243 15.2279918 19.21877373 18.4375 22.9375 C26.02813792 31.74059077 30.63971055 39.30333481 29.8515625 51.25 C28.199153 61.53165914 21.22588877 70.03077098 13 76 C9.40823856 78.46391365 5.72707897 80.74706421 2 83 C0.72394375 83.77862194 -0.55209713 84.55726905 -1.828125 85.3359375 C-3.15573126 86.14148055 -4.48385245 86.94617559 -5.8125 87.75 C-6.74557983 88.31533447 -6.74557983 88.31533447 -7.69750977 88.89208984 C-17.55241973 94.80001791 -26.31400704 98.22926429 -38 97 C-47.49325316 94.30058259 -53.69417164 83.19043765 -59.0390625 75.6484375 C-61.38167215 72.48451451 -63.94569836 69.60852314 -66.65234375 66.75390625 C-68.12688393 64.83486701 -68.58942777 63.36468816 -69 61 C-67.50067938 59.64508116 -66.00049946 58.29111322 -64.5 56.9375 C-63.58089844 56.10734375 -62.66179687 55.2771875 -61.71484375 54.421875 C-59.52626886 52.46947725 -57.30771925 50.57329746 -55.0625 48.6875 C-51.65278896 45.73058761 -48.63715112 42.47723269 -45.625 39.125 C-35.51322496 27.89182597 -23.81018589 18.68212332 -11.5546875 9.8984375 C-9.24979469 8.18562725 -7.08793796 6.40059455 -4.9375 4.5 C-2 2 -2 2 0 2 C0 1.34 0 0.68 0 0 Z " fill="#000000" transform="translate(195,133)"/>
<path d="M0 0 C14.00757267 10.7455352 24.07506304 27.69284829 34 42 C29.95694717 47.52293502 25.72686946 52.82329808 21.25 58 C20.67378906 58.67933594 20.09757812 59.35867187 19.50390625 60.05859375 C18.95089844 60.69925781 18.39789063 61.33992188 17.828125 62 C17.3321582 62.5775 16.83619141 63.155 16.32519531 63.75 C15 65 15 65 13 65 C13 65.66 13 66.32 13 67 C11.5390625 68.5078125 11.5390625 68.5078125 9.625 70.125 C8.99851562 70.66382812 8.37203125 71.20265625 7.7265625 71.7578125 C6 73 6 73 4 73 C4 73.66 4 74.32 4 75 C2.70703125 76.33984375 2.70703125 76.33984375 0.8125 77.9375 C0.09191406 78.55109375 -0.62867188 79.1646875 -1.37109375 79.796875 C-2.23863281 80.52390625 -3.10617188 81.2509375 -4 82 C-5.67332225 83.40770739 -7.34560376 84.81662998 -9.0168457 86.22680664 C-10.15270291 87.18410114 -11.29049605 88.13910436 -12.43041992 89.09155273 C-14.8125979 91.09235197 -17.09661945 93.09945139 -19.265625 95.33203125 C-21 97 -21 97 -23 97 C-23 97.66 -23 98.32 -23 99 C-23.66 99 -24.32 99 -25 99 C-25 99.66 -25 100.32 -25 101 C-27.5 102.625 -27.5 102.625 -30 104 C-30.40089844 103.40574219 -30.80179688 102.81148438 -31.21484375 102.19921875 C-34.40432334 97.54879839 -37.69717693 93.07938154 -41.3125 88.75 C-59.93710941 66.13212099 -59.93710941 66.13212099 -59.3515625 51.25390625 C-57.54353208 39.66242232 -50.87314664 32.42849896 -42.0234375 25.453125 C-38.90313648 22.92140789 -35.98625958 20.25143583 -33.0625 17.5 C-10.35477096 -3.6396383 -10.35477096 -3.6396383 0 0 Z " fill="#000000" transform="translate(95,16)"/>
<path d="M0 0 C0.66 0.33 1.32 0.66 2 1 C1.98839844 1.70125 1.97679687 2.4025 1.96484375 3.125 C1.91028816 8.86113102 2.14381623 14.32778253 3 20 C2.01 20 1.02 20 0 20 C-2.68835204 13.97809143 -3.40122689 10.46720103 -2 4 C-0.9375 1.5 -0.9375 1.5 0 0 Z " fill="#FAFAFA" transform="translate(29,165)"/>
<path d="M0 0 C-0.65915728 2.63662913 -1.33831449 4.48156599 -3.515625 6.1875 C-6.92502435 8.20349266 -10.02234305 9.51785976 -14 10 C-14 10.66 -14 11.32 -14 12 C-14.66 11.67 -15.32 11.34 -16 11 C-12.50829939 5.83835562 -6.52780865 0 0 0 Z " fill="#060606" transform="translate(85,18)"/>
<path d="M0 0 C1 2 1 2 0.375 3.9375 C-1.35198322 6.52797483 -3.2734275 7.56496184 -6 9 C-6.66 8.34 -7.32 7.68 -8 7 C-5.36 4.69 -2.72 2.38 0 0 Z " fill="#070707" transform="translate(173,150)"/>
<path d="M0 0 C0.66 0.66 1.32 1.32 2 2 C-0.64 3.65 -3.28 5.3 -6 7 C-6 6.01 -6 5.02 -6 4 C-3 1.8125 -3 1.8125 0 0 Z " fill="#FAFAFA" transform="translate(82,20)"/>
<path d="M0 0 C0.99 0.33 1.98 0.66 3 1 C1.5998884 3.8002232 -0.26572551 4.56776098 -3 6 C-3.99 6 -4.98 6 -6 6 C-4 4 -2 2 0 0 Z " fill="#080808" transform="translate(80,113)"/>
<path d="M0 0 C0.66 0.33 1.32 0.66 2 1 C2 1.66 2 2.32 2 3 C0 4.625 0 4.625 -2 6 C-2.66 4.68 -3.32 3.36 -4 2 C-2.125 0.9375 -2.125 0.9375 0 0 Z " fill="#F8F8F8" transform="translate(201,213)"/>
</svg>
