<?xml version="1.0" encoding="UTF-8"?>
<svg version="1.1" xmlns="http://www.w3.org/2000/svg" width="256" height="256">
<path d="M0 0 C84.48 0 168.96 0 256 0 C256 84.48 256 168.96 256 256 C171.52 256 87.04 256 0 256 C0 171.52 0 87.04 0 0 Z " fill="#FEFEFE" transform="translate(0,0)"/>
<path d="M0 0 C1.23105469 -0.00386719 2.46210937 -0.00773437 3.73046875 -0.01171875 C5.49583984 -0.00978516 5.49583984 -0.00978516 7.296875 -0.0078125 C8.90320801 -0.00612061 8.90320801 -0.00612061 10.54199219 -0.00439453 C13.25 0.125 13.25 0.125 16.25 1.125 C16.25 1.785 16.25 2.445 16.25 3.125 C17.8278125 3.00125 17.8278125 3.00125 19.4375 2.875 C23.91583136 3.16866107 25.27771036 3.81302011 28.25 7.125 C30.51599432 13.18915563 30.67434909 19.13749078 30.875 25.5625 C30.91367188 26.58021484 30.95234375 27.59792969 30.9921875 28.64648438 C31.08580907 31.13915861 31.17004808 33.63186152 31.25 36.125 C23.11001898 38.20649742 15.29870563 38.3876631 6.9296875 38.3203125 C5.57634696 38.31657317 4.22300367 38.31373056 2.86965942 38.31173706 C-0.65828182 38.30417285 -4.18605319 38.28458825 -7.71392822 38.2623291 C-11.32749129 38.24171341 -14.94108233 38.23270204 -18.5546875 38.22265625 C-25.61986033 38.201334 -32.68491896 38.1672875 -39.75 38.125 C-39.75 38.785 -39.75 39.445 -39.75 40.125 C-28.53 40.125 -17.31 40.125 -5.75 40.125 C-4.89447545 62.84392971 -4.61452245 85.51693004 -4.83621216 108.24734497 C-4.86456225 111.20823286 -4.88127827 114.16883829 -4.88815308 117.12985229 C-4.89730842 120.67154966 -4.93133253 124.21217988 -4.98392677 127.75349045 C-5.00727191 129.70863194 -5.00668901 131.66401269 -5.00553894 133.61929321 C-5.17371405 142.3098615 -5.17371405 142.3098615 -8.05493164 146.38525391 C-14.084428 150.27747159 -21.68215403 150.79410279 -28.75 150.125 C-38.20072954 147.69783004 -46.76850101 141.74545773 -52.75 134.125 C-53.68392578 132.949375 -53.68392578 132.949375 -54.63671875 131.75 C-65.21560107 117.55611177 -66.18730719 102.37624309 -64.08056641 85.31201172 C-62.77784 76.44692967 -59.85258634 69.27406697 -55.4921875 61.48046875 C-53.95105557 58.51223482 -53.27833754 56.36887885 -52.75 53.125 C-50.01274704 48.461532 -46.65536731 43.896469 -42.75 40.125 C-42.09 40.125 -41.43 40.125 -40.75 40.125 C-40.93691406 38.97902344 -41.12382813 37.83304688 -41.31640625 36.65234375 C-42.4626374 27.36603254 -40.56034643 15.35472189 -34.75 7.859375 C-25.06700993 -0.53759295 -12.02490267 -0.03825526 0 0 Z " fill="#000000" transform="translate(118.75,92.875)"/>
<path d="M0 0 C1.96484375 1.98828125 1.96484375 1.98828125 3.9375 4.3125 C6.07176769 6.81167231 8.17512334 9.16604683 10.5625 11.4296875 C23.24574663 24.80400846 24.54194338 48.48944417 24.2734375 65.88671875 C23.76599292 79.41941169 18.66188663 95.09117815 8.6875 104.625 C-1.63436221 112.6550297 -12.32613434 113.25693503 -25 112 C-31.18436618 110.90214508 -35.3979659 109.82033834 -39.61735535 105.02598572 C-42.74659763 100.49129632 -42.67370094 96.39476113 -42.56762695 91.02563477 C-42.56835709 90.04925552 -42.56908722 89.07287628 -42.56983948 88.06690979 C-42.56637177 84.85783233 -42.5275481 81.65022837 -42.48828125 78.44140625 C-42.47895025 76.20939425 -42.4718355 73.97737199 -42.46684265 71.74534607 C-42.44779568 65.88432302 -42.39871385 60.0239242 -42.34332275 54.16314697 C-42.29208111 48.17720991 -42.26931806 42.19117152 -42.24414062 36.20507812 C-42.19059359 24.46977854 -42.105308 12.73494128 -42 1 C-41.31617249 0.97592575 -40.63234497 0.9518515 -39.92779541 0.92704773 C-36.79022213 0.81399681 -33.65294228 0.6941562 -30.515625 0.57421875 C-29.44006348 0.53647339 -28.36450195 0.49872803 -27.25634766 0.45983887 C-20.23304164 0.18528171 -13.51607841 -0.46145255 -6.609375 -1.79296875 C-3.58076407 -2.03326273 -2.47101817 -1.72920112 0 0 Z " fill="#000000" transform="translate(157,132)"/>
<path d="M0 0 C1.32 0.33 2.64 0.66 4 1 C4 4 4 4 2.75 5.3125 C1.88375 6.1478125 1.88375 6.1478125 1 7 C0.38125 7.969375 -0.2375 8.93875 -0.875 9.9375 C-3 13 -3 13 -5.75 14.8125 C-8.20971657 16.73444402 -8.20971657 16.73444402 -8.21972656 19.18237305 C-8.19362305 19.99230713 -8.16751953 20.80224121 -8.140625 21.63671875 C-8.12032227 22.45229248 -8.10001953 23.26786621 -8.07910156 24.1081543 C-8.05299805 24.73246338 -8.02689453 25.35677246 -8 26 C-8.7748877 25.98952637 -9.54977539 25.97905273 -10.34814453 25.96826172 C-30.28054504 25.52806983 -30.28054504 25.52806983 -50 28 C-50 26.35 -50 24.7 -50 23 C-50.59167969 22.76925781 -51.18335937 22.53851563 -51.79296875 22.30078125 C-56.76070234 20.25047685 -60.67161537 18.40205709 -64 14 C-64.3125 11.1875 -64.3125 11.1875 -64 9 C-62.35 8.67 -60.7 8.34 -59 8 C-59.061875 8.9075 -59.12375 9.815 -59.1875 10.75 C-58.98118639 14.32610265 -58.49451413 15.50548587 -56 18 C-52.29397865 19.23534045 -49.90246386 19.45528745 -46 19 C-44.08353329 17.64891175 -42.50132433 16.19089345 -40.87109375 14.5078125 C-36.16623646 10.71642437 -30.67244436 10.68546444 -24.875 10.75 C-24.17246094 10.74226563 -23.46992187 10.73453125 -22.74609375 10.7265625 C-19.03729857 10.74058441 -16.08544633 10.82023195 -13 13 C-12.505 13.99 -12.505 13.99 -12 15 C-7.30991919 13.65997691 -4.52708185 11.08575642 -2 7 C-1.09069425 4.66111563 -0.54194166 2.46337118 0 0 Z " fill="#020202" transform="translate(142,66)"/>
<path d="M0 0 C2.79310605 0.28110489 5.58398875 0.57436052 8.375 0.875 C9.1690625 0.95363281 9.963125 1.03226563 10.78125 1.11328125 C16.7734375 1.7734375 16.7734375 1.7734375 19 4 C19.68261719 6.52758789 19.68261719 6.52758789 20.296875 9.72265625 C20.53067871 10.89393066 20.76448242 12.06520508 21.00537109 13.27197266 C21.25109863 14.52284668 21.49682617 15.7737207 21.75 17.0625 C23.78600651 27.06149751 26.20110516 36.56270924 29.8984375 46.0703125 C31 49 31 49 31 51 C30.34 51 29.68 51 29 51 C22.56690533 36.24865472 19.4269322 20.65200078 16 5 C14.92878906 4.80664062 13.85757813 4.61328125 12.75390625 4.4140625 C11.35668511 4.15149745 9.95955422 3.88845175 8.5625 3.625 C7.85544922 3.49867188 7.14839844 3.37234375 6.41992188 3.2421875 C4.59948 2.89377757 2.79728352 2.452957 1 2 C0.67 1.34 0.34 0.68 0 0 Z " fill="#040404" transform="translate(177,155)"/>
<path d="M0 0 C0.33 1.32 0.66 2.64 1 4 C0.41992188 4.18175781 -0.16015625 4.36351562 -0.7578125 4.55078125 C-7.6821048 6.64051484 -7.6821048 6.64051484 -14 10 C-17.43273515 17.28671978 -18.40913987 25.10701463 -19.6875 33 C-19.91397578 34.36080007 -20.1411835 35.72147854 -20.36914062 37.08203125 C-20.91995204 40.38689971 -21.46334573 43.69280835 -22 47 C-22.66 47 -23.32 47 -24 47 C-23.1599874 37.64933341 -22.08545906 28.38897356 -20.1875 19.1875 C-20.04666992 18.44193848 -19.90583984 17.69637695 -19.76074219 16.92822266 C-18.67138622 11.95561968 -17.13055483 9.23999549 -13 6 C-9.921875 4.453125 -9.921875 4.453125 -6.75 3.25 C-3.10516371 2.07100251 -3.10516371 2.07100251 0 0 Z " fill="#040404" transform="translate(58,154)"/>
<path d="M0 0 C1.03125 0.00322266 2.0625 0.00644531 3.125 0.00976562 C4.74535156 0.02233398 4.74535156 0.02233398 6.3984375 0.03515625 C8.03039062 0.04192383 8.03039062 0.04192383 9.6953125 0.04882812 C12.38807539 0.06063849 15.08072938 0.07710847 17.7734375 0.09765625 C17.7734375 0.75765625 17.7734375 1.41765625 17.7734375 2.09765625 C17.11859375 2.07558105 16.46375 2.05350586 15.7890625 2.03076172 C3.22471088 1.2604204 3.22471088 1.2604204 -8.2890625 5.07421875 C-10.26779464 7.65135779 -11.73955485 10.21253815 -13.2265625 13.09765625 C-14.52761588 14.83070001 -15.85982488 16.54092832 -17.2265625 18.22265625 C-18.22728319 19.51376464 -19.22757025 20.80521002 -20.2265625 22.09765625 C-21.2165625 21.76765625 -22.2065625 21.43765625 -23.2265625 21.09765625 C-22.12248047 19.81181641 -22.12248047 19.81181641 -20.99609375 18.5 C-14.82837419 11.37225067 -14.82837419 11.37225067 -9.1640625 3.84765625 C-6.33034327 -0.17439685 -4.70362718 -0.02584411 0 0 Z " fill="#020202" transform="translate(58.2265625,122.90234375)"/>
<path d="M0 0 C1.18335938 -0.03867188 1.18335938 -0.03867188 2.390625 -0.078125 C5.54179082 0.3601166 7.21645117 1.3166082 9.75 3.25 C11.84765625 6.140625 11.84765625 6.140625 13.8125 9.5 C14.15539062 10.07903076 14.49828125 10.65806152 14.8515625 11.25463867 C15.82972594 12.91272798 16.79034863 14.5811282 17.75 16.25 C18.21277344 17.04535156 18.67554688 17.84070313 19.15234375 18.66015625 C20.03093669 20.18284224 20.89321942 21.71493479 21.75 23.25 C20.76 23.25 19.77 23.25 18.75 23.25 C17.5390625 21.73706055 17.5390625 21.73706055 16.375 19.63671875 C15.94703125 18.88326172 15.5190625 18.12980469 15.078125 17.35351562 C14.63984375 16.55623047 14.2015625 15.75894531 13.75 14.9375 C12.8792395 13.37653375 12.00437782 11.81784668 11.125 10.26171875 C10.74085938 9.56522217 10.35671875 8.86872559 9.9609375 8.15112305 C8.71189318 6.19017383 7.5460439 4.72734056 5.75 3.25 C2.59198864 2.84680758 2.59198864 2.84680758 -0.9375 3 C-2.18144531 3.02578125 -3.42539063 3.0515625 -4.70703125 3.078125 C-8.61476831 3.26769549 -12.38886078 3.63221772 -16.25 4.25 C-16.25 3.59 -16.25 2.93 -16.25 2.25 C-11.48564973 -0.13217514 -5.24177865 0.16478645 0 0 Z " fill="#030303" transform="translate(167.25,114.75)"/>
<path d="M0 0 C0.66 0 1.32 0 2 0 C1.83164204 2.74984673 1.47909368 5.29024614 1 8 C0.80792969 9.23105469 0.61585938 10.46210937 0.41796875 11.73046875 C-0.48138298 16.06867422 -1.52588483 19.26465738 -4 23 C-9.15984728 25.9041837 -15.22022814 26.31150053 -21 27 C-21.66 27.33 -22.32 27.66 -23 28 C-23.33 27.01 -23.66 26.02 -24 25 C-22.75863281 24.8246875 -21.51726562 24.649375 -20.23828125 24.46875 C-11.5205782 23.17960869 -11.5205782 23.17960869 -4.67285156 18.25732422 C-2.53533487 13.71427403 -1.74189241 8.93384393 -1 4 C-0.68393234 2.66246865 -0.36162029 1.32594105 0 0 Z " fill="#040404" transform="translate(173,78)"/>
<path d="M0 0 C0.99 0.495 0.99 0.495 2 1 C2.37890625 2.73413086 2.37890625 2.73413086 2.5625 4.96484375 C2.63726562 5.76470703 2.71203125 6.56457031 2.7890625 7.38867188 C2.85867187 8.22978516 2.92828125 9.07089844 3 9.9375 C3.13765207 11.59314848 3.28312824 13.24817044 3.4375 14.90234375 C3.49808594 15.63960693 3.55867188 16.37687012 3.62109375 17.13647461 C3.86981531 19.23783983 3.86981531 19.23783983 6 21 C8.88717605 21.6837613 8.88717605 21.6837613 12.125 22.125 C13.22070312 22.29257813 14.31640625 22.46015625 15.4453125 22.6328125 C16.28835937 22.75398438 17.13140625 22.87515625 18 23 C18 23.66 18 24.32 18 25 C16.08249714 24.91256669 14.16593335 24.8043811 12.25 24.6875 C11.18265625 24.62949219 10.1153125 24.57148437 9.015625 24.51171875 C5.70795119 23.9504425 4.28093478 23.44461297 2 21 C-0.14266162 14.26880832 -0.23355374 7.00661229 0 0 Z " fill="#030303" transform="translate(60,85)"/>
</svg>
