<?xml version="1.0" encoding="UTF-8"?>
<svg version="1.1" xmlns="http://www.w3.org/2000/svg" width="256" height="256">
<path d="M0 0 C84.48 0 168.96 0 256 0 C256 84.48 256 168.96 256 256 C171.52 256 87.04 256 0 256 C0 171.52 0 87.04 0 0 Z " fill="#FEFEFE" transform="translate(0,0)"/>
<path d="M0 0 C5.362365 0.14959387 11.10516454 0.8462724 16 3 C17.86198275 6.14209589 19.09277072 8.42289768 18.875 12.125 C17.7545767 14.52590706 16.37320367 16.73606963 15 19 C16.11117187 18.79503906 17.22234375 18.59007813 18.3671875 18.37890625 C51.53849949 12.33656218 51.53849949 12.33656218 61 18.25 C62.55125776 20.96470109 62.36851642 22.92902986 62 26 C61.0436126 27.69207001 60.04851907 29.36342262 59 31 C61.12534659 30.85930804 63.25027529 30.71229079 65.375 30.5625 C67.15003906 30.44068359 67.15003906 30.44068359 68.9609375 30.31640625 C71.91518901 30.18915064 71.91518901 30.18915064 74 29 C76.14742039 29.01143766 78.29483718 29.10667807 80.4375 29.25 C81.59121094 29.31703125 82.74492187 29.3840625 83.93359375 29.453125 C87.14919377 30.02660781 88.09845268 30.43482543 90 33 C91.92905027 36.04586884 92.62791211 38.41193079 92 42 C87.26743751 46.73256249 81.45614741 48.22540988 75.1875 50.125 C73.44533203 50.65480469 73.44533203 50.65480469 71.66796875 51.1953125 C70.34732422 51.59363281 70.34732422 51.59363281 69 52 C70.258125 52.28875 71.51625 52.5775 72.8125 52.875 C75.8539399 53.57303539 77.30669878 54.20446585 80 56 C81 58.8125 81 58.8125 81 62 C78.875 64.875 78.875 64.875 76 67 C73.1875 67.3125 73.1875 67.3125 71 67 C71 67.66 71 68.32 71 69 C67.66666667 69.66666667 64.33333333 70.33333333 61 71 C60.22914063 71.1753125 59.45828125 71.350625 58.6640625 71.53125 C55.14508353 72.15042518 51.62420444 72.36076929 48.0625 72.5625 C47.37220703 72.60568359 46.68191406 72.64886719 45.97070312 72.69335938 C41.97478629 72.93197811 38.00259051 73.04384684 34 73 C35.216875 73.391875 36.43375 73.78375 37.6875 74.1875 C41.75691641 75.74430521 44.43263893 77.35600364 47 81 C46.88355009 84.43527244 46.53745581 86.92508839 45 90 C43.68 90 42.36 90 41 90 C41 90.66 41 91.32 41 92 C33.99178806 94.29689873 27.35523049 96.34328299 20 97 C17.19156389 97.49927753 14.71092137 98.09635954 12 99 C9.66700175 99.03954234 7.33291811 99.04401732 5 99 C4.67 99.66 4.34 100.32 4 101 C0.01160031 101.04356262 -3.97619031 101.0726023 -7.96484375 101.0625 C-8.63894287 101.06121094 -9.31304199 101.05992187 -10.00756836 101.05859375 C-13.38269201 100.95933757 -16.65670818 100.47761312 -20 100 C-23.93444071 99.76977149 -27.86779479 99.56283662 -31.8046875 99.37890625 C-35 99 -35 99 -37 97 C-38.67449603 97.29146518 -40.34068861 97.63179545 -42 98 C-44.6484375 97.9140625 -44.6484375 97.9140625 -47.375 97.625 C-48.82326172 97.47224609 -48.82326172 97.47224609 -50.30078125 97.31640625 C-57.79373706 96.43807134 -65.12002359 95.03098093 -72.49609375 93.47265625 C-81.58214294 91.757505 -90.79087093 91.89441763 -100 92 C-102.77813384 92 -105.50334432 91.95162997 -108.2734375 91.81640625 C-109.09215332 91.77644531 -109.91086914 91.73648438 -110.75439453 91.6953125 C-137.30004665 90.34997667 -137.30004665 90.34997667 -140 89 C-140 71.84 -140 54.68 -140 37 C-137.36 36.67 -134.72 36.34 -132 36 C-129.89209849 35.38273257 -129.89209849 35.38273257 -128.16015625 34.5703125 C-123.37371351 32.65013586 -118.50329063 31.76134767 -113.4375 30.875 C-111.98331665 30.61517334 -111.98331665 30.61517334 -110.49975586 30.35009766 C-103.83011573 29.20338178 -97.30748987 28.5300384 -90.546875 28.20703125 C-86.60777309 27.9771057 -82.72468946 27.5648785 -78.8125 27.0625 C-77.60207031 26.90910156 -76.39164063 26.75570312 -75.14453125 26.59765625 C-72.34127269 26.06486301 -70.38043427 25.53961262 -68 24 C-67.67 23.34 -67.34 22.68 -67 22 C-65.66666667 21.33333333 -64.33333333 20.66666667 -63 20 C-62.34 20.33 -61.68 20.66 -61 21 C-60.67 20.34 -60.34 19.68 -60 19 C-57.43365606 18.35841401 -54.86176794 17.97800854 -52.25 17.5625 C-51.13625 17.2840625 -51.13625 17.2840625 -50 17 C-49.67 16.34 -49.34 15.68 -49 15 C-46.7421875 14.25390625 -46.7421875 14.25390625 -43.875 13.5625 C-40.52198515 12.70908408 -37.38472289 11.84216482 -34.25 10.375 C-30.7951674 8.91334005 -27.71795727 8.3793834 -24 8 C-24 7.34 -24 6.68 -24 6 C-16.36618419 3.86292917 -8.91216955 1.79121696 -1 1 C-0.67 0.67 -0.34 0.34 0 0 Z " fill="#FDFDFD" transform="translate(140,43)"/>
<path d="M0 0 C5.362365 0.14959387 11.10516454 0.8462724 16 3 C17.86198275 6.14209589 19.09277072 8.42289768 18.875 12.125 C17.7545767 14.52590706 16.37320367 16.73606963 15 19 C16.11117187 18.79503906 17.22234375 18.59007813 18.3671875 18.37890625 C51.53849949 12.33656218 51.53849949 12.33656218 61 18.25 C62.55125776 20.96470109 62.36851642 22.92902986 62 26 C61.0436126 27.69207001 60.04851907 29.36342262 59 31 C61.12534659 30.85930804 63.25027529 30.71229079 65.375 30.5625 C67.15003906 30.44068359 67.15003906 30.44068359 68.9609375 30.31640625 C71.91518901 30.18915064 71.91518901 30.18915064 74 29 C76.14742039 29.01143766 78.29483718 29.10667807 80.4375 29.25 C81.59121094 29.31703125 82.74492187 29.3840625 83.93359375 29.453125 C87.14919377 30.02660781 88.09845268 30.43482543 90 33 C91.92905027 36.04586884 92.62791211 38.41193079 92 42 C87.26743751 46.73256249 81.45614741 48.22540988 75.1875 50.125 C73.44533203 50.65480469 73.44533203 50.65480469 71.66796875 51.1953125 C70.34732422 51.59363281 70.34732422 51.59363281 69 52 C70.258125 52.28875 71.51625 52.5775 72.8125 52.875 C75.8539399 53.57303539 77.30669878 54.20446585 80 56 C81 58.8125 81 58.8125 81 62 C78.875 64.875 78.875 64.875 76 67 C73.1875 67.3125 73.1875 67.3125 71 67 C71 67.66 71 68.32 71 69 C67.66666667 69.66666667 64.33333333 70.33333333 61 71 C60.22914063 71.1753125 59.45828125 71.350625 58.6640625 71.53125 C55.14508353 72.15042518 51.62420444 72.36076929 48.0625 72.5625 C47.37220703 72.60568359 46.68191406 72.64886719 45.97070312 72.69335938 C41.97478629 72.93197811 38.00259051 73.04384684 34 73 C35.216875 73.391875 36.43375 73.78375 37.6875 74.1875 C41.75691641 75.74430521 44.43263893 77.35600364 47 81 C46.88355009 84.43527244 46.53745581 86.92508839 45 90 C43.68 90 42.36 90 41 90 C41 90.66 41 91.32 41 92 C33.99178806 94.29689873 27.35523049 96.34328299 20 97 C17.19156389 97.49927753 14.71092137 98.09635954 12 99 C9.66700175 99.03954234 7.33291811 99.04401732 5 99 C4.67 99.66 4.34 100.32 4 101 C0.01160031 101.04356262 -3.97619031 101.0726023 -7.96484375 101.0625 C-8.63894287 101.06121094 -9.31304199 101.05992187 -10.00756836 101.05859375 C-13.38269201 100.95933757 -16.65670818 100.47761312 -20 100 C-23.93444071 99.76977149 -27.86779479 99.56283662 -31.8046875 99.37890625 C-35 99 -35 99 -37 97 C-38.67449603 97.29146518 -40.34068861 97.63179545 -42 98 C-44.6484375 97.9140625 -44.6484375 97.9140625 -47.375 97.625 C-48.82326172 97.47224609 -48.82326172 97.47224609 -50.30078125 97.31640625 C-57.79373706 96.43807134 -65.12002359 95.03098093 -72.49609375 93.47265625 C-81.58214294 91.757505 -90.79087093 91.89441763 -100 92 C-102.77813384 92 -105.50334432 91.95162997 -108.2734375 91.81640625 C-109.09215332 91.77644531 -109.91086914 91.73648438 -110.75439453 91.6953125 C-137.30004665 90.34997667 -137.30004665 90.34997667 -140 89 C-140 87.02 -140 85.04 -140 83 C-134.25 81.875 -134.25 81.875 -132 83 C-130.6197703 83.09537441 -129.23508193 83.1307347 -127.8515625 83.1328125 C-127.01616943 83.13458496 -126.18077637 83.13635742 -125.32006836 83.13818359 C-124.4306958 83.13383301 -123.54132324 83.12948242 -122.625 83.125 C-121.72338135 83.1245166 -120.8217627 83.1240332 -119.89282227 83.12353516 C-113.94977383 83.09265111 -108.11490869 82.78528233 -102.21484375 82.0234375 C-100 82 -100 82 -97 84 C-96.67 83.34 -96.34 82.68 -96 82 C-91.45194365 81.82164485 -88.1205746 82.00214565 -84 84 C-83.67 83.34 -83.34 82.68 -83 82 C-76.78695669 82.38335799 -71.24378448 83.39747129 -65.3203125 85.30078125 C-60.59922909 86.72346463 -55.90954639 87.14877413 -51 87 C-51.33 86.01 -51.66 85.02 -52 84 C-51.34 84 -50.68 84 -50 84 C-50 83.34 -50 82.68 -50 82 C-44.49172029 79.83340998 -40.90769463 78.79160792 -35 80 C-32.3430809 79.12085312 -32.3430809 79.12085312 -30 78 C-29.01 78 -28.02 78 -27 78 C-26.0409375 77.94779297 -26.0409375 77.94779297 -25.0625 77.89453125 C-19.43884892 77.67086331 -19.43884892 77.67086331 -17 79.5 C-16.67 79.995 -16.34 80.49 -16 81 C-17.29691818 84.89075454 -18.66776769 87.52462743 -22 90 C-24.5625 89.75 -24.5625 89.75 -27 89 C-27.99 89 -28.98 89 -30 89 C-30.33 89.33 -30.66 89.66 -31 90 C-30.01 90 -29.02 90 -28 90 C-26 90.33333333 -24 90.66666667 -22 91 C-21.01 91 -20.02 91 -19 91 C-16.44621276 91.47043449 -13.9140239 92.01842345 -11.375 92.5625 C-8.91076672 93.09058121 -8.91076672 93.09058121 -6 93 C-5.01 93.66 -4.02 94.32 -3 95 C-2.34 95 -1.68 95 -1 95 C-1.33 93.68 -1.66 92.36 -2 91 C1.89031805 90.12154109 5.76787058 89.67085761 9.7265625 89.25 C13.61411056 88.82250331 17.47988981 88.3106982 21.3125 87.52734375 C25.33617 86.73781548 29.39575231 86.18647009 33.453125 85.59765625 C34.29359375 85.40042969 35.1340625 85.20320313 36 85 C36.33 84.34 36.66 83.68 37 83 C31.26969839 81.85801819 25.86575206 80.8533562 20 81 C19.01 80.67 18.02 80.34 17 80 C15.57817694 79.888179 14.15238341 79.82252095 12.7265625 79.7890625 C11.9015625 79.76070313 11.0765625 79.73234375 10.2265625 79.703125 C8.50021076 79.65128261 6.77361655 79.60694035 5.046875 79.5703125 C0.31025434 79.39324257 -3.22786212 79.2036283 -7 76 C-7.3125 73.3125 -7.3125 73.3125 -7 71 C-0.07817341 68.74288264 6.72782604 68 14 68 C15.87892699 67.7348061 17.75366216 67.43930739 19.625 67.125 C26.00586745 66.10492935 32.39331586 65.36209084 38.81884766 64.69775391 C42.59826331 64.29987678 46.27914339 63.7616971 50 63 C50.99 63 51.98 63 53 63 C54.79285311 62.86956022 56.5844919 62.7219288 58.375 62.5625 C59.31085938 62.48128906 60.24671875 62.40007812 61.2109375 62.31640625 C63.85216197 62.01677154 66.40327086 61.56183776 69 61 C66.04282251 59.83859208 66.04282251 59.83859208 62.9375 60 C60 60 60 60 58 59 C55.05089167 58.87073225 52.13729468 58.81027772 49.1875 58.8125 C48.3003833 58.81185547 47.4132666 58.81121094 46.49926758 58.81054688 C40.0136333 58.86065977 33.63470314 59.31701349 27.1875 60 C3.66333135 62.48938753 3.66333135 62.48938753 -2 59 C-1.67 57.35 -1.34 55.7 -1 54 C-0.360625 53.87625 0.27875 53.7525 0.9375 53.625 C1.618125 53.41875 2.29875 53.2125 3 53 C3.33 52.34 3.66 51.68 4 51 C6.32854865 50.63473747 8.66298962 50.30649316 11 50 C12.03125 49.62875 13.0625 49.2575 14.125 48.875 C17.28616332 47.91290682 18.84752008 48.29944891 22 49 C22.99 48.01 22.99 48.01 24 47 C26.33293334 46.95679753 28.6670134 46.95977609 31 47 C32.33852032 46.68814709 33.67202114 46.35406361 35 46 C37.84442473 45.54740567 40.70295417 45.21766288 43.5625 44.875 C44.33013672 44.77574219 45.09777344 44.67648438 45.88867188 44.57421875 C49.30612959 44.16305121 51.69397756 43.89799252 55 45 C55 44.34 55 43.68 55 43 C56.670625 43.061875 56.670625 43.061875 58.375 43.125 C62.61948279 43.13252568 66.52559883 42.41491043 70.66015625 41.50390625 C72.61112987 41.08374665 74.58616692 40.77738008 76.5625 40.5 C77.366875 40.335 78.17125 40.17 79 40 C79.33 39.34 79.66 38.68 80 38 C78.63875 38.2475 78.63875 38.2475 77.25 38.5 C74 39 74 39 70 39 C68.39398973 39.18101886 66.79102308 39.39030636 65.19140625 39.62109375 C64.27939453 39.75193359 63.36738281 39.88277344 62.42773438 40.01757812 C61.48220703 40.15615234 60.53667969 40.29472656 59.5625 40.4375 C58.15000977 40.63956055 58.15000977 40.63956055 56.70898438 40.84570312 C51.51715034 41.58131738 51.51715034 41.58131738 46.37866211 42.60961914 C44 43 44 43 41 42 C40.67 42.66 40.34 43.32 40 44 C39.01 43.979375 38.02 43.95875 37 43.9375 C32.24064074 43.9375 27.48858603 44.34125664 22.875 45.5625 C20.24678075 46.17575116 17.6957622 46 15 46 C13.865625 46.20625 12.73125 46.4125 11.5625 46.625 C7.49171565 47.05350362 4.84882651 46.30714863 1 45 C-0.33130115 44.65864073 -1.66358148 44.32074044 -3 44 C-3.33 42.02 -3.66 40.04 -4 38 C3.99170383 32.64226597 14.27462137 31.81225821 23.6953125 31.2109375 C25.89486986 31.00962208 27.86406944 30.53734102 30 30 C30.886875 30.04125 31.77375 30.0825 32.6875 30.125 C36.46902984 29.98230076 39.339158 28.98726644 42.8515625 27.65625 C45 27 45 27 49 27 C49.33 26.34 49.66 25.68 50 25 C49.24074219 25 48.48148438 25 47.69921875 25 C43.79947917 25 39.89973958 25 36 25 C29.46970229 25.9603379 22.9971103 27.34552063 16.5234375 28.62695312 C15.6159375 28.80291016 14.7084375 28.97886719 13.7734375 29.16015625 C12.95278809 29.32136963 12.13213867 29.48258301 11.28662109 29.64868164 C9 30 9 30 5 30 C4.67 30.66 4.34 31.32 4 32 C3.34 31.67 2.68 31.34 2 31 C-0.60931266 31.89363605 -0.60931266 31.89363605 -3 33 C-3.33 32.34 -3.66 31.68 -4 31 C-4.57105469 31.27714844 -5.14210937 31.55429688 -5.73046875 31.83984375 C-11.88124013 34.58764464 -17.29133903 35.52749242 -24.00390625 35.84375 C-26.45306252 35.97147653 -28.72144712 36.24032737 -31.125 36.6875 C-34 37 -34 37 -37 35 C-37.6875 32.875 -37.6875 32.875 -38 31 C-34.42082487 28.78933301 -30.77798734 26.84880231 -27 25 C-26.39929688 24.69191406 -25.79859375 24.38382813 -25.1796875 24.06640625 C-8.69230769 16 -8.69230769 16 -2 16 C-0.8509288 14.0745356 -0.8509288 14.0745356 -1 12 C-1.62044189 12.12117188 -2.24088379 12.24234375 -2.88012695 12.3671875 C-5.69036469 12.91434602 -8.50141343 13.45722007 -11.3125 14 C-12.28896484 14.19078125 -13.26542969 14.3815625 -14.27148438 14.578125 C-15.20927734 14.75859375 -16.14707031 14.9390625 -17.11328125 15.125 C-18.40939331 15.37636719 -18.40939331 15.37636719 -19.73168945 15.6328125 C-22 16 -22 16 -25 16 C-25.33 16.66 -25.66 17.32 -26 18 C-28.32156597 18.40729228 -30.6568787 18.74438677 -33 19 C-33 19.66 -33 20.32 -33 21 C-33.9590625 21.12375 -33.9590625 21.12375 -34.9375 21.25 C-40.21107273 22.5414872 -45.14096143 24.78946325 -49.6875 27.75 C-52.59507415 29.3216617 -54.74503515 29.22709057 -58 29 C-58.33 29.66 -58.66 30.32 -59 31 C-60.5901786 31.27909257 -62.18491215 31.5404265 -63.78857422 31.72705078 C-66.28529536 32.03521309 -68.74609469 32.46059314 -71.22265625 32.90234375 C-72.16592773 33.06927734 -73.10919922 33.23621094 -74.08105469 33.40820312 C-75.55687012 33.67020508 -75.55687012 33.67020508 -77.0625 33.9375 C-83.44767002 35.06417678 -89.8201663 36.15537096 -96.25 37 C-102.68836497 37.87047322 -109.00136777 39.19632717 -115.34277344 40.59179688 C-118.86674611 41.36364374 -122.33046256 42.04692568 -125.90625 42.5546875 C-128.97641069 42.86634263 -128.97641069 42.86634263 -131.5625 44.0625 C-134.4912491 45.18894196 -136.88889767 45.14470243 -140 45 C-140 42.36 -140 39.72 -140 37 C-138.17708333 36.83723958 -136.35416667 36.67447917 -134.53125 36.51171875 C-131.76624905 36.02785237 -131.76624905 36.02785237 -128.37890625 34.58984375 C-123.50782286 32.70497582 -118.56958662 31.7729473 -113.4375 30.875 C-111.98331665 30.61517334 -111.98331665 30.61517334 -110.49975586 30.35009766 C-103.83011573 29.20338178 -97.30748987 28.5300384 -90.546875 28.20703125 C-86.60777309 27.9771057 -82.72468946 27.5648785 -78.8125 27.0625 C-77.60207031 26.90910156 -76.39164063 26.75570312 -75.14453125 26.59765625 C-72.34127269 26.06486301 -70.38043427 25.53961262 -68 24 C-67.67 23.34 -67.34 22.68 -67 22 C-65.66666667 21.33333333 -64.33333333 20.66666667 -63 20 C-62.34 20.33 -61.68 20.66 -61 21 C-60.67 20.34 -60.34 19.68 -60 19 C-57.43365606 18.35841401 -54.86176794 17.97800854 -52.25 17.5625 C-51.13625 17.2840625 -51.13625 17.2840625 -50 17 C-49.67 16.34 -49.34 15.68 -49 15 C-46.7421875 14.25390625 -46.7421875 14.25390625 -43.875 13.5625 C-40.52198515 12.70908408 -37.38472289 11.84216482 -34.25 10.375 C-30.7951674 8.91334005 -27.71795727 8.3793834 -24 8 C-24 7.34 -24 6.68 -24 6 C-16.36618419 3.86292917 -8.91216955 1.79121696 -1 1 C-0.67 0.67 -0.34 0.34 0 0 Z " fill="#070707" transform="translate(140,43)"/>
<path d="M0 0 C5.362365 0.14959387 11.10516454 0.8462724 16 3 C17.86198275 6.14209589 19.09277072 8.42289768 18.875 12.125 C17.7545767 14.52590706 16.37320367 16.73606963 15 19 C16.11117187 18.79503906 17.22234375 18.59007813 18.3671875 18.37890625 C51.53849949 12.33656218 51.53849949 12.33656218 61 18.25 C62.55125776 20.96470109 62.36851642 22.92902986 62 26 C60.625 28.875 60.625 28.875 59 31 C58.34 31 57.68 31 57 31 C57.99 31.99 57.99 31.99 59 33 C58.01 33.33 57.02 33.66 56 34 C56.99 35.98 56.99 35.98 58 38 C58.66 37.67 59.32 37.34 60 37 C60.66 36.67 61.32 36.34 62 36 C62 35.01 62 34.02 62 33 C62.66 33 63.32 33 64 33 C64 33.66 64 34.32 64 35 C66.47266765 34.65555119 66.47266765 34.65555119 69 34 C69.33 33.34 69.66 32.68 70 32 C73 35.75 73 35.75 73 38 C68.85753517 38.73622005 64.71459543 39.46939483 60.5703125 40.1953125 C57.81261844 40.67845407 55.05828326 41.17321217 52.3046875 41.6796875 C51.25539062 41.86789063 50.20609375 42.05609375 49.125 42.25 C48.19945312 42.42015625 47.27390625 42.5903125 46.3203125 42.765625 C44 43 44 43 41 42 C40.67 42.66 40.34 43.32 40 44 C39.01 43.979375 38.02 43.95875 37 43.9375 C32.24064074 43.9375 27.48858603 44.34125664 22.875 45.5625 C20.24678075 46.17575116 17.6957622 46 15 46 C13.865625 46.20625 12.73125 46.4125 11.5625 46.625 C7.49171565 47.05350362 4.84882651 46.30714863 1 45 C-0.33130115 44.65864073 -1.66358148 44.32074044 -3 44 C-3.33 42.02 -3.66 40.04 -4 38 C3.99170383 32.64226597 14.27462137 31.81225821 23.6953125 31.2109375 C25.89486986 31.00962208 27.86406944 30.53734102 30 30 C30.886875 30.04125 31.77375 30.0825 32.6875 30.125 C36.46902984 29.98230076 39.339158 28.98726644 42.8515625 27.65625 C45 27 45 27 49 27 C49.33 26.34 49.66 25.68 50 25 C49.24074219 25 48.48148438 25 47.69921875 25 C43.79947917 25 39.89973958 25 36 25 C29.46970229 25.9603379 22.9971103 27.34552063 16.5234375 28.62695312 C15.6159375 28.80291016 14.7084375 28.97886719 13.7734375 29.16015625 C12.95278809 29.32136963 12.13213867 29.48258301 11.28662109 29.64868164 C9 30 9 30 5 30 C4.67 30.66 4.34 31.32 4 32 C3.34 31.67 2.68 31.34 2 31 C-0.60931266 31.89363605 -0.60931266 31.89363605 -3 33 C-3.33 32.34 -3.66 31.68 -4 31 C-4.57105469 31.27714844 -5.14210937 31.55429688 -5.73046875 31.83984375 C-11.88124013 34.58764464 -17.29133903 35.52749242 -24.00390625 35.84375 C-26.45306252 35.97147653 -28.72144712 36.24032737 -31.125 36.6875 C-34 37 -34 37 -37 35 C-37.6875 32.875 -37.6875 32.875 -38 31 C-34.42082487 28.78933301 -30.77798734 26.84880231 -27 25 C-26.39929688 24.69191406 -25.79859375 24.38382813 -25.1796875 24.06640625 C-8.69230769 16 -8.69230769 16 -2 16 C-0.8509288 14.0745356 -0.8509288 14.0745356 -1 12 C-1.62044189 12.12117188 -2.24088379 12.24234375 -2.88012695 12.3671875 C-5.69036469 12.91434602 -8.50141343 13.45722007 -11.3125 14 C-12.28896484 14.19078125 -13.26542969 14.3815625 -14.27148438 14.578125 C-15.20927734 14.75859375 -16.14707031 14.9390625 -17.11328125 15.125 C-18.40939331 15.37636719 -18.40939331 15.37636719 -19.73168945 15.6328125 C-22 16 -22 16 -25 16 C-25.33 16.66 -25.66 17.32 -26 18 C-28.32156597 18.40729228 -30.6568787 18.74438677 -33 19 C-33 19.66 -33 20.32 -33 21 C-33.9590625 21.12375 -33.9590625 21.12375 -34.9375 21.25 C-40.21107273 22.5414872 -45.14096143 24.78946325 -49.6875 27.75 C-52.59507415 29.3216617 -54.74503515 29.22709057 -58 29 C-58.33 29.66 -58.66 30.32 -59 31 C-60.5901786 31.27909257 -62.18491215 31.5404265 -63.78857422 31.72705078 C-66.28529536 32.03521309 -68.74609469 32.46059314 -71.22265625 32.90234375 C-72.16592773 33.06927734 -73.10919922 33.23621094 -74.08105469 33.40820312 C-75.55687012 33.67020508 -75.55687012 33.67020508 -77.0625 33.9375 C-83.44767002 35.06417678 -89.8201663 36.15537096 -96.25 37 C-102.68836497 37.87047322 -109.00136777 39.19632717 -115.34277344 40.59179688 C-118.86674611 41.36364374 -122.33046256 42.04692568 -125.90625 42.5546875 C-128.97641069 42.86634263 -128.97641069 42.86634263 -131.5625 44.0625 C-134.4912491 45.18894196 -136.88889767 45.14470243 -140 45 C-140 42.36 -140 39.72 -140 37 C-138.17708333 36.83723958 -136.35416667 36.67447917 -134.53125 36.51171875 C-131.76624905 36.02785237 -131.76624905 36.02785237 -128.37890625 34.58984375 C-123.50782286 32.70497582 -118.56958662 31.7729473 -113.4375 30.875 C-111.98331665 30.61517334 -111.98331665 30.61517334 -110.49975586 30.35009766 C-103.83011573 29.20338178 -97.30748987 28.5300384 -90.546875 28.20703125 C-86.60777309 27.9771057 -82.72468946 27.5648785 -78.8125 27.0625 C-77.60207031 26.90910156 -76.39164063 26.75570312 -75.14453125 26.59765625 C-72.34127269 26.06486301 -70.38043427 25.53961262 -68 24 C-67.67 23.34 -67.34 22.68 -67 22 C-65.66666667 21.33333333 -64.33333333 20.66666667 -63 20 C-62.34 20.33 -61.68 20.66 -61 21 C-60.67 20.34 -60.34 19.68 -60 19 C-57.43365606 18.35841401 -54.86176794 17.97800854 -52.25 17.5625 C-51.13625 17.2840625 -51.13625 17.2840625 -50 17 C-49.67 16.34 -49.34 15.68 -49 15 C-46.7421875 14.25390625 -46.7421875 14.25390625 -43.875 13.5625 C-40.52198515 12.70908408 -37.38472289 11.84216482 -34.25 10.375 C-30.7951674 8.91334005 -27.71795727 8.3793834 -24 8 C-24 7.34 -24 6.68 -24 6 C-16.36618419 3.86292917 -8.91216955 1.79121696 -1 1 C-0.67 0.67 -0.34 0.34 0 0 Z " fill="#070707" transform="translate(140,43)"/>
<path d="M0 0 C0.67160156 -0.03480469 1.34320313 -0.06960937 2.03515625 -0.10546875 C7.56124314 -0.32906764 7.56124314 -0.32906764 10 1.5 C10.495 2.2425 10.495 2.2425 11 3 C9.70308182 6.89075454 8.33223231 9.52462743 5 12 C2.4375 11.75 2.4375 11.75 0 11 C-0.99 11 -1.98 11 -3 11 C-3.33 11.33 -3.66 11.66 -4 12 C-3.01 12 -2.02 12 -1 12 C1 12.33333333 3 12.66666667 5 13 C5.99 13 6.98 13 8 13 C9.69310437 13.23324777 11.38077471 13.50785757 13.0625 13.8125 C13.94035156 13.96332031 14.81820312 14.11414063 15.72265625 14.26953125 C18 15 18 15 20 18 C19.34 18.66 18.68 19.32 18 20 C18.33 20.99 18.66 21.98 19 23 C14.54060902 22.72323476 10.08281 22.42608193 5.625 22.125 C4.35398437 22.04636719 3.08296875 21.96773437 1.7734375 21.88671875 C0.56171875 21.80292969 -0.65 21.71914062 -1.8984375 21.6328125 C-3.57945557 21.52283936 -3.57945557 21.52283936 -5.29443359 21.41064453 C-8 21 -8 21 -10 19 C-11.67449603 19.29146518 -13.34068861 19.63179545 -15 20 C-17.6484375 19.9140625 -17.6484375 19.9140625 -20.375 19.625 C-21.34050781 19.52316406 -22.30601563 19.42132813 -23.30078125 19.31640625 C-30.79373706 18.43807134 -38.12002359 17.03098093 -45.49609375 15.47265625 C-54.58214294 13.757505 -63.79087093 13.89441763 -73 14 C-75.77813384 14 -78.50334432 13.95162997 -81.2734375 13.81640625 C-82.50151123 13.75646484 -82.50151123 13.75646484 -83.75439453 13.6953125 C-110.30004665 12.34997667 -110.30004665 12.34997667 -113 11 C-113 9.02 -113 7.04 -113 5 C-107.25 3.875 -107.25 3.875 -105 5 C-103.6197703 5.09537441 -102.23508193 5.1307347 -100.8515625 5.1328125 C-100.01616943 5.13458496 -99.18077637 5.13635742 -98.32006836 5.13818359 C-97.4306958 5.13383301 -96.54132324 5.12948242 -95.625 5.125 C-94.72338135 5.1245166 -93.8217627 5.1240332 -92.89282227 5.12353516 C-86.94977383 5.09265111 -81.11490869 4.78528233 -75.21484375 4.0234375 C-73 4 -73 4 -70 6 C-69.67 5.34 -69.34 4.68 -69 4 C-64.45194365 3.82164485 -61.1205746 4.00214565 -57 6 C-56.67 5.34 -56.34 4.68 -56 4 C-49.78695669 4.38335799 -44.24378448 5.39747129 -38.3203125 7.30078125 C-33.59922909 8.72346463 -28.90954639 9.14877413 -24 9 C-24.495 7.515 -24.495 7.515 -25 6 C-24.34 6 -23.68 6 -23 6 C-23 5.34 -23 4.68 -23 4 C-17.50429204 1.83835487 -13.89879022 0.76536949 -8 2 C-3.46666667 0 -3.46666667 0 0 0 Z " fill="#090908" transform="translate(113,121)"/>
<path d="M0 0 C0.99 0 1.98 0 3 0 C3.12375 1.670625 3.12375 1.670625 3.25 3.375 C3.56099996 7.00796977 3.56099996 7.00796977 5.79125977 8.20507812 C8.02673502 9.00962189 9.72447108 9.27988797 12.08984375 9.34375 C12.86811523 9.37202881 13.64638672 9.40030762 14.44824219 9.42944336 C15.26969727 9.45272705 16.09115234 9.47601074 16.9375 9.5 C27.17456267 9.9143573 37.20729727 10.81167818 47 14 C46.67 14.99 46.34 15.98 46 17 C43.8973294 17.36294314 41.79278943 17.71506972 39.6875 18.0625 C38.51574219 18.25972656 37.34398437 18.45695312 36.13671875 18.66015625 C33 19 33 19 30 18 C29.67 18.66 29.34 19.32 29 20 C26.8203125 20.44921875 26.8203125 20.44921875 24.125 20.6875 C23.24070313 20.77386719 22.35640625 20.86023438 21.4453125 20.94921875 C19 21 19 21 16 20 C15.67 20.66 15.34 21.32 15 22 C13.02 22 11.04 22 9 22 C9 23.32 9 24.64 9 26 C8.01 26.33 7.02 26.66 6 27 C5.34 26.34 4.68 25.68 4 25 C3.01 25 2.02 25 1 25 C-1.55378724 24.52956551 -4.0859761 23.98157655 -6.625 23.4375 C-9.08923328 22.90941879 -9.08923328 22.90941879 -12 23 C-14 22.66666667 -16 22.33333333 -18 22 C-18.99 22 -19.98 22 -21 22 C-23.1875 21 -23.1875 21 -25 20 C-20.90988897 19.27286915 -17.14906902 19 -13 19 C-10.86747263 18.39238047 -10.86747263 18.39238047 -9 17 C-7.71745356 14.46229997 -7.71745356 14.46229997 -7 12 C-9.475 10.515 -9.475 10.515 -12 9 C-12.33 9.66 -12.66 10.32 -13 11 C-14.32 10.34 -15.64 9.68 -17 9 C-17.33 9.66 -17.66 10.32 -18 11 C-18.66 10.67 -19.32 10.34 -20 10 C-19.67 9.34 -19.34 8.68 -19 8 C-16.8203125 7.65625 -16.8203125 7.65625 -14.125 7.5 C-10.41961747 7.28394271 -9.19107794 7.12738529 -6 5 C-4.33333333 5 -2.66666667 5 -1 5 C-0.67 3.35 -0.34 1.7 0 0 Z " fill="#FAF9FA" transform="translate(130,112)"/>
<path d="M0 0 C-0.6875 1.875 -0.6875 1.875 -2 4 C-3.64080346 4.72800153 -5.31273542 5.38733332 -7 6 C-8.15048828 6.46019531 -8.15048828 6.46019531 -9.32421875 6.9296875 C-10.10410156 7.24164063 -10.88398438 7.55359375 -11.6875 7.875 C-12.98300781 8.39513672 -12.98300781 8.39513672 -14.3046875 8.92578125 C-16.09800251 9.64050825 -17.89490886 10.34629082 -19.6953125 11.04296875 C-24.05370053 12.74078856 -28.04520418 14.47332489 -32 17 C-33.0725 17.45375 -34.145 17.9075 -35.25 18.375 C-38.2407323 19.73342409 -38.2407323 19.73342409 -38.875 22.6875 C-38.91625 23.450625 -38.9575 24.21375 -39 25 C-39.99 24.34 -40.98 23.68 -42 23 C-42.99 22.67 -43.98 22.34 -45 22 C-44.67 21.01 -44.34 20.02 -44 19 C-46.31 18.67 -48.62 18.34 -51 18 C-50 15 -50 15 -48.109375 13.90234375 C-47.33078125 13.58394531 -46.5521875 13.26554687 -45.75 12.9375 C-44.93917969 12.60234375 -44.12835938 12.2671875 -43.29296875 11.921875 C-42.53628906 11.61765625 -41.77960938 11.3134375 -41 11 C-40.030625 10.566875 -39.06125 10.13375 -38.0625 9.6875 C-37.381875 9.460625 -36.70125 9.23375 -36 9 C-35.34 9.33 -34.68 9.66 -34 10 C-34 9.34 -34 8.68 -34 8 C-23.11054273 4.09215221 -11.6922572 0 0 0 Z " fill="#F3F3F3" transform="translate(141,54)"/>
<path d="M0 0 C0.67160156 -0.03480469 1.34320313 -0.06960937 2.03515625 -0.10546875 C7.56124314 -0.32906764 7.56124314 -0.32906764 10 1.5 C10.495 2.2425 10.495 2.2425 11 3 C9.70308182 6.89075454 8.33223231 9.52462743 5 12 C2.4375 11.75 2.4375 11.75 0 11 C-2.95283361 11 -5.36896933 11.45490834 -8.25 12.0625 C-12.93461211 12.95480707 -16.35697681 12.87056685 -21 12 C-21.99 12.33 -22.98 12.66 -24 13 C-24.33 10.69 -24.66 8.38 -25 6 C-24.34 6 -23.68 6 -23 6 C-23 5.34 -23 4.68 -23 4 C-17.50429204 1.83835487 -13.89879022 0.76536949 -8 2 C-3.46666667 0 -3.46666667 0 0 0 Z " fill="#DF0807" transform="translate(113,121)"/>
<path d="M0 0 C0 0.66 0 1.32 0 2 C-0.33 2.33 -0.66 2.66 -1 3 C0.32 3 1.64 3 3 3 C3.99 5.64 4.98 8.28 6 11 C4 13 4 13 1.3125 13.0625 C0.219375 13.041875 -0.87375 13.02125 -2 13 C-3.134375 13.20625 -4.26875 13.4125 -5.4375 13.625 C-9.50828435 14.05350362 -12.15117349 13.30714863 -16 12 C-17.33130115 11.65864073 -18.66358148 11.32074044 -20 11 C-20.33 9.02 -20.66 7.04 -21 5 C-17.21304967 2.47536645 -13.80620193 1.24829377 -9.375 0.25 C-7.68503906 -0.14445312 -7.68503906 -0.14445312 -5.9609375 -0.546875 C-3 -1 -3 -1 0 0 Z " fill="#020202" transform="translate(157,76)"/>
<path d="M0 0 C-0.33 0.99 -0.66 1.98 -1 3 C-1.94101563 3.13277344 -2.88203125 3.26554687 -3.8515625 3.40234375 C-5.09679687 3.57894531 -6.34203125 3.75554687 -7.625 3.9375 C-8.85476562 4.11152344 -10.08453125 4.28554687 -11.3515625 4.46484375 C-13.67730442 4.80598577 -15.998747 5.17902069 -18.3125 5.59375 C-20.94947928 5.99236315 -22.50712432 5.86291851 -25 5 C-25 5.66 -25 6.32 -25 7 C-25.98742187 7.06058594 -26.97484375 7.12117188 -27.9921875 7.18359375 C-29.27351563 7.26738281 -30.55484375 7.35117188 -31.875 7.4375 C-33.15117187 7.51871094 -34.42734375 7.59992188 -35.7421875 7.68359375 C-38.88300152 7.79206027 -38.88300152 7.79206027 -41 9 C-43.3400417 8.71758117 -45.67504723 8.38749213 -48 8 C-48.33 8.66 -48.66 9.32 -49 10 C-50.11375 9.95875 -51.2275 9.9175 -52.375 9.875 C-56.04366025 9.58878141 -56.04366025 9.58878141 -58 12 C-58.721875 11.835 -59.44375 11.67 -60.1875 11.5 C-63.91573034 10.8372035 -66.41484577 11.86784603 -70 13 C-73.125 13.875 -73.125 13.875 -76 14 C-78.875 12.0625 -78.875 12.0625 -81 10 C-77.60459753 7.73639835 -76.51717937 7.80335212 -72.5625 7.9375 C-69.10442252 8.04571195 -66.33446099 7.84224481 -63 7 C-60.65885633 7.27313343 -58.32249342 7.59802999 -56 8 C-55.67 7.34 -55.34 6.68 -55 6 C-52.55589173 5.71087988 -50.20283897 5.53219529 -47.75 5.4375 C-43.40843949 5.24091682 -39.25984067 4.88979961 -35 4 C-33.21978193 3.681674 -31.43846106 3.36947158 -29.65625 3.0625 C-28.65722656 2.88976562 -27.65820312 2.71703125 -26.62890625 2.5390625 C-24.54296875 2.1796875 -22.45703125 1.8203125 -20.37109375 1.4609375 C-19.37207031 1.28820312 -18.37304688 1.11546875 -17.34375 0.9375 C-15.98540039 0.70353516 -15.98540039 0.70353516 -14.59960938 0.46484375 C-12.86035916 0.15384334 -11.12776898 -0.19689188 -9.40429688 -0.5859375 C-6.12695369 -1.15035404 -3.25177199 -0.57384212 0 0 Z " fill="#F4F4F4" transform="translate(220,81)"/>
<path d="M0 0 C0.85271484 0.10828125 0.85271484 0.10828125 1.72265625 0.21875 C6.52364968 0.79583101 11.16565627 1.10285838 16 1 C13.5373786 3.95845121 11.31723764 4.70446952 7.625 5.625 C6.68914062 5.86476563 5.75328125 6.10453125 4.7890625 6.3515625 C0.03375604 7.45713795 -4.11369071 8 -9 8 C-10.66776344 8.32780178 -12.33425486 8.6620917 -14 9 C-16.24906529 9.29878887 -18.49915933 9.58989351 -20.75 9.875 C-25.83424013 10.57921794 -30.44563156 11.56599919 -35.23046875 13.4140625 C-38.35808112 14.44969574 -40.92272062 13.84890466 -44 13 C-44 11.35 -44 9.7 -44 8 C-42.35 7.67 -40.7 7.34 -39 7 C-38.67 7.66 -38.34 8.32 -38 9 C-36.824375 8.505 -36.824375 8.505 -35.625 8 C-33 7 -33 7 -31 7 C-29.17838449 6.6554691 -27.36130409 6.28681757 -25.546875 5.90625 C-24.45246094 5.68066406 -23.35804688 5.45507812 -22.23046875 5.22265625 C-19.92513338 4.74399515 -17.62043313 4.26226408 -15.31640625 3.77734375 C-14.21683594 3.55175781 -13.11726563 3.32617188 -11.984375 3.09375 C-10.98116211 2.88427734 -9.97794922 2.67480469 -8.94433594 2.45898438 C-5.91510495 1.98676595 -3.06067367 1.9203246 0 2 C0 1.34 0 0.68 0 0 Z " fill="#F3F3F3" transform="translate(176,66)"/>
<path d="M0 0 C1.26070312 0.00257812 2.52140625 0.00515625 3.8203125 0.0078125 C5.70363281 0.00394531 5.70363281 0.00394531 7.625 0 C10.9453125 0.1328125 10.9453125 0.1328125 13.9453125 1.1328125 C15.89828805 1.36065965 17.85129885 1.58822204 19.8046875 1.8125 C22.9623904 2.28500299 25.90024614 3.18122926 28.9453125 4.1328125 C28.6153125 5.1228125 28.2853125 6.1128125 27.9453125 7.1328125 C25.8426419 7.49575564 23.73810193 7.84788222 21.6328125 8.1953125 C19.87517578 8.49115234 19.87517578 8.49115234 18.08203125 8.79296875 C14.9453125 9.1328125 14.9453125 9.1328125 11.9453125 8.1328125 C11.6153125 8.7928125 11.2853125 9.4528125 10.9453125 10.1328125 C8.765625 10.58203125 8.765625 10.58203125 6.0703125 10.8203125 C5.18601563 10.90667969 4.30171875 10.99304688 3.390625 11.08203125 C0.9453125 11.1328125 0.9453125 11.1328125 -2.0546875 10.1328125 C-2.3846875 10.7928125 -2.7146875 11.4528125 -3.0546875 12.1328125 C-4.7046875 11.8028125 -6.3546875 11.4728125 -8.0546875 11.1328125 C-8.0546875 10.1428125 -8.0546875 9.1528125 -8.0546875 8.1328125 C-8.7146875 7.8028125 -9.3746875 7.4728125 -10.0546875 7.1328125 C-9.3946875 7.1328125 -8.7346875 7.1328125 -8.0546875 7.1328125 C-7.7246875 6.4728125 -7.3946875 5.8128125 -7.0546875 5.1328125 C-7.0546875 5.7928125 -7.0546875 6.4528125 -7.0546875 7.1328125 C-5.7346875 6.8028125 -4.4146875 6.4728125 -3.0546875 6.1328125 C-3.333125 4.92625 -3.333125 4.92625 -3.6171875 3.6953125 C-3.7615625 2.8496875 -3.9059375 2.0040625 -4.0546875 1.1328125 C-3.0546875 0.1328125 -3.0546875 0.1328125 0 0 Z " fill="#F8F8F8" transform="translate(148.0546875,121.8671875)"/>
<path d="M0 0 C2.87218301 2.59422981 4.3085579 4.19706844 5 8 C5.350625 8.78375 5.70125 9.5675 6.0625 10.375 C7.16065608 13.44983702 7.28211992 15.75562097 7 19 C6.34 19.99 5.68 20.98 5 22 C0.96798713 22.39019479 -1.73410096 22.55180215 -5.4375 20.9375 C-7.80468884 18.00218584 -7.93676407 15.73091969 -8 12 C-6.75 8.875 -6.75 8.875 -5 6 C-4.484375 5.071875 -3.96875 4.14375 -3.4375 3.1875 C-2 1 -2 1 0 0 Z " fill="#E10D0B" transform="translate(119,176)"/>
<path d="M0 0 C3 1 3 1 4.16796875 3.00390625 C6.39353768 8.58914628 7.8300264 12.98230861 7 19 C5.03544996 21.9104445 3.91469953 22.79419261 0.5 23.5625 C-2 23 -2 23 -4.375 21.1875 C-6.82281784 16.38601116 -6.10111247 12.17212687 -5 7 C-3.5625 3.8125 -3.5625 3.8125 -2 2 C-1.34 2 -0.68 2 0 2 C0 1.34 0 0.68 0 0 Z " fill="#B21B1D" transform="translate(102,143)"/>
<path d="M0 0 C5.53814367 0.15449757 10.74631862 1.32329318 16 3 C16 4.32 16 5.64 16 7 C13.525 6.505 13.525 6.505 11 6 C12.9254644 8.2236068 12.9254644 8.2236068 16 9 C15.34 9.66 14.68 10.32 14 11 C13.3574765 13.06874034 13.3574765 13.06874034 13 15 C12.01 14.34 11.02 13.68 10 13 C8.0103005 12.60986284 6.00980131 12.26797351 4 12 C4 12.66 4 13.32 4 14 C4.99 14.33 5.98 14.66 7 15 C6.34 15.66 5.68 16.32 5 17 C5 16.34 5 15.68 5 15 C4.34 15 3.68 15 3 15 C2.67 13.68 2.34 12.36 2 11 C1.01 11.33 0.02 11.66 -1 12 C-3.35188447 11.40206327 -5.68925595 10.74118205 -8 10 C-7.67 9.01 -7.34 8.02 -7 7 C-7 7.66 -7 8.32 -7 9 C-6.01 9 -5.02 9 -4 9 C-3.67 8.34 -3.34 7.68 -3 7 C-2.01 6.34 -1.02 5.68 0 5 C-3.81489674 3.53273202 -6.29011622 4.56663581 -10 6 C-9.67 4.68 -9.34 3.36 -9 2 C-6.94921875 1.77213542 -4.8984375 1.54427083 -2.84765625 1.31640625 C-0.98859771 1.18113386 -0.98859771 1.18113386 0 0 Z M7 6 C7 6.66 7 7.32 7 8 C6.01 8.33 5.02 8.66 4 9 C6.475 9.495 6.475 9.495 9 10 C9.33 9.01 9.66 8.02 10 7 C9.01 6.67 8.02 6.34 7 6 Z " fill="#090909" transform="translate(140,43)"/>
<path d="M0 0 C2.62587906 2.62587906 2.85778351 4.77281623 3.6875 8.375 C3.95949219 9.51710937 4.23148438 10.65921875 4.51171875 11.8359375 C4.96728786 14.78802531 4.8840039 16.23433065 4 19 C4.185625 19.66 4.37125 20.32 4.5625 21 C5.13872199 23.63415768 4.26378299 24.69347591 3 27 C1.41753293 27.08153933 -0.16616273 27.13943557 -1.75 27.1875 C-3.07257813 27.23970703 -3.07257813 27.23970703 -4.421875 27.29296875 C-7.44671583 26.94923684 -8.75583602 25.99772541 -11 24 C-10.505 22.515 -10.505 22.515 -10 21 C-9.4740625 21.7734375 -9.4740625 21.7734375 -8.9375 22.5625 C-6.90531273 24.40146383 -6.90531273 24.40146383 -3.3125 23.6875 C-2.219375 23.460625 -1.12625 23.23375 0 23 C1.49929066 15.95333391 0.69368025 9.30259939 -3 3 C-3.66 2.67 -4.32 2.34 -5 2 C-5 2.66 -5 3.32 -5 4 C-5.99 4.66 -6.98 5.32 -8 6 C-8.33 6.99 -8.66 7.98 -9 9 C-9.66 9 -10.32 9 -11 9 C-10.33333333 5.66666667 -9.66666667 2.33333333 -9 -1 C-5.2232373 -2.04910075 -3.31615055 -2.17265036 0 0 Z " fill="#F8E6DE" transform="translate(107,141)"/>
<path d="M0 0 C0.66 0.66 1.32 1.32 2 2 C1.01 2.33 0.02 2.66 -1 3 C-1.33 3.99 -1.66 4.98 -2 6 C-3.4375 8.1875 -3.4375 8.1875 -6 10 C-9.36214822 10.3961767 -12.63565777 10.3738158 -16 10 C-16.33 9.67 -16.66 9.34 -17 9 C-17.66 9 -18.32 9 -19 9 C-19.33 9.66 -19.66 10.32 -20 11 C-21.125 5.25 -21.125 5.25 -20 3 C-17.37798129 2.54670185 -14.82928249 2.20329614 -12.1875 1.9375 C-6.84635068 1.43063012 -6.84635068 1.43063012 -1.61328125 0.31640625 C-1.08089844 0.21199219 -0.54851562 0.10757813 0 0 Z " fill="#0F0F0F" transform="translate(189,106)"/>
<path d="M0 0 C1.08203125 2.27734375 1.08203125 2.27734375 1.8125 4.9375 C2.06644531 5.81277344 2.32039063 6.68804687 2.58203125 7.58984375 C3 10 3 10 2 13 C-3.61657102 14.9991185 -6.3744916 15.2240382 -12 13 C-12.99 13.33 -13.98 13.66 -15 14 C-17.6875 13.0625 -17.6875 13.0625 -20 12 C-16.78372163 9.85581442 -14.80909895 9.32417863 -11 9 C-10.34 9.66 -9.68 10.32 -9 11 C-5.83282717 9.41641358 -4.26731682 8.54736301 -2.6875 5.3125 C-2.460625 4.549375 -2.23375 3.78625 -2 3 C-4.475 1.515 -4.475 1.515 -7 0 C-7.33 0.66 -7.66 1.32 -8 2 C-9.32 1.34 -10.64 0.68 -12 0 C-12.33 0.66 -12.66 1.32 -13 2 C-13.66 1.67 -14.32 1.34 -15 1 C-14.67 0.34 -14.34 -0.32 -14 -1 C-9.03304403 -2.37970999 -4.43089801 -2.9303947 0 0 Z " fill="#F0F2EE" transform="translate(125,121)"/>
<path d="M0 0 C0.97839844 0.30744141 0.97839844 0.30744141 1.9765625 0.62109375 C6.63474466 2.05702306 11.15149758 3.36203916 16 4 C16 5.66666667 16 7.33333333 16 9 C15.21625 8.95875 14.4325 8.9175 13.625 8.875 C10.83883881 8.71271266 10.83883881 8.71271266 9 11 C8 8 8 8 8 7 C7.01 7.495 7.01 7.495 6 8 C6.33 8.99 6.66 9.98 7 11 C5.54077307 10.88590407 4.08259402 10.75834456 2.625 10.625 C1.81289062 10.55539063 1.00078125 10.48578125 0.1640625 10.4140625 C-2 10 -2 10 -4 8 C-3.75 5.9375 -3.75 5.9375 -3 4 C-2.34 3.67 -1.68 3.34 -1 3 C-0.67 2.01 -0.34 1.02 0 0 Z " fill="#0D0B0D" transform="translate(67,126)"/>
<path d="M0 0 C0.66386719 0.08378906 1.32773437 0.16757813 2.01171875 0.25390625 C6.68168998 0.79248687 10.3848869 0.92302262 15 0 C17.8125 0.9375 17.8125 0.9375 20 2 C19.67 2.99 19.34 3.98 19 5 C15.53651471 6.36870262 11.6169801 6.4249986 7.9375 6.75 C6.70902344 6.86859375 5.48054688 6.9871875 4.21484375 7.109375 C1 7 1 7 -0.93359375 5.515625 C-1.28550781 5.01546875 -1.63742188 4.5153125 -2 4 C-1.34 2.68 -0.68 1.36 0 0 Z " fill="#F3F3F3" transform="translate(22,120)"/>
<path d="M0 0 C0.33 0.99 0.66 1.98 1 3 C0.505 3.474375 0.01 3.94875 -0.5 4.4375 C-2.11542197 5.75923698 -2.11542197 5.75923698 -2 7 C-0.68678142 8.6825613 0.64613064 10.34997172 2 12 C1.01 12.33 0.02 12.66 -1 13 C-0.34 13.33 0.32 13.66 1 14 C0.625 16.9375 0.625 16.9375 0 20 C-0.66 20.33 -1.32 20.66 -2 21 C-2.66 20.34 -3.32 19.68 -4 19 C-3.34 19 -2.68 19 -2 19 C-2 18.01 -2 17.02 -2 16 C-2.99 15.67 -3.98 15.34 -5 15 C-4.67 13.35 -4.34 11.7 -4 10 C-4.66 9.54625 -5.32 9.0925 -6 8.625 C-6.66 8.08875 -7.32 7.5525 -8 7 C-8 6.34 -8 5.68 -8 5 C-12.10223585 3.98459888 -12.10223585 3.98459888 -16 5 C-16 4.01 -16 3.02 -16 2 C-14.64455078 1.90912109 -14.64455078 1.90912109 -13.26171875 1.81640625 C-11.49248047 1.69072266 -11.49248047 1.69072266 -9.6875 1.5625 C-7.92986328 1.44068359 -7.92986328 1.44068359 -6.13671875 1.31640625 C-2.97409042 1.1132629 -2.97409042 1.1132629 0 0 Z " fill="#FAFAFA" transform="translate(190,114)"/>
<path d="M0 0 C0.99 0.66 1.98 1.32 3 2 C5.15274948 1.69159401 5.15274948 1.69159401 7 1 C6.98839844 1.91523437 6.97679687 2.83046875 6.96484375 3.7734375 C6.95582031 4.96195313 6.94679687 6.15046875 6.9375 7.375 C6.92589844 8.55835937 6.91429687 9.74171875 6.90234375 10.9609375 C6.78533407 13.91921521 6.78533407 13.91921521 8 16 C1.565 16.495 1.565 16.495 -5 17 C-3.66666667 15.66666667 -2.33333333 14.33333333 -1 13 C0.06433568 8.29918409 0.22532845 5.31975522 -2 1 C-1.34 0.67 -0.68 0.34 0 0 Z " fill="#EFEFEF" transform="translate(201,58)"/>
<path d="M0 0 C4.70588235 0.70588235 4.70588235 0.70588235 6 2 C6.26582874 7.2279653 5.97153141 11.07117148 4 16 C3.01 16 2.02 16 1 16 C1 15.34 1 14.68 1 14 C0.34 14 -0.32 14 -1 14 C-1.02685938 11.85423363 -1.04633088 9.70837355 -1.0625 7.5625 C-1.07410156 6.36753906 -1.08570312 5.17257813 -1.09765625 3.94140625 C-1 1 -1 1 0 0 Z " fill="#F10609" transform="translate(100,147)"/>
<path d="M0 0 C3.67230705 3.07999946 4.56802365 5.2482602 5 10 C3.68 9.67 2.36 9.34 1 9 C1.33 8.01 1.66 7.02 2 6 C0.68 5.67 -0.64 5.34 -2 5 C-1.67 5.99 -1.34 6.98 -1 8 C-1.4375 10.1875 -1.4375 10.1875 -2 12 C-3.32 12 -4.64 12 -6 12 C-5.7215625 12.928125 -5.7215625 12.928125 -5.4375 13.875 C-5 16 -5 16 -6 18 C-4.68 18 -3.36 18 -2 18 C-1.67 19.32 -1.34 20.64 -1 22 C-3.75220373 21.13088303 -5.5656698 20.5527839 -7.375 18.25 C-8.85480623 12.92269756 -6.44811365 8.43790017 -4.1328125 3.734375 C-3 2 -3 2 0 0 Z " fill="#BF1B1C" transform="translate(119,176)"/>
<path d="M0 0 C0.103125 0.556875 0.20625 1.11375 0.3125 1.6875 C1.13133577 4.44176578 2.45853781 6.58727657 4 9 C4.33 8.34 4.66 7.68 5 7 C5.99 8.485 5.99 8.485 7 10 C3.71303767 10.79953138 2.28976808 11.09658936 -1 10 C-1.33 10.66 -1.66 11.32 -2 12 C-4.97 11.67 -7.94 11.34 -11 11 C-11 9.68 -11 8.36 -11 7 C-8.35261084 5.5393715 -7.10551666 5 -4 5 C-1.79857668 2.5609294 -1.79857668 2.5609294 0 0 Z " fill="#0D0D0D" transform="translate(182,75)"/>
<path d="M0 0 C0.99 0.33 1.98 0.66 3 1 C3 1.66 3 2.32 3 3 C3.66 3 4.32 3 5 3 C5.33 2.01 5.66 1.02 6 0 C6.66 0 7.32 0 8 0 C7.75 3.375 7.75 3.375 7 7 C5.1875 8.3125 5.1875 8.3125 3 9 C2.2575 9.37125 1.515 9.7425 0.75 10.125 C0.1725 10.41375 -0.405 10.7025 -1 11 C-1.33 10.01 -1.66 9.02 -2 8 C-1.67 7.34 -1.34 6.68 -1 6 C-2.98 6.33 -4.96 6.66 -7 7 C-7 6.34 -7 5.68 -7 5 C-6.34 5 -5.68 5 -5 5 C-4.67 4.34 -4.34 3.68 -4 3 C-2.125 1.3125 -2.125 1.3125 0 0 Z " fill="#050505" transform="translate(194,65)"/>
<path d="M0 0 C5.75 -0.125 5.75 -0.125 8 1 C8 1.66 8 2.32 8 3 C7.01 3.33 6.02 3.66 5 4 C5.66 4.66 6.32 5.32 7 6 C6.34 6.66 5.68 7.32 5 8 C3.68 8 2.36 8 1 8 C0.34 7.34 -0.32 6.68 -1 6 C-2.34061543 6.30271961 -3.67405895 6.63837971 -5 7 C-5.99 6.67 -6.98 6.34 -8 6 C-7 3 -7 3 -4.5625 1.75 C-2 1 -2 1 0 2 C0 1.34 0 0.68 0 0 Z " fill="#F8F8F8" transform="translate(107,62)"/>
<path d="M0 0 C0.33 0.99 0.66 1.98 1 3 C1.66 3 2.32 3 3 3 C2.1875 5.4375 2.1875 5.4375 1 8 C0.01 8.33 -0.98 8.66 -2 9 C-2.33 7.68 -2.66 6.36 -3 5 C-3.66 5.66 -4.32 6.32 -5 7 C-5.66 7.66 -6.32 8.32 -7 9 C-8.33599921 8.67751743 -9.66893378 8.34227417 -11 8 C-11.825 8.165 -12.65 8.33 -13.5 8.5 C-16.13837756 9.02767551 -17.46563192 8.73024165 -20 8 C-19.19949219 7.74476562 -19.19949219 7.74476562 -18.3828125 7.484375 C-8.5131679 4.92092969 -8.5131679 4.92092969 0 0 Z " fill="#F1F1F1" transform="translate(227,87)"/>
<path d="M0 0 C3.0625 0.125 3.0625 0.125 5.0625 1.125 C4.75 3.0625 4.75 3.0625 4.0625 5.125 C-0.21084122 6.54944707 -3.59179709 7.57356764 -7.9375 6.125 C-8.2675 6.785 -8.5975 7.445 -8.9375 8.125 C-9.5625 6.25 -9.5625 6.25 -9.9375 4.125 C-7.77200189 1.95950189 -6.8126666 1.77423117 -3.9375 1.125 C-2.9375 0.125 -2.9375 0.125 0 0 Z " fill="#F4F4F4" transform="translate(64.9375,63.875)"/>
<path d="M0 0 C2.64 0 5.28 0 8 0 C8 4.62 8 9.24 8 14 C7.01 14.33 6.02 14.66 5 15 C4.87625 14.236875 4.7525 13.47375 4.625 12.6875 C4.11897208 9.79732864 4.11897208 9.79732864 2 7 C2 6.01 2 5.02 2 4 C1.34 3.34 0.68 2.68 0 2 C0 1.34 0 0.68 0 0 Z " fill="#F1F3F6" transform="translate(120,176)"/>
<path d="M0 0 C-1.32 0.33 -2.64 0.66 -4 1 C-4 1.66 -4 2.32 -4 3 C-2.68 3.33 -1.36 3.66 0 4 C-0.99 4 -1.98 4 -3 4 C-3 4.66 -3 5.32 -3 6 C-5 5 -5 5 -6 3 C-7.98 3 -9.96 3 -12 3 C-12 4.65 -12 6.3 -12 8 C-11.01 7.67 -10.02 7.34 -9 7 C-6.73828125 7.33984375 -6.73828125 7.33984375 -4.3125 7.9375 C-3.10013672 8.22947266 -3.10013672 8.22947266 -1.86328125 8.52734375 C-1.24839844 8.68332031 -0.63351563 8.83929688 0 9 C-3.34625502 11.23083668 -3.76618219 11.16613388 -7.5 10.5625 C-10.65380677 10.06314726 -11.87980059 9.95993353 -15 11 C-15.33 8.69 -15.66 6.38 -16 4 C-15.34 4 -14.68 4 -14 4 C-14 3.34 -14 2.68 -14 2 C-4.58997722 -1.62870159 -4.58997722 -1.62870159 0 0 Z " fill="#CF161A" transform="translate(104,123)"/>
<path d="M0 0 C0.67160156 -0.03480469 1.34320313 -0.06960937 2.03515625 -0.10546875 C7.56124314 -0.32906764 7.56124314 -0.32906764 10 1.5 C10.33 1.995 10.66 2.49 11 3 C9.68775452 6.93673644 8.08089673 9.22719294 5 12 C5.58803797 8.97580475 6.22678118 5.98241547 7 3 C5.7625 3.185625 4.525 3.37125 3.25 3.5625 C0.23720423 3.94711223 -2.10010827 4.0874594 -5 3 C-5 3.66 -5 4.32 -5 5 C-5.66 4.67 -6.32 4.34 -7 4 C-7 3.01 -7 2.02 -7 1 C-4 0 -4 0 0 0 Z " fill="#AF272A" transform="translate(113,121)"/>
<path d="M0 0 C6.65860882 -0.24661514 13.92560498 -0.03719751 20 3 C20 3.99 20 4.98 20 6 C5.75874153 6.24887636 5.75874153 6.24887636 1 2 C0.67 1.34 0.34 0.68 0 0 Z " fill="#F0F3F0" transform="translate(77,138)"/>
<path d="M0 0 C0 0.99 0 1.98 0 3 C-1.2065625 3.4021875 -1.2065625 3.4021875 -2.4375 3.8125 C-3.283125 4.204375 -4.12875 4.59625 -5 5 C-5.33 5.99 -5.66 6.98 -6 8 C-6.99 7.34 -7.98 6.68 -9 6 C-9.99 6 -10.98 6 -12 6 C-12.33 6.66 -12.66 7.32 -13 8 C-14.32 8 -15.64 8 -17 8 C-17 7.34 -17 6.68 -17 6 C-17.99 5.67 -18.98 5.34 -20 5 C-18 3 -18 3 -15.625 2.9375 C-14.75875 2.958125 -13.8925 2.97875 -13 3 C-11.66063874 2.69177879 -10.32772043 2.35503147 -9 2 C-7.41773109 1.64110788 -5.83437137 1.28699368 -4.25 0.9375 C-3.05117187 0.67259766 -3.05117187 0.67259766 -1.828125 0.40234375 C-1.22484375 0.26957031 -0.6215625 0.13679688 0 0 Z " fill="#EEEEEE" transform="translate(212,111)"/>
<path d="M0 0 C0.0825 0.5775 0.165 1.155 0.25 1.75 C1.20531013 4.6159304 2.78469173 5.9990764 5 8 C4.67 7.67 4.34 7.34 4 7 C4 4 4 4 5.5 2.3125 C5.995 1.879375 6.49 1.44625 7 1 C8.02230258 4.06690775 8.46591175 5.81626968 8 9 C5.5 11.3125 5.5 11.3125 3 13 C2.34 12.01 1.68 11.02 1 10 C0.13375 9.34 -0.7325 8.68 -1.625 8 C-2.40875 7.34 -3.1925 6.68 -4 6 C-4 5.01 -4 4.02 -4 3 C-3.34 3 -2.68 3 -2 3 C-2 2.34 -2 1.68 -2 1 C-1.34 0.67 -0.68 0.34 0 0 Z " fill="#0F0F0F" transform="translate(224,76)"/>
<path d="M0 0 C1.65 1.65 3.3 3.3 5 5 C3.125 6.0625 3.125 6.0625 1 7 C0.34 6.67 -0.32 6.34 -1 6 C-1.66 6.66 -2.32 7.32 -3 8 C-3.99 6.02 -4.98 4.04 -6 2 C-4.7934375 1.7834375 -4.7934375 1.7834375 -3.5625 1.5625 C-1.07896294 1.25864751 -1.07896294 1.25864751 0 0 Z M-7 3 C-7 3.99 -7 4.98 -7 6 C-8.64333504 7.03789581 -10.31243867 8.03567924 -12 9 C-12.66 9.99 -13.32 10.98 -14 12 C-14.6875 9.6875 -14.6875 9.6875 -15 7 C-13.38010972 4.48017068 -12.22117209 4.05657891 -9.3125 3.3125 C-8.549375 3.209375 -7.78625 3.10625 -7 3 Z " fill="#0D0D0D" transform="translate(103,54)"/>
<path d="M0 0 C0.60328125 0.08378906 1.2065625 0.16757813 1.828125 0.25390625 C3.02695313 0.40666016 3.02695313 0.40666016 4.25 0.5625 C5.03890625 0.66691406 5.8278125 0.77132812 6.640625 0.87890625 C9.00532874 1.00027349 10.7511037 0.69633257 13 0 C13 0.66 13 1.32 13 2 C12.34 2 11.68 2 11 2 C10.773125 2.804375 10.54625 3.60875 10.3125 4.4375 C9.6628125 5.7059375 9.6628125 5.7059375 9 7 C6.5 7.75 6.5 7.75 4 8 C3.01 8.495 3.01 8.495 2 9 C0.32345271 8.72057545 -1.34608154 8.39171753 -3 8 C-3 7.01 -3 6.02 -3 5 C-1.35 5 0.3 5 2 5 C2.33 4.01 2.66 3.02 3 2 C2.01 2 1.02 2 0 2 C0 1.34 0 0.68 0 0 Z " fill="#280A0B" transform="translate(92,132)"/>
<path d="M0 0 C0 0.99 0 1.98 0 3 C-0.99 3.66 -1.98 4.32 -3 5 C-3.66 4.67 -4.32 4.34 -5 4 C-5 4.66 -5 5.32 -5 6 C-4.01 6.33 -3.02 6.66 -2 7 C-2.99 7.66 -3.98 8.32 -5 9 C-7.5 7.8125 -7.5 7.8125 -10 6 C-10.3125 3.3125 -10.3125 3.3125 -10 1 C-6.21812119 -0.83691257 -4.05431692 -1.15837626 0 0 Z " fill="#0B0B0B" transform="translate(143,113)"/>
<path d="M0 0 C2.39763185 2.39763185 2.34280586 3.33273498 2.625 6.625 C2.69976562 7.44226563 2.77453125 8.25953125 2.8515625 9.1015625 C2.92503906 10.04128906 2.92503906 10.04128906 3 11 C2.34 10.34 1.68 9.68 1 9 C1 8.01 1 7.02 1 6 C0.01 5.67 -0.98 5.34 -2 5 C-3.6875 3.4375 -3.6875 3.4375 -5 2 C-5 2.66 -5 3.32 -5 4 C-5.99 4.66 -6.98 5.32 -8 6 C-8.33 6.99 -8.66 7.98 -9 9 C-9.66 9 -10.32 9 -11 9 C-10.33333333 5.66666667 -9.66666667 2.33333333 -9 -1 C-5.2232373 -2.04910075 -3.31615055 -2.17265036 0 0 Z " fill="#F5E9E9" transform="translate(107,141)"/>
<path d="M0 0 C3 0.1875 3 0.1875 5 1.1875 C6.92297224 1.05153146 6.92297224 1.05153146 9 0.6875 C12.77777778 0.07638889 12.77777778 0.07638889 15 1.1875 C14.67 1.8475 14.34 2.5075 14 3.1875 C11 4.1875 11 4.1875 8.875 3.625 C4.68666131 2.98764411 1.05317286 4.11901652 -3 5.1875 C-3 5.8475 -3 6.5075 -3 7.1875 C-3.66 7.1875 -4.32 7.1875 -5 7.1875 C-5.125 4.8125 -5.125 4.8125 -5 2.1875 C-3 0.1875 -3 0.1875 0 0 Z " fill="#F9D6CE" transform="translate(93,119.8125)"/>
<path d="M0 0 C0 0.99 0 1.98 0 3 C0.99 3.33 1.98 3.66 3 4 C2.67 4.99 2.34 5.98 2 7 C-0.64 7.33 -3.28 7.66 -6 8 C-5.125 4.125 -5.125 4.125 -4 3 C-4.99 2.67 -5.98 2.34 -7 2 C-7.99 2.495 -7.99 2.495 -9 3 C-9 2.01 -9 1.02 -9 0 C-5.67465243 -1.10844919 -3.37817425 -0.84454356 0 0 Z " fill="#0D0D0D" transform="translate(42,73)"/>
<path d="M0 0 C0.33 2.31 0.66 4.62 1 7 C0.01 7.495 0.01 7.495 -1 8 C-1.33 8.66 -1.66 9.32 -2 10 C-3.32 9.67 -4.64 9.34 -6 9 C-6.33 7.02 -6.66 5.04 -7 3 C-2.25 0 -2.25 0 0 0 Z " fill="#080808" transform="translate(143,78)"/>
<path d="M0 0 C5.43806647 -0.36253776 5.43806647 -0.36253776 7.9375 1.25 C9 3 9 3 8.625 4.875 C8.41875 5.57625 8.2125 6.2775 8 7 C8.38567131 9.68149993 8.38567131 9.68149993 9 12 C6.46475554 10.98590222 5.22860998 10.38502734 3.8125 8 C3.544375 7.34 3.27625 6.68 3 6 C2.67 5.34 2.34 4.68 2 4 C1.33333333 2.66666667 0.66666667 1.33333333 0 0 Z " fill="#080808" transform="translate(221,73)"/>
<path d="M0 0 C-0.33 0.99 -0.66 1.98 -1 3 C-3.0625 3.6875 -3.0625 3.6875 -5 4 C-5 4.66 -5 5.32 -5 6 C-6.65 6.33 -8.3 6.66 -10 7 C-10.99 5.68 -11.98 4.36 -13 3 C-8.1942374 -0.17180332 -5.81427302 -1.70173845 0 0 Z " fill="#230407" transform="translate(118,134)"/>
<path d="M0 0 C0.66 0.33 1.32 0.66 2 1 C1.54625 1.7425 1.0925 2.485 0.625 3.25 C-0.68640796 5.46930578 -1.88280803 7.67967822 -3 10 C-4.6396875 9.4740625 -4.6396875 9.4740625 -6.3125 8.9375 C-9.90920373 7.66960546 -9.90920373 7.66960546 -13 9 C-15.6875 8.0625 -15.6875 8.0625 -18 7 C-14.78372163 4.85581442 -12.80909895 4.32417863 -9 4 C-8.34 4.66 -7.68 5.32 -7 6 C-3.73539027 4.19587357 -2.11070205 3.16605307 0 0 Z " fill="#F8D3CF" transform="translate(123,126)"/>
<path d="M0 0 C0.99 0.33 1.98 0.66 3 1 C3.33 1.99 3.66 2.98 4 4 C8.37573952 4.59332061 12.57528444 5.13827236 17 5 C17.33 5.66 17.66 6.32 18 7 C15.79173622 7.02722517 13.58337362 7.04649729 11.375 7.0625 C10.14523438 7.07410156 8.91546875 7.08570313 7.6484375 7.09765625 C4.32276209 7.00863924 1.25952412 6.63686087 -2 6 C-2.33 5.01 -2.66 4.02 -3 3 C-2.01 2.01 -1.02 1.02 0 0 Z " fill="#D91014" transform="translate(94,125)"/>
<path d="M0 0 C0.99 0 1.98 0 3 0 C3.061875 1.093125 3.12375 2.18625 3.1875 3.3125 C3.58655545 7.13883903 3.58655545 7.13883903 6.5 8.6875 C7.325 9.120625 8.15 9.55375 9 10 C9.8125 12.1875 9.8125 12.1875 10 14 C6.625 13.375 6.625 13.375 3 12 C1.6875 8.9375 1.6875 8.9375 1 6 C0.34 5.67 -0.32 5.34 -1 5 C-0.67 3.35 -0.34 1.7 0 0 Z " fill="#EFEFEF" transform="translate(130,112)"/>
<path d="M0 0 C1.98 0.66 3.96 1.32 6 2 C5.34 2.66 4.68 3.32 4 4 C3.3574765 6.06874034 3.3574765 6.06874034 3 8 C2.01 7.34 1.02 6.68 0 6 C-1.9896995 5.60986284 -3.99019869 5.26797351 -6 5 C-6 5.66 -6 6.32 -6 7 C-5.01 7.33 -4.02 7.66 -3 8 C-3.66 8.66 -4.32 9.32 -5 10 C-5 9.34 -5 8.68 -5 8 C-5.66 8 -6.32 8 -7 8 C-7.33 6.68 -7.66 5.36 -8 4 C-6.576875 3.566875 -6.576875 3.566875 -5.125 3.125 C-1.94788422 2.23174891 -1.94788422 2.23174891 0 0 Z " fill="#282828" transform="translate(150,50)"/>
<path d="M0 0 C2.4375 0.6875 2.4375 0.6875 5 2 C5.8125 4.625 5.8125 4.625 6 7 C5.360625 7.12375 4.72125 7.2475 4.0625 7.375 C3.0415625 7.684375 3.0415625 7.684375 2 8 C1.67 8.66 1.34 9.32 1 10 C0.67 8.35 0.34 6.7 0 5 C-0.99 4.67 -1.98 4.34 -3 4 C-2.67 3.34 -2.34 2.68 -2 2 C-1.34 2 -0.68 2 0 2 C0 1.34 0 0.68 0 0 Z " fill="#131313" transform="translate(181,121)"/>
<path d="M0 0 C0.66 0.33 1.32 0.66 2 1 C1.67 2.65 1.34 4.3 1 6 C2.98 6.99 4.96 7.98 7 9 C7 9.66 7 10.32 7 11 C5.54077307 10.88590407 4.08259402 10.75834456 2.625 10.625 C1.81289062 10.55539063 1.00078125 10.48578125 0.1640625 10.4140625 C-2 10 -2 10 -4 8 C-3.75 5.9375 -3.75 5.9375 -3 4 C-2.34 3.67 -1.68 3.34 -1 3 C-0.67 2.01 -0.34 1.02 0 0 Z " fill="#131313" transform="translate(67,126)"/>
<path d="M0 0 C2.31 1.98 4.62 3.96 7 6 C6 8 6 8 5 9 C5.309375 9.928125 5.309375 9.928125 5.625 10.875 C5.74875 11.57625 5.8725 12.2775 6 13 C4.5625 14.75 4.5625 14.75 3 16 C2.34 15.34 1.68 14.68 1 14 C1.66 14 2.32 14 3 14 C3 13.01 3 12.02 3 11 C2.01 10.67 1.02 10.34 0 10 C0.185625 9.278125 0.37125 8.55625 0.5625 7.8125 C1.01995307 4.87173027 0.73516357 2.85896942 0 0 Z " fill="#EDEDED" transform="translate(185,119)"/>
<path d="M0 0 C2.31 0 4.62 0 7 0 C6.67 0.99 6.34 1.98 6 3 C6.66 3.33 7.32 3.66 8 4 C6.9375 5.5625 6.9375 5.5625 5 7 C1.5 6.9375 1.5 6.9375 -2 6 C-3.9375 3.9375 -3.9375 3.9375 -5 2 C-4.01 1.67 -3.02 1.34 -2 1 C-1.01 2.32 -0.02 3.64 1 5 C0.67 3.35 0.34 1.7 0 0 Z " fill="#E30508" transform="translate(100,124)"/>
<path d="M0 0 C1.45880109 0.14107747 2.91703551 0.28802415 4.375 0.4375 C5.59316406 0.55931641 5.59316406 0.55931641 6.8359375 0.68359375 C9 1 9 1 11 2 C10.67 2.99 10.34 3.98 10 5 C6.37 5.33 2.74 5.66 -1 6 C-0.67 4.02 -0.34 2.04 0 0 Z " fill="#EEEEEE" transform="translate(166,124)"/>
<path d="M0 0 C3.375 0.25 3.375 0.25 7 1 C8.5 2.8125 8.5 2.8125 9 5 C8.625 7.25 8.625 7.25 8 9 C7.01 9 6.02 9 5 9 C3 5.125 3 5.125 3 4 C2.01 3.34 1.02 2.68 0 2 C0 1.34 0 0.68 0 0 Z M-3 1 C-2.01 1.66 -1.02 2.32 0 3 C-0.33 3.66 -0.66 4.32 -1 5 C-2.65 4.67 -4.3 4.34 -6 4 C-5.01 3.67 -4.02 3.34 -3 3 C-3 2.34 -3 1.68 -3 1 Z " fill="#030303" transform="translate(150,48)"/>
<path d="M0 0 C0.33 1.32 0.66 2.64 1 4 C0.34 4 -0.32 4 -1 4 C-1 4.99 -1 5.98 -1 7 C-3.64 7.33 -6.28 7.66 -9 8 C-9 7.34 -9 6.68 -9 6 C-9.66 5.67 -10.32 5.34 -11 5 C-9.3125 3.4375 -9.3125 3.4375 -7 2 C-4.25 2.3125 -4.25 2.3125 -2 3 C-2 2.34 -2 1.68 -2 1 C-1.34 0.67 -0.68 0.34 0 0 Z " fill="#EFEFEF" transform="translate(158,125)"/>
<path d="M0 0 C2.125 0.375 2.125 0.375 4 1 C3.34 1.66 2.68 2.32 2 3 C2.66 4.65 3.32 6.3 4 8 C1.69 7.67 -0.62 7.34 -3 7 C-2.25 2.25 -2.25 2.25 0 0 Z M-6 7 C-3.525 7.495 -3.525 7.495 -1 8 C-2.98 8.99 -2.98 8.99 -5 10 C-5.33 9.01 -5.66 8.02 -6 7 Z " fill="#151515" transform="translate(184,58)"/>
<path d="M0 0 C0.66 0.66 1.32 1.32 2 2 C1.525625 2.7425 1.05125 3.485 0.5625 4.25 C-0.77869327 6.61050015 -1.512312 8.36648477 -2 11 C-3.65 11 -5.3 11 -7 11 C-7 9.35 -7 7.7 -7 6 C-6.34 6 -5.68 6 -5 6 C-5.33 5.01 -5.66 4.02 -6 3 C-4.35 3.33 -2.7 3.66 -1 4 C-0.67 2.68 -0.34 1.36 0 0 Z " fill="#FAE7E6" transform="translate(113,181)"/>
<path d="M0 0 C1.6396875 0.2475 1.6396875 0.2475 3.3125 0.5 C6.87525873 1.06718184 6.87525873 1.06718184 10 1 C9.67 1.99 9.34 2.98 9 4 C5.7 4.66 2.4 5.32 -1 6 C-1.66 4.68 -2.32 3.36 -3 2 C-2.01 2 -1.02 2 0 2 C0 1.34 0 0.68 0 0 Z " fill="#F0F0F0" transform="translate(81,57)"/>
<path d="M0 0 C0.99 0.66 1.98 1.32 3 2 C5.15274948 1.69159401 5.15274948 1.69159401 7 1 C6.37240135 3.92879371 5.41377341 6.36095629 4 9 C3.01 9 2.02 9 1 9 C-0.25664978 6.09399739 -1 4.20395416 -1 1 C-0.67 0.67 -0.34 0.34 0 0 Z " fill="#F6F6F6" transform="translate(201,58)"/>
<path d="M0 0 C-0.33 1.98 -0.66 3.96 -1 6 C-0.34 6.33 0.32 6.66 1 7 C-0.32 7.33 -1.64 7.66 -3 8 C-3 7.01 -3 6.02 -3 5 C-3.66 5 -4.32 5 -5 5 C-5 5.66 -5 6.32 -5 7 C-5.66 7 -6.32 7 -7 7 C-6.625 4.0625 -6.625 4.0625 -6 1 C-4 0 -4 0 0 0 Z " fill="#EFEFEF" transform="translate(86,72)"/>
<path d="M0 0 C0.66 0 1.32 0 2 0 C2 0.66 2 1.32 2 2 C2.66 2 3.32 2 4 2 C3.34 4.64 2.68 7.28 2 10 C1.01 10 0.02 10 -1 10 C-1 9.34 -1 8.68 -1 8 C-1.66 8 -2.32 8 -3 8 C-2.5359375 7.13375 -2.5359375 7.13375 -2.0625 6.25 C-1.07416636 4.15705816 -0.4831387 2.25464725 0 0 Z " fill="#F40C08" transform="translate(102,153)"/>
<path d="M0 0 C0.66 0.66 1.32 1.32 2 2 C1.34 2 0.68 2 0 2 C0 3.32 0 4.64 0 6 C0.99 6.33 1.98 6.66 3 7 C2.67 7.66 2.34 8.32 2 9 C-0.64 9 -3.28 9 -6 9 C-5.34 7.02 -4.68 5.04 -4 3 C-3.34 3 -2.68 3 -2 3 C-1.34 2.01 -0.68 1.02 0 0 Z " fill="#060606" transform="translate(181,107)"/>
<path d="M0 0 C2 1 2 1 4 3 C5.32 3 6.64 3 8 3 C8.33 3.66 8.66 4.32 9 5 C4.71 5.66 0.42 6.32 -4 7 C-2 3 -2 3 0 0 Z " fill="#F3F3F3" transform="translate(158,56)"/>
<path d="M0 0 C0.66 0 1.32 0 2 0 C3 3 3 3 2 6 C2.99 6.33 3.98 6.66 5 7 C2.87219421 9.34058637 0.88437779 10.70700306 -2 12 C-2 11.01 -2 10.02 -2 9 C-2.66 9 -3.32 9 -4 9 C-4 8.34 -4 7.68 -4 7 C-2.68 7 -1.36 7 0 7 C0 4.69 0 2.38 0 0 Z " fill="#F50D10" transform="translate(117,181)"/>
<path d="M0 0 C0.33 0.99 0.66 1.98 1 3 C1.66 3.33 2.32 3.66 3 4 C3.99 3.67 4.98 3.34 6 3 C6.33 3.99 6.66 4.98 7 6 C6.01 7.485 6.01 7.485 5 9 C3.35 8.67 1.7 8.34 0 8 C-0.66 6.02 -1.32 4.04 -2 2 C-1.34 1.34 -0.68 0.68 0 0 Z " fill="#0E110E" transform="translate(121,134)"/>
<path d="M0 0 C0.33 1.32 0.66 2.64 1 4 C-1.64 2.68 -4.28 1.36 -7 0 C-7.33 0.66 -7.66 1.32 -8 2 C-9.32 1.34 -10.64 0.68 -12 0 C-12.33 0.66 -12.66 1.32 -13 2 C-13.66 1.67 -14.32 1.34 -15 1 C-14.67 0.34 -14.34 -0.32 -14 -1 C-9.15674808 -2.34534776 -4.27397701 -3.05284072 0 0 Z " fill="#FCDBDC" transform="translate(125,121)"/>
<path d="M0 0 C0.99 0.33 1.98 0.66 3 1 C3 1.66 3 2.32 3 3 C3.66 3.66 4.32 4.32 5 5 C4.01 6.32 3.02 7.64 2 9 C1.67 8.34 1.34 7.68 1 7 C-0.64363134 6.27840576 -2.31050386 5.60648579 -4 5 C-2.68 3.35 -1.36 1.7 0 0 Z " fill="#010101" transform="translate(167,60)"/>
<path d="M0 0 C0 0.66 0 1.32 0 2 C0.66 2.33 1.32 2.66 2 3 C-5.42857143 4.28571429 -5.42857143 4.28571429 -9 3 C-9 3.66 -9 4.32 -9 5 C-9.66 4.67 -10.32 4.34 -11 4 C-11 3.01 -11 2.02 -11 1 C-7.24713079 -0.2509564 -3.94020864 0 0 0 Z " fill="#BD1922" transform="translate(117,121)"/>
<path d="M0 0 C0.8971875 0.5259375 0.8971875 0.5259375 1.8125 1.0625 C0.8125 3.0625 0.8125 3.0625 -2.1875 5.0625 C-3.84299531 5.44749891 -5.5097433 5.79043135 -7.1875 6.0625 C-7.5175 5.0725 -7.8475 4.0825 -8.1875 3.0625 C-5.67391791 0.30952914 -3.81682031 -1.63578013 0 0 Z " fill="#030303" transform="translate(138.1875,46.9375)"/>
<path d="M0 0 C1.32 0.66 2.64 1.32 4 2 C4 2.99 4 3.98 4 5 C2.25 6.75 2.25 6.75 0 8 C-2.25 7.6875 -2.25 7.6875 -4 7 C-4 6.01 -4 5.02 -4 4 C-3.01 3.34 -2.02 2.68 -1 2 C-0.67 1.34 -0.34 0.68 0 0 Z " fill="#F9F9F9" transform="translate(176,66)"/>
<path d="M0 0 C0.99 0.33 1.98 0.66 3 1 C3 1.99 3 2.98 3 4 C-0.26545761 5.88391785 -3.28111761 6.49287967 -7 7 C-7 6.34 -7 5.68 -7 5 C-6.34 5 -5.68 5 -5 5 C-4.67 4.34 -4.34 3.68 -4 3 C-2.125 1.3125 -2.125 1.3125 0 0 Z " fill="#191919" transform="translate(194,65)"/>
<path d="M0 0 C2 1 4 2 6 3 C6.33 2.01 6.66 1.02 7 0 C7.66 0.33 8.32 0.66 9 1 C9 1.66 9 2.32 9 3 C7.37373596 4.38232443 5.7074998 5.71937515 4 7 C3.34 6.67 2.68 6.34 2 6 C2.33 5.34 2.66 4.68 3 4 C1.35 3.67 -0.3 3.34 -2 3 C-1.34 2.01 -0.68 1.02 0 0 Z " fill="#010101" transform="translate(193,62)"/>
<path d="M0 0 C0.66 0.66 1.32 1.32 2 2 C4.10820797 1.6814823 4.10820797 1.6814823 6 1 C5.67 1.99 5.34 2.98 5 4 C-0.97565663 6.367713 -0.97565663 6.367713 -4.4375 5.125 C-4.953125 4.75375 -5.46875 4.3825 -6 4 C-5 2 -5 2 -2 1 C-1.34 1.33 -0.68 1.66 0 2 C0 1.34 0 0.68 0 0 Z " fill="#EFEFEF" transform="translate(9,121)"/>
<path d="M0 0 C2.31 0 4.62 0 7 0 C7 0.66 7 1.32 7 2 C2.56 4.96 2.56 4.96 0 6 C-0.99 5.67 -1.98 5.34 -3 5 C-2.67 4.01 -2.34 3.02 -2 2 C-1.34 2 -0.68 2 0 2 C0 1.34 0 0.68 0 0 Z " fill="#131313" transform="translate(172,89)"/>
<path d="M0 0 C0.99 0.99 1.98 1.98 3 3 C2.34 3 1.68 3 1 3 C0.67 3.99 0.34 4.98 0 6 C-1.98 6 -3.96 6 -6 6 C-6 4.35 -6 2.7 -6 1 C-5.01 1.33 -4.02 1.66 -3 2 C-2.34 2 -1.68 2 -1 2 C-0.67 1.34 -0.34 0.68 0 0 Z " fill="#121212" transform="translate(6,82)"/>
<path d="M0 0 C2.34360915 0.25110098 4.67968195 0.58565749 7 1 C7.66 1 8.32 1 9 1 C9 1.66 9 2.32 9 3 C7 4.625 7 4.625 5 6 C4.34 5.34 3.68 4.68 3 4 C-0.09926819 4.32198966 -0.09926819 4.32198966 -3 5 C-2 2 -2 2 0 0 Z " fill="#F0F0F0" transform="translate(138,40)"/>
<path d="M0 0 C1.5625 1.75 1.5625 1.75 3 4 C2.6875 6.25 2.6875 6.25 2 8 C0.125 7.6875 0.125 7.6875 -2 7 C-2.66 6.01 -3.32 5.02 -4 4 C-2.68 2.68 -1.36 1.36 0 0 Z " fill="#101010" transform="translate(134,136)"/>
<path d="M0 0 C0.66 0 1.32 0 2 0 C2.33 0.99 2.66 1.98 3 3 C2.33333333 4.33333333 1.66666667 5.66666667 1 7 C1.33 7.99 1.66 8.98 2 10 C0.35 10.33 -1.3 10.66 -3 11 C-2.43902568 7.6341541 -1.56149386 5.01888813 0 2 C0 1.34 0 0.68 0 0 Z " fill="#F2F2F2" transform="translate(220,101)"/>
<path d="M0 0 C-0.33 1.32 -0.66 2.64 -1 4 C-1.66 3.67 -2.32 3.34 -3 3 C-3.33 3.99 -3.66 4.98 -4 6 C-4.99 6 -5.98 6 -7 6 C-7.33 5.01 -7.66 4.02 -8 3 C-8.33 2.34 -8.66 1.68 -9 1 C-5.8035914 -0.06546953 -3.34252724 -0.07427838 0 0 Z " fill="#EEEEEE" transform="translate(78,74)"/>
<path d="M0 0 C1.6396875 0.2475 1.6396875 0.2475 3.3125 0.5 C6.87525873 1.06718184 6.87525873 1.06718184 10 1 C10.33 1.99 10.66 2.98 11 4 C6.48281619 5.36884358 3.41225737 4.47075246 -1 3 C-0.67 2.01 -0.34 1.02 0 0 Z " fill="#EDEDED" transform="translate(98,67)"/>
<path d="M0 0 C1.4540625 0.0309375 1.4540625 0.0309375 2.9375 0.0625 C2.6075 1.3825 2.2775 2.7025 1.9375 4.0625 C2.9275 3.7325 3.9175 3.4025 4.9375 3.0625 C4.9375 4.0525 4.9375 5.0425 4.9375 6.0625 C3.125 6.75 3.125 6.75 0.9375 7.0625 C-1.32234425 5.32415827 -2.46050928 3.46548607 -4.0625 1.0625 C-3.0625 0.0625 -3.0625 0.0625 0 0 Z " fill="#101010" transform="translate(142.0625,132.9375)"/>
<path d="M0 0 C0.66 0.33 1.32 0.66 2 1 C2 1.66 2 2.32 2 3 C2.99 2.67 3.98 2.34 5 2 C5 2.66 5 3.32 5 4 C-2.42857143 6.42857143 -2.42857143 6.42857143 -6 5 C-5.67 4.01 -5.34 3.02 -5 2 C-4.01 1.67 -3.02 1.34 -2 1 C-1.67 1.66 -1.34 2.32 -1 3 C-0.67 2.01 -0.34 1.02 0 0 Z " fill="#EEEEEE" transform="translate(63,121)"/>
<path d="M0 0 C0.33 1.32 0.66 2.64 1 4 C0.278125 3.62875 -0.44375 3.2575 -1.1875 2.875 C-4.60988311 1.81025859 -5.88228073 2.39660152 -9 4 C-9 2.68 -9 1.36 -9 0 C-5.62182575 -0.84454356 -3.32534757 -1.10844919 0 0 Z " fill="#040404" transform="translate(70,70)"/>
<path d="M0 0 C0.33 0 0.66 0 1 0 C1.3125 2.25 1.3125 2.25 1 5 C-3.10810811 9 -3.10810811 9 -6 9 C-6.33 7.68 -6.66 6.36 -7 5 C-6.21625 4.731875 -5.4325 4.46375 -4.625 4.1875 C-1.71885077 3.15185568 -1.71885077 3.15185568 0 0 Z " fill="#121212" transform="translate(156,54)"/>
<path d="M0 0 C1.65 1.32 3.3 2.64 5 4 C3.4375 5.125 3.4375 5.125 1 6 C-2.75 5.125 -2.75 5.125 -6 4 C-5.67 3.01 -5.34 2.02 -5 1 C-5 1.66 -5 2.32 -5 3 C-4.01 3 -3.02 3 -2 3 C-1.67 2.34 -1.34 1.68 -1 1 C-0.67 0.67 -0.34 0.34 0 0 Z " fill="#181818" transform="translate(138,49)"/>
<path d="M0 0 C0.99 0 1.98 0 3 0 C3 0.66 3 1.32 3 2 C3.99 1.67 4.98 1.34 6 1 C8.26171875 1.33984375 8.26171875 1.33984375 10.6875 1.9375 C11.49574219 2.13214844 12.30398437 2.32679688 13.13671875 2.52734375 C13.75160156 2.68332031 14.36648437 2.83929688 15 3 C11.65374498 5.23083668 11.23381781 5.16613388 7.5 4.5625 C4.34619323 4.06314726 3.12019941 3.95993353 0 5 C0 3.35 0 1.7 0 0 Z " fill="#B24A4B" transform="translate(89,129)"/>
<path d="M0 0 C0.144375 0.61875 0.28875 1.2375 0.4375 1.875 C0.93152225 4.03258322 0.93152225 4.03258322 2 6 C1.0625 8.125 1.0625 8.125 0 10 C-2 8.1875 -2 8.1875 -4 6 C-4 5.01 -4 4.02 -4 3 C-3.34 3 -2.68 3 -2 3 C-2 2.34 -2 1.68 -2 1 C-1.34 0.67 -0.68 0.34 0 0 Z " fill="#161616" transform="translate(224,76)"/>
<path d="M0 0 C1.9375 0.8125 1.9375 0.8125 4 2 C4.33 2.99 4.66 3.98 5 5 C1.535 6.485 1.535 6.485 -2 8 C-2 5 -2 5 -1 4 C-1 3.01 -1 2.02 -1 1 C-0.67 0.67 -0.34 0.34 0 0 Z " fill="#EBEBEB" transform="translate(101,49)"/>
<path d="M0 0 C0.66 0.33 1.32 0.66 2 1 C1.34 1.66 0.68 2.32 0 3 C0.33 3.99 0.66 4.98 1 6 C-0.65 6.66 -2.3 7.32 -4 8 C-4.33 6.35 -4.66 4.7 -5 3 C-4.34 3 -3.68 3 -3 3 C-1.37485532 1.54166642 -1.37485532 1.54166642 0 0 Z " fill="#040404" transform="translate(190,108)"/>
<path d="M0 0 C0.66 0.33 1.32 0.66 2 1 C1.01 2.485 1.01 2.485 0 4 C1.32 4.33 2.64 4.66 4 5 C0.3558226 7.4294516 -1.71241272 7.16179575 -6 7 C-4.66666667 5.66666667 -3.33333333 4.33333333 -2 3 C-1.34 2.01 -0.68 1.02 0 0 Z " fill="#F8F8F8" transform="translate(202,68)"/>
<path d="M0 0 C-0.639375 0.28875 -1.27875 0.5775 -1.9375 0.875 C-4.15206079 1.82823451 -4.15206079 1.82823451 -5 4 C-5.66 4 -6.32 4 -7 4 C-7.33 3.34 -7.66 2.68 -8 2 C-8.99 2 -9.98 2 -11 2 C-11.66 2.66 -12.32 3.32 -13 4 C-12.67 2.68 -12.34 1.36 -12 0 C-7.74433453 -1.16063604 -4.3164922 -0.76173392 0 0 Z " fill="#E9E9E9" transform="translate(177,69)"/>
<path d="M0 0 C3 3.75 3 3.75 3 6 C3.66 6.66 4.32 7.32 5 8 C2.36 8.33 -0.28 8.66 -3 9 C-3 8.01 -3 7.02 -3 6 C-2.34 6 -1.68 6 -1 6 C-1.309375 5.071875 -1.309375 5.071875 -1.625 4.125 C-1.810625 3.073125 -1.810625 3.073125 -2 2 C-1.34 1.34 -0.68 0.68 0 0 Z " fill="#010101" transform="translate(187,59)"/>
<path d="M0 0 C1.65 1.65 3.3 3.3 5 5 C3.02 5.99 3.02 5.99 1 7 C-1 5.625 -1 5.625 -3 4 C-3 3.34 -3 2.68 -3 2 C-2.01 1.34 -1.02 0.68 0 0 Z " fill="#151515" transform="translate(103,54)"/>
<path d="M0 0 C1.2065625 0.0309375 1.2065625 0.0309375 2.4375 0.0625 C2.4375 1.0525 2.4375 2.0425 2.4375 3.0625 C3.0975 3.3925 3.7575 3.7225 4.4375 4.0625 C3.7775 4.0625 3.1175 4.0625 2.4375 4.0625 C2.4375 4.7225 2.4375 5.3825 2.4375 6.0625 C0 5.25 0 5.25 -2.5625 4.0625 C-2.8925 3.0725 -3.2225 2.0825 -3.5625 1.0625 C-2.5625 0.0625 -2.5625 0.0625 0 0 Z " fill="#202020" transform="translate(114.5625,50.9375)"/>
<path d="M0 0 C0.66 0 1.32 0 2 0 C2.33 1.65 2.66 3.3 3 5 C3.66 5 4.32 5 5 5 C5.6875 6.75 5.6875 6.75 6 9 C5.01 10.32 4.02 11.64 3 13 C2.01 8.71 1.02 4.42 0 0 Z " fill="#F9DAD1" transform="translate(106,147)"/>
<path d="M0 0 C3.3 0 6.6 0 10 0 C10 0.99 10 1.98 10 3 C6.7 3 3.4 3 0 3 C0 2.01 0 1.02 0 0 Z " fill="#F0F0F0" transform="translate(9,133)"/>
<path d="M0 0 C1.9375 0.3125 1.9375 0.3125 4 1 C4.33 1.99 4.66 2.98 5 4 C0.56923077 6.09230769 0.56923077 6.09230769 -2.3125 5.625 C-2.869375 5.41875 -3.42625 5.2125 -4 5 C-2.68 3.35 -1.36 1.7 0 0 Z " fill="#050505" transform="translate(40,129)"/>
<path d="M0 0 C3.02419525 0.58803797 6.01758453 1.22678118 9 2 C8.67 2.99 8.34 3.98 8 5 C6.02 5.33 4.04 5.66 2 6 C1.34 4.02 0.68 2.04 0 0 Z " fill="#060606" transform="translate(43,125)"/>
<path d="M0 0 C1.65 0.33 3.3 0.66 5 1 C4.34 1.66 3.68 2.32 3 3 C3 3.99 3 4.98 3 6 C1.02 6.33 -0.96 6.66 -3 7 C-2.67 5.35 -2.34 3.7 -2 2 C-1.34 2 -0.68 2 0 2 C0 1.34 0 0.68 0 0 Z " fill="#F21016" transform="translate(108,124)"/>
<path d="M0 0 C1.32 0 2.64 0 4 0 C4 0.66 4 1.32 4 2 C4.66 2.33 5.32 2.66 6 3 C5.67 3.66 5.34 4.32 5 5 C2.36 5 -0.28 5 -3 5 C-1.75 2.5 -1.75 2.5 0 0 Z " fill="#F2F2F2" transform="translate(49,121)"/>
<path d="M0 0 C0.94875 0.04125 1.8975 0.0825 2.875 0.125 C2.875 0.785 2.875 1.445 2.875 2.125 C1.885 2.455 0.895 2.785 -0.125 3.125 C-0.455 3.785 -0.785 4.445 -1.125 5.125 C-1.785 5.125 -2.445 5.125 -3.125 5.125 C-3.125 5.785 -3.125 6.445 -3.125 7.125 C-3.785 7.125 -4.445 7.125 -5.125 7.125 C-5.25 4.75 -5.25 4.75 -5.125 2.125 C-3.125 0.125 -3.125 0.125 0 0 Z " fill="#F6EBE4" transform="translate(93.125,119.875)"/>
<path d="M0 0 C1.65 1.65 3.3 3.3 5 5 C3.02 5.99 3.02 5.99 1 7 C0 6 -1 5 -2 4 C-2 3.01 -2 2.02 -2 1 C-1.34 0.67 -0.68 0.34 0 0 Z " fill="#E7E7E7" transform="translate(35,80)"/>
<path d="M0 0 C2.16874252 0.50603992 3.99967627 0.99983813 6 2 C5.67 3.32 5.34 4.64 5 6 C4.01 5.34 3.02 4.68 2 4 C2 4.66 2 5.32 2 6 C1.34 6 0.68 6 0 6 C0 4.02 0 2.04 0 0 Z " fill="#030303" transform="translate(0,126)"/>
<path d="M0 0 C0.33 0.99 0.66 1.98 1 3 C0.01 3.99 -0.98 4.98 -2 6 C-4.31 5.01 -6.62 4.02 -9 3 C-5.81237635 0.87491756 -3.73487777 0.4979837 0 0 Z " fill="#F0F0F0" transform="translate(190,114)"/>
<path d="M0 0 C2.31 0.33 4.62 0.66 7 1 C7 2.32 7 3.64 7 5 C4.625 4.75 4.625 4.75 2 4 C0.6875 1.9375 0.6875 1.9375 0 0 Z " fill="#1A1A1A" transform="translate(149,45)"/>
<path d="M0 0 C3.7952131 1.49097658 5.61042731 3.75700849 8 7 C4.85262818 6.30058404 1.97411124 5.23921302 -1 4 C-0.67 2.68 -0.34 1.36 0 0 Z " fill="#030303" transform="translate(8,126)"/>
<path d="M0 0 C1.875 0.625 1.875 0.625 4 2 C5.3125 5 5.3125 5 6 8 C5.67 8.66 5.34 9.32 5 10 C4.34 10 3.68 10 3 10 C2.87625 9.278125 2.7525 8.55625 2.625 7.8125 C2.0095069 5.04278106 1.11555626 2.6029646 0 0 Z " fill="#FDDEDD" transform="translate(122,181)"/>
<path d="M0 0 C0.66 0.33 1.32 0.66 2 1 C0 4 0 4 -3 6 C-6.1875 6.125 -6.1875 6.125 -9 6 C-3.30379747 1.25316456 -3.30379747 1.25316456 0 0 Z " fill="#EFEFEF" transform="translate(183,102)"/>
<path d="M0 0 C0.66 0 1.32 0 2 0 C2.33 1.98 2.66 3.96 3 6 C1.35 6 -0.3 6 -2 6 C-2 2 -2 2 0 0 Z " fill="#272727" transform="translate(173,80)"/>
<path d="M0 0 C1.32 0.99 2.64 1.98 4 3 C2.88625 3.433125 2.88625 3.433125 1.75 3.875 C-0.56739797 4.82302644 -2.77917115 5.84845911 -5 7 C-4.67 5.68 -4.34 4.36 -4 3 C-2.68 2.67 -1.36 2.34 0 2 C0 1.34 0 0.68 0 0 Z " fill="#0D0D0D" transform="translate(138,57)"/>
<path d="M0 0 C0.66 0.66 1.32 1.32 2 2 C-3.29230769 4.21538462 -3.29230769 4.21538462 -6.875 3.125 C-7.57625 2.75375 -8.2775 2.3825 -9 2 C-4 -1.33333333 -4 -1.33333333 0 0 Z " fill="#DE7974" transform="translate(114,131)"/>
<path d="M0 0 C0.33 0.99 0.66 1.98 1 3 C-1.31 3.33 -3.62 3.66 -6 4 C-6 3.01 -6 2.02 -6 1 C-4 0 -4 0 0 0 Z " fill="#EDFBF7" transform="translate(128,117)"/>
<path d="M0 0 C1.65 0 3.3 0 5 0 C4 3 4 3 2 4 C0.86649466 6.01669827 0.86649466 6.01669827 0 8 C-0.66 7.67 -1.32 7.34 -2 7 C-1.34 4.69 -0.68 2.38 0 0 Z " fill="#1B1B1B" transform="translate(175,108)"/>
<path d="M0 0 C1.9375 0.875 1.9375 0.875 4 2 C4.99 2.33 5.98 2.66 7 3 C7 3.33 7 3.66 7 4 C2.98195309 4.84098656 -0.01803543 5.05404945 -4 4 C-3.34 3.67 -2.68 3.34 -2 3 C-2 2.34 -2 1.68 -2 1 C-1.34 0.67 -0.68 0.34 0 0 Z " fill="#111111" transform="translate(156,99)"/>
<path d="M0 0 C0.99 0.33 1.98 0.66 3 1 C4.1875 3.5625 4.1875 3.5625 5 6 C3.02 6 1.04 6 -1 6 C-1.33 5.01 -1.66 4.02 -2 3 C-1.34 3 -0.68 3 0 3 C0 2.01 0 1.02 0 0 Z " fill="#0F0F0F" transform="translate(145,98)"/>
<path d="M0 0 C2.5654594 2.5654594 2.54046087 4.47686668 3 8 C0.37812506 6.95125002 -0.79371361 6.35068687 -2.25 3.875 C-2.4975 3.25625 -2.745 2.6375 -3 2 C-2.01 1.34 -1.02 0.68 0 0 Z " fill="#020202" transform="translate(227,77)"/>
<path d="M0 0 C1.65 0 3.3 0 5 0 C5.625 1.875 5.625 1.875 6 4 C5.34 4.66 4.68 5.32 4 6 C3.34 5.34 2.68 4.68 2 4 C1.01 3.67 0.02 3.34 -1 3 C-0.67 2.01 -0.34 1.02 0 0 Z " fill="#EDEDED" transform="translate(97,73)"/>
<path d="M0 0 C-0.66 1.32 -1.32 2.64 -2 4 C-3.32 4 -4.64 4 -6 4 C-6.33 3.01 -6.66 2.02 -7 1 C-4 0 -4 0 0 0 Z " fill="#F7F7F7" transform="translate(141,54)"/>
<path d="M0 0 C2 3 2 3 2 6 C3.32 6 4.64 6 6 6 C6.33 7.32 6.66 8.64 7 10 C2.37837838 8.54054054 2.37837838 8.54054054 0.6875 6.125 C0 4 0 4 0 0 Z " fill="#B22729" transform="translate(111,188)"/>
<path d="M0 0 C1.32 0.33 2.64 0.66 4 1 C3.01 1.495 3.01 1.495 2 2 C2.66 2.66 3.32 3.32 4 4 C0.25 7 0.25 7 -2 7 C-2 5.68 -2 4.36 -2 3 C-1.34 3 -0.68 3 0 3 C0 2.01 0 1.02 0 0 Z " fill="#EFEFEF" transform="translate(171,137)"/>
<path d="M0 0 C2.97 0.495 2.97 0.495 6 1 C5.67 2.65 5.34 4.3 5 6 C1.9890638 3.9927092 1.36983503 3.16115776 0 0 Z " fill="#E9E9E9" transform="translate(70,137)"/>
<path d="M0 0 C0.99 0.33 1.98 0.66 3 1 C2.34 1 1.68 1 1 1 C1.66 2.65 2.32 4.3 3 6 C1.35 6 -0.3 6 -2 6 C-2.33 5.01 -2.66 4.02 -3 3 C-2.01 2.01 -1.02 1.02 0 0 Z " fill="#CD1217" transform="translate(94,125)"/>
<path d="M0 0 C0.99 0.66 1.98 1.32 3 2 C3 2.99 3 3.98 3 5 C3.99 5.33 4.98 5.66 6 6 C5.01 6 4.02 6 3 6 C2.67 6.66 2.34 7.32 2 8 C1.34 7.34 0.68 6.68 0 6 C-0.66 5.67 -1.32 5.34 -2 5 C-1.34 4.01 -0.68 3.02 0 2 C0 1.34 0 0.68 0 0 Z " fill="#101010" transform="translate(171,116)"/>
<path d="M0 0 C1.98 0.99 3.96 1.98 6 3 C2.91190305 4.76462683 1.76687864 5 -2 5 C-1.125 1.125 -1.125 1.125 0 0 Z " fill="#191919" transform="translate(38,76)"/>
<path d="M0 0 C-0.33 0.99 -0.66 1.98 -1 3 C-3.31 3.33 -5.62 3.66 -8 4 C-8.33 3.34 -8.66 2.68 -9 2 C-3.375 -1.125 -3.375 -1.125 0 0 Z " fill="#050505" transform="translate(127,75)"/>
<path d="M0 0 C2.51083114 1.25541557 2.87125446 2.50063488 4 5 C2.02 5.33 0.04 5.66 -2 6 C-1.125 1.125 -1.125 1.125 0 0 Z " fill="#F2F2F2" transform="translate(43,67)"/>
<path d="M0 0 C2.475 0.495 2.475 0.495 5 1 C5.33 3.64 5.66 6.28 6 9 C5.34 8.34 4.68 7.68 4 7 C4 6.01 4 5.02 4 4 C3.01 3.67 2.02 3.34 1 3 C0.67 2.01 0.34 1.02 0 0 Z " fill="#F8EFDF" transform="translate(104,143)"/>
<path d="M0 0 C0.33 0.66 0.66 1.32 1 2 C2.32 2 3.64 2 5 2 C5 2.66 5 3.32 5 4 C4.34 4 3.68 4 3 4 C2.67 4.99 2.34 5.98 2 7 C1.34 6.67 0.68 6.34 0 6 C0 5.01 0 4.02 0 3 C-0.66 2.67 -1.32 2.34 -2 2 C-1.34 2 -0.68 2 0 2 C0 1.34 0 0.68 0 0 Z " fill="#EEEEEE" transform="translate(140,127)"/>
<path d="M0 0 C-0.33 1.65 -0.66 3.3 -1 5 C-3.475 4.01 -3.475 4.01 -6 3 C-3.375 0 -3.375 0 0 0 Z " fill="#141414" transform="translate(61,126)"/>
<path d="M0 0 C0.99 0 1.98 0 3 0 C3.6875 2.3125 3.6875 2.3125 4 5 C2.5625 6.8125 2.5625 6.8125 1 8 C1 7.34 1 6.68 1 6 C0.34 5.67 -0.32 5.34 -1 5 C-0.67 3.35 -0.34 1.7 0 0 Z " fill="#E0E0E0" transform="translate(130,112)"/>
<path d="M0 0 C2.475 0.99 2.475 0.99 5 2 C4.67 2.99 4.34 3.98 4 5 C3.01 5 2.02 5 1 5 C0.34 3.68 -0.32 2.36 -1 1 C-0.67 0.67 -0.34 0.34 0 0 Z " fill="#ECECEC" transform="translate(149,107)"/>
<path d="M0 0 C1.98 0.66 3.96 1.32 6 2 C6 3.65 6 5.3 6 7 C3 5.1875 3 5.1875 0 3 C0 2.01 0 1.02 0 0 Z " fill="#F0E7E8" transform="translate(120,176)"/>
<path d="M0 0 C2.97 0.495 2.97 0.495 6 1 C5.01 2.485 5.01 2.485 4 4 C3.67 4.99 3.34 5.98 3 7 C2.34 6.34 1.68 5.68 1 5 C0.67 5 0.34 5 0 5 C0 3.35 0 1.7 0 0 Z " fill="#0C0E08" transform="translate(84,130)"/>
<path d="M0 0 C1.65 0.33 3.3 0.66 5 1 C4.34 2.98 3.68 4.96 3 7 C1.68 6.34 0.36 5.68 -1 5 C-0.01 4.67 0.98 4.34 2 4 C2.33 3.34 2.66 2.68 3 2 C2.01 2.33 1.02 2.66 0 3 C0 2.01 0 1.02 0 0 Z " fill="#141414" transform="translate(49,125)"/>
<path d="M0 0 C4.75 0.75 4.75 0.75 7 3 C6 4 6 4 2.9375 4.0625 C1.4834375 4.0315625 1.4834375 4.0315625 0 4 C0 2.66666667 0 1.33333333 0 0 Z " fill="#EFEFEF" transform="translate(159,106)"/>
<path d="M0 0 C2 1 2 1 2 1 Z M-1 1 C-0.34 1.33 0.32 1.66 1 2 C1 2.99 1 3.98 1 5 C0.34 5 -0.32 5 -1 5 C-1.33 5.99 -1.66 6.98 -2 8 C-2.33 6.02 -2.66 4.04 -3 2 C-2.34 1.67 -1.68 1.34 -1 1 Z " fill="#1C1C1C" transform="translate(139,79)"/>
<path d="M0 0 C0.66 0 1.32 0 2 0 C1.67 1.65 1.34 3.3 1 5 C-0.32 5.33 -1.64 5.66 -3 6 C-3 5.01 -3 4.02 -3 3 C-2.34 3 -1.68 3 -1 3 C-0.67 2.01 -0.34 1.02 0 0 Z " fill="#0B0B0B" transform="translate(200,65)"/>
<path d="M0 0 C0.99 0.33 1.98 0.66 3 1 C3 2.32 3 3.64 3 5 C2.34 5 1.68 5 1 5 C0.67 5.66 0.34 6.32 0 7 C-1.125 2.25 -1.125 2.25 0 0 Z " fill="#DB2520" transform="translate(105,157)"/>
<path d="M0 0 C0.66 0 1.32 0 2 0 C2 0.66 2 1.32 2 2 C2.66 2 3.32 2 4 2 C3.34 3.65 2.68 5.3 2 7 C0 5 0 5 -0.125 2.375 C-0.08375 1.59125 -0.0425 0.8075 0 0 Z " fill="#E00E00" transform="translate(102,153)"/>
<path d="M0 0 C0.99 0.33 1.98 0.66 3 1 C2.67 1.99 2.34 2.98 2 4 C0.68 4 -0.64 4 -2 4 C-2 4.66 -2 5.32 -2 6 C-2.99 6.33 -3.98 6.66 -5 7 C-5 6.34 -5 5.68 -5 5 C-4.34 5 -3.68 5 -3 5 C-3 4.34 -3 3.68 -3 3 C-1.5 1.375 -1.5 1.375 0 0 Z " fill="#030303" transform="translate(183,129)"/>
<path d="M0 0 C0 0.66 0 1.32 0 2 C-1.65 2.33 -3.3 2.66 -5 3 C-5.33 3.99 -5.66 4.98 -6 6 C-6.99 5.67 -7.98 5.34 -9 5 C-8.34 4.67 -7.68 4.34 -7 4 C-7 3.34 -7 2.68 -7 2 C-4.35261084 0.5393715 -3.10551666 0 0 0 Z " fill="#9F2423" transform="translate(97,123)"/>
<path d="M0 0 C5.75 -0.125 5.75 -0.125 8 1 C7.67 1.99 7.34 2.98 7 4 C4.69 3.01 2.38 2.02 0 1 C0 0.67 0 0.34 0 0 Z " fill="#E7E7E7" transform="translate(169,125)"/>
<path d="M0 0 C1.98 0.66 3.96 1.32 6 2 C6 2.66 6 3.32 6 4 C4.02 4.99 2.04 5.98 0 7 C0 4.69 0 2.38 0 0 Z " fill="#F2F2F2" transform="translate(137,92)"/>
<path d="M0 0 C0.33 0.66 0.66 1.32 1 2 C3.02463255 2.65213292 3.02463255 2.65213292 5 3 C5 3.99 5 4.98 5 6 C3.02 5.34 1.04 4.68 -1 4 C-0.67 2.68 -0.34 1.36 0 0 Z " fill="#1C1C1C" transform="translate(214,74)"/>
<path d="M0 0 C1.5625 1.1875 1.5625 1.1875 3 3 C2.6875 5.6875 2.6875 5.6875 2 8 C0.68 6.35 -0.64 4.7 -2 3 C-1 1 -1 1 0 0 Z " fill="#E2E2E2" transform="translate(201,58)"/>
<path d="M0 0 C0.66 0.33 1.32 0.66 2 1 C1.67 2.98 1.34 4.96 1 7 C-0.32 6.34 -1.64 5.68 -3 5 C-2.01 3.35 -1.02 1.7 0 0 Z " fill="#F1DFDA" transform="translate(126,192)"/>
<path d="M0 0 C0.66 0.33 1.32 0.66 2 1 C2 2.98 2 4.96 2 7 C1.01 7.33 0.02 7.66 -1 8 C-0.67 5.36 -0.34 2.72 0 0 Z " fill="#A81C1F" transform="translate(124,188)"/>
<path d="M0 0 C2.0625 0.4375 2.0625 0.4375 4 1 C2.69593116 3.01920337 1.36176581 5.01924973 0 7 C-0.33 7 -0.66 7 -1 7 C-1.04254356 5.00045254 -1.04080783 2.99958364 -1 1 C-0.67 0.67 -0.34 0.34 0 0 Z " fill="#F10C23" transform="translate(100,147)"/>
<path d="M0 0 C-0.33 0.66 -0.66 1.32 -1 2 C-1.66 2 -2.32 2 -3 2 C-3.33 2.66 -3.66 3.32 -4 4 C-4.99 2.68 -5.98 1.36 -7 0 C-3.86650268 -1.04449911 -3.01031744 -0.93423645 0 0 Z " fill="#200712" transform="translate(112,137)"/>
<path d="M0 0 C1.32 0 2.64 0 4 0 C3.1875 1.9375 3.1875 1.9375 2 4 C1.01 4.33 0.02 4.66 -1 5 C-1.33 4.34 -1.66 3.68 -2 3 C-1.34 2.01 -0.68 1.02 0 0 Z " fill="#F9110D" transform="translate(115,124)"/>
<path d="M0 0 C2.475 0.495 2.475 0.495 5 1 C4.67 1.99 4.34 2.98 4 4 C2.68 4 1.36 4 0 4 C0 2.68 0 1.36 0 0 Z " fill="#0A0A0A" transform="translate(142,118)"/>
<path d="M0 0 C0.66 0.66 1.32 1.32 2 2 C1.67 2.99 1.34 3.98 1 5 C0.01 5.33 -0.98 5.66 -2 6 C-2.33 4.35 -2.66 2.7 -3 1 C-2.01 0.67 -1.02 0.34 0 0 Z " fill="#101010" transform="translate(205,104)"/>
<path d="M0 0 C2.375 -0.1875 2.375 -0.1875 5 0 C5.66 0.99 6.32 1.98 7 3 C4.69 3 2.38 3 0 3 C0 2.01 0 1.02 0 0 Z " fill="#FCFCFC" transform="translate(151,106)"/>
<path d="M0 0 C1.98 0 3.96 0 6 0 C6.33 0.99 6.66 1.98 7 3 C5.35 3.33 3.7 3.66 2 4 C1.34 2.68 0.68 1.36 0 0 Z " fill="#EDEDED" transform="translate(13,84)"/>
<path d="M0 0 C0.66 0.33 1.32 0.66 2 1 C2 1.66 2 2.32 2 3 C2.66 3 3.32 3 4 3 C4 3.66 4 4.32 4 5 C3.01 5 2.02 5 1 5 C0.34 4.34 -0.32 3.68 -1 3 C-1.99 2.67 -2.98 2.34 -4 2 C-2.125 0.9375 -2.125 0.9375 0 0 Z " fill="#E5E5E5" transform="translate(142,73)"/>
</svg>
