<?xml version="1.0" encoding="UTF-8"?>
<svg version="1.1" xmlns="http://www.w3.org/2000/svg" width="256" height="256">
<path d="M0 0 C84.48 0 168.96 0 256 0 C256 84.48 256 168.96 256 256 C171.52 256 87.04 256 0 256 C0 171.52 0 87.04 0 0 Z " fill="#FEFEFE" transform="translate(0,0)"/>
<path d="M0 0 C0.99 0 1.98 0 3 0 C3 0.66 3 1.32 3 2 C3.99 2.495 3.99 2.495 5 3 C4.34 3 3.68 3 3 3 C3 3.66 3 4.32 3 5 C2.01 5 1.02 5 0 5 C0 5.66 0 6.32 0 7 C-2.31 7.33 -4.62 7.66 -7 8 C-7 8.66 -7 9.32 -7 10 C-7.66 10 -8.32 10 -9 10 C-9.33 10.99 -9.66 11.98 -10 13 C-10.66 13 -11.32 13 -12 13 C-12 13.66 -12 14.32 -12 15 C-12.66 15 -13.32 15 -14 15 C-14.33 15.99 -14.66 16.98 -15 18 C-15.66 18 -16.32 18 -17 18 C-17 19.32 -17 20.64 -17 22 C-17.66 22 -18.32 22 -19 22 C-19.33 23.98 -19.66 25.96 -20 28 C-20.66 28 -21.32 28 -22 28 C-22 29.32 -22 30.64 -22 32 C-22.66 32 -23.32 32 -24 32 C-24 33.65 -24 35.3 -24 37 C-23.34 37 -22.68 37 -22 37 C-22 36.34 -22 35.68 -22 35 C-20.35 34.67 -18.7 34.34 -17 34 C-17 33.34 -17 32.68 -17 32 C-16.01 32 -15.02 32 -14 32 C-14 31.34 -14 30.68 -14 30 C-12.35 30 -10.7 30 -9 30 C-9 29.34 -9 28.68 -9 28 C-5.04 28 -1.08 28 3 28 C3 28.66 3 29.32 3 30 C2.34 30 1.68 30 1 30 C0.67 31.65 0.34 33.3 0 35 C-0.66 35 -1.32 35 -2 35 C-2 36.32 -2 37.64 -2 39 C-2.66 39 -3.32 39 -4 39 C-4 39.99 -4 40.98 -4 42 C-2.68 42 -1.36 42 0 42 C0 41.34 0 40.68 0 40 C4.29 40 8.58 40 13 40 C13 40.66 13 41.32 13 42 C13.66 42 14.32 42 15 42 C15.33 42.99 15.66 43.98 16 45 C15.505 45.99 15.505 45.99 15 47 C13.68 47 12.36 47 11 47 C10.67 47.99 10.34 48.98 10 50 C9.34 50 8.68 50 8 50 C8 51.65 8 53.3 8 55 C7.34 55 6.68 55 6 55 C6 60.61 6 66.22 6 72 C6.66 72 7.32 72 8 72 C8 71.01 8 70.02 8 69 C8.66 69 9.32 69 10 69 C10.495 67.02 10.495 67.02 11 65 C11.66 65 12.32 65 13 65 C13 62.36 13 59.72 13 57 C12.34 57 11.68 57 11 57 C11 56.34 11 55.68 11 55 C12.32 54.67 13.64 54.34 15 54 C15.33 54.99 15.66 55.98 16 57 C16.66 57 17.32 57 18 57 C18 57.66 18 58.32 18 59 C19.485 59.495 19.485 59.495 21 60 C21 60.66 21 61.32 21 62 C21.66 62 22.32 62 23 62 C23 62.99 23 63.98 23 65 C23.66 65 24.32 65 25 65 C25 66.32 25 67.64 25 69 C25.66 69 26.32 69 27 69 C27 69.99 27 70.98 27 72 C27.99 72 28.98 72 30 72 C30 72.66 30 73.32 30 74 C31.485 74.495 31.485 74.495 33 75 C33 76.32 33 77.64 33 79 C33.66 79 34.32 79 35 79 C35 80.65 35 82.3 35 84 C35.66 84 36.32 84 37 84 C37.33 87.63 37.66 91.26 38 95 C38.66 95 39.32 95 40 95 C40 97.97 40 100.94 40 104 C40.66 104 41.32 104 42 104 C42.83211276 109.03854106 43.1078534 113.8125662 43.0625 118.9375 C43.05798828 119.62134766 43.05347656 120.30519531 43.04882812 121.00976562 C43.0371956 122.67321604 43.01926694 124.3366205 43 126 C43.66 126 44.32 126 45 126 C45 126.99 45 127.98 45 129 C44.34 129 43.68 129 43 129 C43.01160156 130.16917969 43.02320313 131.33835938 43.03515625 132.54296875 C43.04453913 134.09114423 43.0536388 135.63932145 43.0625 137.1875 C43.07087891 137.95642578 43.07925781 138.72535156 43.08789062 139.51757812 C43.10491934 143.48526789 42.98604115 147.12571234 42 151 C41.34 151 40.68 151 40 151 C40 152.65 40 154.3 40 156 C39.34 156 38.68 156 38 156 C37.67 158.64 37.34 161.28 37 164 C36.34 164 35.68 164 35 164 C35 166.64 35 169.28 35 172 C34.34 172 33.68 172 33 172 C33.01160156 172.59167969 33.02320313 173.18335938 33.03515625 173.79296875 C33.08322386 178.00231785 33.06006883 181.8922333 32 186 C31.34 186 30.68 186 30 186 C30 187.65 30 189.3 30 191 C29.34 191 28.68 191 28 191 C27.505 194.96 27.505 194.96 27 199 C26.34 199 25.68 199 25 199 C25 199.66 25 200.32 25 201 C24.34 201 23.68 201 23 201 C23 202.65 23 204.3 23 206 C23.66 206 24.32 206 25 206 C25 206.66 25 207.32 25 208 C25.66 208 26.32 208 27 208 C27 209.65 27 211.3 27 213 C23.19752235 214.22512902 19.42673537 214.13364718 15.47753906 214.11352539 C14.3501255 214.11374443 14.3501255 214.11374443 13.19993591 214.1139679 C10.72180266 214.11327262 8.24374508 214.10549826 5.765625 214.09765625 C4.04498333 214.0957907 2.32434112 214.09436744 0.60369873 214.09336853 C-3.92052685 214.08955413 -8.44472023 214.07973302 -12.96893311 214.06866455 C-17.58735722 214.05842729 -22.20578655 214.05386595 -26.82421875 214.04882812 C-35.88282663 214.0381098 -44.94141064 214.02104629 -54 214 C-54 214.66 -54 215.32 -54 216 C-58.95 216 -63.9 216 -69 216 C-69 215.34 -69 214.68 -69 214 C-69.99 214 -70.98 214 -72 214 C-72.125 208.25 -72.125 208.25 -71 206 C-69.35 206 -67.7 206 -66 206 C-66.495 205.54625 -66.99 205.0925 -67.5 204.625 C-69 203 -69 203 -69 201 C-69.66 201 -70.32 201 -71 201 C-71 200.01 -71 199.02 -71 198 C-71.99 198 -72.98 198 -74 198 C-74 196.68 -74 195.36 -74 194 C-74.99 193.67 -75.98 193.34 -77 193 C-77 192.34 -77 191.68 -77 191 C-77.66 191 -78.32 191 -79 191 C-79 190.34 -79 189.68 -79 189 C-79.66 189 -80.32 189 -81 189 C-81.33 187.35 -81.66 185.7 -82 184 C-82.66 184 -83.32 184 -84 184 C-84 183.01 -84 182.02 -84 181 C-84.99 181 -85.98 181 -87 181 C-87 179.35 -87 177.7 -87 176 C-87.66 176 -88.32 176 -89 176 C-89 174.68 -89 173.36 -89 172 C-89.66 172 -90.32 172 -91 172 C-92.28317892 168.15046324 -92.06643637 165.05261865 -92 161 C-92.66 161 -93.32 161 -94 161 C-94 155.39 -94 149.78 -94 144 C-93.34 144 -92.68 144 -92 144 C-91.67 140.04 -91.34 136.08 -91 132 C-90.34 132 -89.68 132 -89 132 C-89 130.35 -89 128.7 -89 127 C-88.34 127 -87.68 127 -87 127 C-87 118.09 -87 109.18 -87 100 C-87.66 100 -88.32 100 -89 100 C-89 99.01 -89 98.02 -89 97 C-89.66 97 -90.32 97 -91 97 C-91.33 94.69 -91.66 92.38 -92 90 C-92.66 90 -93.32 90 -94 90 C-94 88.35 -94 86.7 -94 85 C-94.66 85 -95.32 85 -96 85 C-96 83.35 -96 81.7 -96 80 C-92.30458414 79.04975021 -89.69541586 79.04975021 -86 80 C-86 80.66 -86 81.32 -86 82 C-84.68 82 -83.36 82 -82 82 C-82 82.66 -82 83.32 -82 84 C-80.35 84 -78.7 84 -77 84 C-77 81.03 -77 78.06 -77 75 C-77.66 75 -78.32 75 -79 75 C-79 74.01 -79 73.02 -79 72 C-79.66 72 -80.32 72 -81 72 C-81.33 69.69 -81.66 67.38 -82 65 C-83.32 64.67 -84.64 64.34 -86 64 C-86.12375 63.360625 -86.2475 62.72125 -86.375 62.0625 C-86.58125 61.381875 -86.7875 60.70125 -87 60 C-87.66 59.67 -88.32 59.34 -89 59 C-89 58.34 -89 57.68 -89 57 C-86.36 57 -83.72 57 -81 57 C-81 57.66 -81 58.32 -81 59 C-78.03 59.33 -75.06 59.66 -72 60 C-72 60.66 -72 61.32 -72 62 C-71.01 62 -70.02 62 -69 62 C-69 62.66 -69 63.32 -69 64 C-68.34 64 -67.68 64 -67 64 C-67.01160156 63.05898437 -67.02320312 62.11796875 -67.03515625 61.1484375 C-67.04417969 59.90320313 -67.05320312 58.65796875 -67.0625 57.375 C-67.07410156 56.14523438 -67.08570312 54.91546875 -67.09765625 53.6484375 C-67.00863924 50.32276209 -66.63686087 47.25952412 -66 44 C-65.34 44 -64.68 44 -64 44 C-64 42.68 -64 41.36 -64 40 C-63.34 40 -62.68 40 -62 40 C-61.67 38.02 -61.34 36.04 -61 34 C-60.34 34 -59.68 34 -59 34 C-59 33.34 -59 32.68 -59 32 C-58.34 32 -57.68 32 -57 32 C-56.67 30.68 -56.34 29.36 -56 28 C-54.68 27.67 -53.36 27.34 -52 27 C-52 29.31 -52 31.62 -52 34 C-52.66 34 -53.32 34 -54 34 C-54 38.95 -54 43.9 -54 49 C-53.34 49 -52.68 49 -52 49 C-52 47.68 -52 46.36 -52 45 C-51.34 45 -50.68 45 -50 45 C-49.67 43.02 -49.34 41.04 -49 39 C-48.34 39 -47.68 39 -47 39 C-47 37.68 -47 36.36 -47 35 C-45.625 33.25 -45.625 33.25 -44 32 C-43.34 32 -42.68 32 -42 32 C-42 30.68 -42 29.36 -42 28 C-40.625 26.25 -40.625 26.25 -39 25 C-38.34 25 -37.68 25 -37 25 C-37 24.34 -37 23.68 -37 23 C-35.625 21.375 -35.625 21.375 -34 20 C-33.34 20 -32.68 20 -32 20 C-32 19.34 -32 18.68 -32 18 C-30.75 16.375 -30.75 16.375 -29 15 C-27.68 15 -26.36 15 -25 15 C-24.67 14.01 -24.34 13.02 -24 12 C-22.68 12 -21.36 12 -20 12 C-19.67 10.68 -19.34 9.36 -19 8 C-14.545 7.505 -14.545 7.505 -10 7 C-10 6.34 -10 5.68 -10 5 C-8.35 5 -6.7 5 -5 5 C-4.67 4.01 -4.34 3.02 -4 2 C-2.68 2 -1.36 2 0 2 C0 1.34 0 0.68 0 0 Z " fill="#000000" transform="translate(149,23)"/>
<path d="M0 0 C0.66 0 1.32 0 2 0 C2 1.65 2 3.3 2 5 C2.66 5 3.32 5 4 5 C4.82883889 11.97999406 5.15519959 18.84856223 5.125 25.875 C5.13080078 27.25945312 5.13080078 27.25945312 5.13671875 28.671875 C5.13542969 29.56132812 5.13414062 30.45078125 5.1328125 31.3671875 C5.13168457 32.16237793 5.13055664 32.95756836 5.12939453 33.77685547 C5.00163119 35.97197424 4.60618659 37.89128936 4 40 C3.34 40 2.68 40 2 40 C2 41.98 2 43.96 2 46 C7.94 45.505 7.94 45.505 14 45 C14.33 43.68 14.66 42.36 15 41 C16.98 40.505 16.98 40.505 19 40 C19.495 44.95 19.495 44.95 20 50 C21.65 50 23.3 50 25 50 C25 49.34 25 48.68 25 48 C26.32 48 27.64 48 29 48 C29.33 47.01 29.66 46.02 30 45 C30.66 45 31.32 45 32 45 C32 44.34 32 43.68 32 43 C32.66 43 33.32 43 34 43 C34 42.34 34 41.68 34 41 C34.99 41 35.98 41 37 41 C37 46.61 37 52.22 37 58 C36.34 58 35.68 58 35 58 C34.67 60.31 34.34 62.62 34 65 C33.34 65 32.68 65 32 65 C32 65.66 32 66.32 32 67 C31.01 67.495 31.01 67.495 30 68 C29.34786708 70.02463255 29.34786708 70.02463255 29 72 C28.360625 72.12375 27.72125 72.2475 27.0625 72.375 C26.0415625 72.684375 26.0415625 72.684375 25 73 C24.67 73.66 24.34 74.32 24 75 C23.34 75 22.68 75 22 75 C22 75.66 22 76.32 22 77 C19.525 77.495 19.525 77.495 17 78 C17 78.66 17 79.32 17 80 C16.34 80 15.68 80 15 80 C15 80.66 15 81.32 15 82 C11.57767028 83.14077657 8.91326783 83.09815117 5.3125 83.0625 C4.13300781 83.05347656 2.95351562 83.04445313 1.73828125 83.03515625 C0.38283203 83.01775391 0.38283203 83.01775391 -1 83 C-0.505 81.515 -0.505 81.515 0 80 C-4.95 80 -9.9 80 -15 80 C-15 79.34 -15 78.68 -15 78 C-18.3 77.67 -21.6 77.34 -25 77 C-25.33 75.68 -25.66 74.36 -26 73 C-27.32 72.67 -28.64 72.34 -30 72 C-30 71.34 -30 70.68 -30 70 C-30.66 70 -31.32 70 -32 70 C-32.33 67.69 -32.66 65.38 -33 63 C-33.66 63 -34.32 63 -35 63 C-35 61.35 -35 59.7 -35 58 C-35.66 58 -36.32 58 -37 58 C-37 52.06 -37 46.12 -37 40 C-36.34 40 -35.68 40 -35 40 C-35 40.99 -35 41.98 -35 43 C-34.34 43 -33.68 43 -33 43 C-31.375 44.375 -31.375 44.375 -30 46 C-30 46.66 -30 47.32 -30 48 C-29.34 48 -28.68 48 -28 48 C-28 48.66 -28 49.32 -28 50 C-27.01 50.33 -26.02 50.66 -25 51 C-25 52.32 -25 53.64 -25 55 C-23.35 55.33 -21.7 55.66 -20 56 C-20 56.66 -20 57.32 -20 58 C-19.34 58 -18.68 58 -18 58 C-18 57.34 -18 56.68 -18 56 C-16.75 54.375 -16.75 54.375 -15 53 C-13.68 53 -12.36 53 -11 53 C-10.67 52.01 -10.34 51.02 -10 50 C-9.34 50 -8.68 50 -8 50 C-8 49.34 -8 48.68 -8 48 C-7.34 48 -6.68 48 -6 48 C-5.67 45.69 -5.34 43.38 -5 41 C-4.34 41 -3.68 41 -3 41 C-3 39.02 -3 37.04 -3 35 C-2.34 35 -1.68 35 -1 35 C-0.67 23.45 -0.34 11.9 0 0 Z " fill="#FDFDFD" transform="translate(125,144)"/>
<path d="M0 0 C0.66 0 1.32 0 2 0 C2 2.97 2 5.94 2 9 C1.34 9 0.68 9 0 9 C0 10.65 0 12.3 0 14 C-0.66 14 -1.32 14 -2 14 C-2 19.61 -2 25.22 -2 31 C-1.34 31.33 -0.68 31.66 0 32 C-1.65 31.67 -3.3 31.34 -5 31 C-5 25.39 -5 19.78 -5 14 C-4.34 14 -3.68 14 -3 14 C-2.67 10.04 -2.34 6.08 -2 2 C-1.34 2 -0.68 2 0 2 C0 1.34 0 0.68 0 0 Z " fill="#FCFCFC" transform="translate(85,113)"/>
<path d="M0 0 C0.66 0 1.32 0 2 0 C2 0.66 2 1.32 2 2 C2.66 2 3.32 2 4 2 C5.1577506 5.47325181 5.06866652 8.36067448 5 12 C5.66 12 6.32 12 7 12 C7 15.3 7 18.6 7 22 C6.34 22 5.68 22 5 22 C5 23.65 5 25.3 5 27 C4.01 26.67 3.02 26.34 2 26 C2 24.68 2 23.36 2 22 C2.66 22 3.32 22 4 22 C4 18.04 4 14.08 4 10 C3.34 10 2.68 10 2 10 C2 9.01 2 8.02 2 7 C1.34 7 0.68 7 0 7 C-1.125 2.25 -1.125 2.25 0 0 Z " fill="#FCFCFC" transform="translate(165,113)"/>
<path d="M0 0 C0.33 0 0.66 0 1 0 C1 5.61 1 11.22 1 17 C1.66 17 2.32 17 3 17 C3 19.31 3 21.62 3 24 C3.66 24.33 4.32 24.66 5 25 C3.35 24.67 1.7 24.34 0 24 C0 21.69 0 19.38 0 17 C-0.66 17 -1.32 17 -2 17 C-2 12.05 -2 7.1 -2 2 C-1.34 2 -0.68 2 0 2 C0 1.34 0 0.68 0 0 Z " fill="#FDFDFD" transform="translate(129,98)"/>
</svg>
