<?xml version="1.0" encoding="UTF-8"?>
<svg version="1.1" xmlns="http://www.w3.org/2000/svg" width="256" height="256">
<path d="M0 0 C84.48 0 168.96 0 256 0 C256 84.48 256 168.96 256 256 C171.52 256 87.04 256 0 256 C0 171.52 0 87.04 0 0 Z " fill="#FEFEFE" transform="translate(0,0)"/>
<path d="M0 0 C1.4783226 2.95664519 1.06032783 5.74229737 1 9 C-2.78087971 11.36552422 -6.78745138 11.6426934 -11.125 12.0625 C-11.94178223 12.14556396 -12.75856445 12.22862793 -13.60009766 12.31420898 C-23.05248059 13.20513331 -32.53020246 13.46960231 -42.015625 13.78125 C-48.36373946 13.99563285 -54.6758648 14.39831102 -61 15 C-60.84051901 16.92686038 -60.84051901 16.92686038 -60 19 C-57.96296977 20.49424687 -57.96296977 20.49424687 -55.5 21.625 C-51.09263158 23.81473684 -51.09263158 23.81473684 -50 26 C-49.42351739 33.03308785 -49.42351739 33.03308785 -51.59765625 36.6796875 C-54.63676718 39.61502391 -56.59301072 39.85523118 -60.75 40.3125 C-61.92046875 40.45300781 -63.0909375 40.59351563 -64.296875 40.73828125 C-65.18890625 40.82464844 -66.0809375 40.91101563 -67 41 C-64.05894634 42.96070244 -61.12787352 44.40987735 -57.9375 45.90234375 C-55.86937002 47.0740061 -54.48198439 48.14061586 -53 50 C-52.86712814 53.52110429 -53.128281 55.89465026 -55.35546875 58.71875 C-59.56563224 62.64952049 -63.37837875 64.01375066 -69 65 C-69 65.99 -69 66.98 -69 68 C-68.34 68 -67.68 68 -67 68 C-64.90308431 70.71822404 -63.94523441 72.21502648 -64.1875 75.6875 C-65 78 -65 78 -67 80 C-68.83930969 80.26069641 -68.83930969 80.26069641 -71.0949707 80.2746582 C-71.93957352 80.28419022 -72.78417633 80.29372223 -73.65437317 80.30354309 C-74.56893784 80.30263168 -75.4835025 80.30172028 -76.42578125 80.30078125 C-77.36552292 80.30506638 -78.30526459 80.3093515 -79.27348328 80.31376648 C-81.26491489 80.31951696 -83.25636752 80.32000478 -85.24780273 80.31567383 C-88.28991816 80.31252339 -91.33105246 80.33593091 -94.37304688 80.36132812 C-96.30729044 80.36360204 -98.24153662 80.36430418 -100.17578125 80.36328125 C-101.08427322 80.372491 -101.9927652 80.38170074 -102.92878723 80.39118958 C-107.79526872 80.35569755 -111.0123553 80.12352596 -115 77 C-115 77.99 -115 78.98 -115 80 C-122.11666802 80.05088279 -129.23328876 80.08581026 -136.35009766 80.10986328 C-138.7690608 80.1198951 -141.1880119 80.13352371 -143.60693359 80.15087891 C-147.09215273 80.17525107 -150.57721093 80.18651158 -154.0625 80.1953125 C-155.13677246 80.20563507 -156.21104492 80.21595764 -157.31787109 80.22659302 C-171.55307278 80.22870031 -171.55307278 80.22870031 -176.05859375 76.125 C-176.74115234 75.073125 -176.74115234 75.073125 -177.4375 74 C-178.14712891 72.948125 -178.14712891 72.948125 -178.87109375 71.875 C-183.86421397 63.58192836 -180.74596898 50.81598175 -179.71166992 41.53881836 C-179.14538125 36.2223611 -178.89690926 31.0310369 -179 25.6875 C-179.26752453 3.63902029 -179.26752453 3.63902029 -173 -5 C-164.71252712 -8.73748777 -154.40823487 -8.12664681 -145.48046875 -8.02734375 C-143.17969095 -8.01310264 -140.87890941 -7.99945695 -138.578125 -7.98632812 C-137.37349609 -7.97802979 -136.16886719 -7.96973145 -134.92773438 -7.96118164 C-111.61479743 -7.81357362 -88.38332238 -8.23069473 -65.09448242 -9.28881836 C-14.66218208 -11.5754069 -14.66218208 -11.5754069 0 0 Z " fill="#000000" transform="translate(218,67)"/>
<path d="M0 0 C4.0535969 0.70107862 5.43165245 2.41854101 7.80639648 5.76049805 C8.26216064 6.43765869 8.7179248 7.11481934 9.1875 7.8125 C9.66582275 8.51737549 10.14414551 9.22225098 10.63696289 9.94848633 C18.59105487 22.08602711 24.48563473 35.92162007 28 50 C28.18949219 50.73863281 28.37898438 51.47726563 28.57421875 52.23828125 C29.2167242 56.40572484 29.26577839 60.53882511 29.3125 64.75 C29.34150391 65.6059375 29.37050781 66.461875 29.40039062 67.34375 C29.49493636 76.9437787 25.60317819 85.07542818 19 92 C10.29726109 99.0193624 1.2665156 102.46700583 -10 102 C-13.3125 100.4375 -13.3125 100.4375 -16 98 C-16.66773438 97.57460937 -17.33546875 97.14921875 -18.0234375 96.7109375 C-22.91738107 93.54842523 -25.01039584 90.88190686 -26.52734375 85.24609375 C-26.68332031 84.50488281 -26.83929688 83.76367188 -27 83 C-27.16983398 82.23453857 -27.33966797 81.46907715 -27.51464844 80.68041992 C-29.62912844 69.00291695 -29.71881975 54.55411398 -24 44 C-23.41734375 42.89527344 -22.8346875 41.79054687 -22.234375 40.65234375 C-21.23749993 38.77593202 -20.23248511 36.90579315 -19.20507812 35.04589844 C-16.47557502 30.07018957 -14.21206982 24.97282131 -12 19.75 C-8.84579179 12.36271884 -5.14895241 6.21708616 0 0 Z " fill="#050505" transform="translate(210,103)"/>
<path d="M0 0 C4.18228036 1.30696261 7.13088814 3.5049069 10.54296875 6.140625 C13.58197153 8.44041089 16.68594927 10.63390208 19.8125 12.8125 C20.37582031 13.20961182 20.93914062 13.60672363 21.51953125 14.01586914 C26.41604801 17.41680018 29.30162761 18.13085601 35.19921875 17.66015625 C37.01196289 17.5199707 37.01196289 17.5199707 38.86132812 17.37695312 C40.12396484 17.27318359 41.38660156 17.16941406 42.6875 17.0625 C43.96173828 16.96259766 45.23597656 16.86269531 46.54882812 16.75976562 C49.69969088 16.51194496 52.8499956 16.25846677 56 16 C56.1846582 17.1907312 56.1846582 17.1907312 56.37304688 18.40551758 C56.74225092 21.14460498 56.74225092 21.14460498 59.03125 22.51171875 C59.8459375 22.89972656 60.660625 23.28773437 61.5 23.6875 C65.91640543 25.83281087 65.91640543 25.83281087 67 28 C67.57648261 35.03308785 67.57648261 35.03308785 65.40234375 38.6796875 C62.36323282 41.61502391 60.40698928 41.85523118 56.25 42.3125 C55.07953125 42.45300781 53.9090625 42.59351563 52.703125 42.73828125 C51.81109375 42.82464844 50.9190625 42.91101563 50 43 C52.94105366 44.96070244 55.87212648 46.40987735 59.0625 47.90234375 C61.13062998 49.0740061 62.51801561 50.14061586 64 52 C64.13287186 55.52110429 63.871719 57.89465026 61.64453125 60.71875 C57.43436776 64.64952049 53.62162125 66.01375066 48 67 C48 67.99 48 68.98 48 70 C48.66 70 49.32 70 50 70 C52.09691569 72.71822404 53.05476559 74.21502648 52.8125 77.6875 C52 80 52 80 50 82 C48.16069031 82.26069641 48.16069031 82.26069641 45.9050293 82.2746582 C45.06042648 82.28419022 44.21582367 82.29372223 43.34562683 82.30354309 C42.43106216 82.30263168 41.5164975 82.30172028 40.57421875 82.30078125 C39.63447708 82.30506638 38.69473541 82.3093515 37.72651672 82.31376648 C35.73508511 82.31951696 33.74363248 82.32000478 31.75219727 82.31567383 C28.71008184 82.31252339 25.66894754 82.33593091 22.62695312 82.36132812 C20.69270956 82.36360204 18.75846338 82.36430418 16.82421875 82.36328125 C15.91572678 82.372491 15.0072348 82.38170074 14.07121277 82.39118958 C7.95294518 82.34656808 4.44383355 81.44383355 0 77 C-0.625 74.6875 -0.625 74.6875 0 72 C4.98910898 67.37693978 11.55663416 65.62404508 18 64 C16.77023438 63.75765625 15.54046875 63.5153125 14.2734375 63.265625 C12.64048232 62.9277722 11.00767754 62.58919192 9.375 62.25 C8.16263672 62.01410156 8.16263672 62.01410156 6.92578125 61.7734375 C1.75916056 60.6813063 -1.85066262 59.29986674 -6 56 C-7.0625 54.1875 -7.0625 54.1875 -7 52 C-5.60829873 47.21602687 -3.81784175 43.7290969 0.484375 40.8671875 C6.32293309 38.85451685 12.91599582 39.67133231 19 40 C18.24976563 39.70867187 17.49953125 39.41734375 16.7265625 39.1171875 C8.88392371 35.97618103 1.74358795 32.31204087 -5.1875 27.47265625 C-6.2084375 26.77462891 -6.2084375 26.77462891 -7.25 26.0625 C-7.83265625 25.64097656 -8.4153125 25.21945313 -9.015625 24.78515625 C-12.85125094 23.26751685 -16.30582803 24.73245455 -20 26.15625 C-20.99 26.5996875 -21.98 27.043125 -23 27.5 C-27.03184786 29.30593186 -30.61235453 30.42542738 -35 31 C-35 30.34 -35 29.68 -35 29 C-33.71416016 28.51080078 -33.71416016 28.51080078 -32.40234375 28.01171875 C-25.13275414 25.2642816 -25.13275414 25.2642816 -18 22.1875 C-14.92159524 20.96896478 -13.25696554 20.70662448 -10 21 C-8.03515625 22.03125 -8.03515625 22.03125 -6.0625 23.5 C-2.10034489 26.28744581 1.93611785 28.82359822 6.125 31.25 C7.83042969 32.24773437 7.83042969 32.24773437 9.5703125 33.265625 C16.10968848 36.57255317 21.76270679 37.28484972 28.9375 37.125 C30.10635742 37.11146484 30.10635742 37.11146484 31.29882812 37.09765625 C33.19935447 37.07433691 35.09972008 37.03847586 37 37 C37.2686668 31.58060676 36.49483853 29.20526872 33.14453125 25.0625 C29.70276456 21.75238559 25.71237494 19.53803025 21.59765625 17.15234375 C17.71571612 14.88476044 14.07847103 12.32018735 10.4375 9.6875 C9.85419922 9.26678223 9.27089844 8.84606445 8.66992188 8.41259766 C7.10894349 7.28102494 5.55421789 6.14084051 4 5 C3.20722656 4.44957031 2.41445312 3.89914063 1.59765625 3.33203125 C1.07042969 2.89246094 0.54320312 2.45289062 0 2 C0 1.34 0 0.68 0 0 Z " fill="#FAFAFA" transform="translate(101,65)"/>
<path d="M0 0 C0.969375 0.02433105 1.93875 0.04866211 2.9375 0.07373047 C4.63712891 0.14164795 4.63712891 0.14164795 6.37109375 0.2109375 C7.73957211 0.25571535 9.10806247 0.30012745 10.4765625 0.34423828 C14.33042412 0.47752822 18.18113694 0.65339259 22.0324707 0.84570312 C23.63467907 0.92259609 25.23725129 0.99224566 26.84008789 1.0546875 C37.20289136 1.46078165 46.1976002 2.04741859 55.05859375 8.0234375 C56.37109375 10.2109375 56.37109375 10.2109375 56.55859375 13.5859375 C54.97800333 18.41089773 52.78490234 20.74393377 48.37109375 23.2109375 C45.06405767 24.21554584 41.80086228 24.81068282 38.37109375 25.2109375 C38.37109375 24.5509375 38.37109375 23.8909375 38.37109375 23.2109375 C37.52933594 23.11296875 36.68757813 23.015 35.8203125 22.9140625 C26.61501846 21.80522127 17.4270117 20.56800056 8.24609375 19.2734375 C7.07264404 19.11584961 5.89919434 18.95826172 4.69018555 18.79589844 C-7.84636183 16.99348192 -7.84636183 16.99348192 -12.62890625 12.2109375 C-12.69996695 9.08426662 -12.22739827 7.04019604 -10.3828125 4.484375 C-7.15376909 1.21661404 -4.61361261 -0.13489827 0 0 Z " fill="#010101" transform="translate(108.62890625,106.7890625)"/>
<path d="M0 0 C1.72476563 -0.03673828 1.72476563 -0.03673828 3.484375 -0.07421875 C10.22068999 -0.09750094 14.56926546 0.26423566 20 4.375 C22.30408315 7.18310134 23.06592264 8.43010884 22.8125 12.0625 C22 14.375 22 14.375 20 16.375 C18.16069031 16.63569641 18.16069031 16.63569641 15.9050293 16.6496582 C15.06042648 16.65919022 14.21582367 16.66872223 13.34562683 16.67854309 C12.43106216 16.67763168 11.5164975 16.67672028 10.57421875 16.67578125 C9.63447708 16.68006638 8.69473541 16.6843515 7.72651672 16.68876648 C5.73508511 16.69451696 3.74363248 16.69500478 1.75219727 16.69067383 C-1.28991816 16.68752339 -4.33105246 16.71093091 -7.37304688 16.73632812 C-9.30729044 16.73860204 -11.24153662 16.73930418 -13.17578125 16.73828125 C-14.08427322 16.747491 -14.9927652 16.75670074 -15.92878723 16.76618958 C-20.71619171 16.73127427 -24.19191749 16.63296748 -28 13.375 C-28.8125 10.5 -28.8125 10.5 -28 7.375 C-20.06202265 0.07525198 -10.17222921 0.01140384 0 0 Z " fill="#010101" transform="translate(131,130.625)"/>
<path d="M0 0 C25.19446 -0.88834531 25.19446 -0.88834531 33.25 5.89453125 C35.448856 8.54002987 35.565356 10.64006227 35.39453125 14.03125 C34.77046201 17.14541729 33.2713218 18.85846802 31 21 C27.54587017 22.15137661 24.84965642 22.12947785 21.20703125 22.1328125 C20.20974251 22.13424759 20.20974251 22.13424759 19.19230652 22.13571167 C17.784372 22.13639176 16.37643434 22.1345494 14.96850586 22.13037109 C12.83765393 22.12506266 10.70701688 22.1302998 8.57617188 22.13671875 C1.97806172 22.13962553 -4.47743472 22.06594452 -11 21 C-11 20.67 -11 20.34 -11 20 C-9.67935547 19.94392578 -9.67935547 19.94392578 -8.33203125 19.88671875 C-6.58986328 19.78810547 -6.58986328 19.78810547 -4.8125 19.6875 C-3.66394531 19.62949219 -2.51539063 19.57148437 -1.33203125 19.51171875 C2.14680104 18.97745494 4.14531638 18.0052674 7 16 C6.56232753 10.52909415 5.283511 7.37801467 2 3 C1.34 2.01 0.68 1.02 0 0 Z " fill="#010101" transform="translate(133,85)"/>
<path d="M0 0 C0.33 0 0.66 0 1 0 C1 4.95 1 9.9 1 15 C6.61 15 12.22 15 18 15 C17.67 15.66 17.34 16.32 17 17 C11.72 17 6.44 17 1 17 C1 19.64 1 22.28 1 25 C0.77571014 27.3710642 0.39204684 29.64771895 0 32 C-0.66 32 -1.32 32 -2 32 C-1.67 27.05 -1.34 22.1 -1 17 C-6.94 17.33 -12.88 17.66 -19 18 C-19 17.34 -19 16.68 -19 16 C-13.03325384 14.67405641 -7.07416385 14.9115413 -1 15 C-1.01160156 14.00097656 -1.02320313 13.00195312 -1.03515625 11.97265625 C-1.04417969 10.68230469 -1.05320313 9.39195312 -1.0625 8.0625 C-1.07410156 6.77472656 -1.08570313 5.48695313 -1.09765625 4.16015625 C-1 1 -1 1 0 0 Z " fill="#FBFBFB" transform="translate(214,132)"/>
</svg>
