<?xml version="1.0" encoding="UTF-8"?>
<svg version="1.1" xmlns="http://www.w3.org/2000/svg" width="256" height="256">
<path d="M0 0 C84.48 0 168.96 0 256 0 C256 84.48 256 168.96 256 256 C171.52 256 87.04 256 0 256 C0 171.52 0 87.04 0 0 Z " fill="#FDFDFD" transform="translate(0,0)"/>
<path d="M0 0 C0 0.66 0 1.32 0 2 C-0.75023438 2.21914062 -1.50046875 2.43828125 -2.2734375 2.6640625 C-19.07244127 7.86879163 -32.90329531 18.52338191 -44 32 C-42.27144074 34.14567913 -42.27144074 34.14567913 -40 36 C-36.01448947 36.05681991 -33.5225855 33.07604053 -30.6875 30.5625 C-9.22598522 12 -9.22598522 12 -2 12 C-2 12.66 -2 13.32 -2 14 C-4.14281033 15.46582355 -6.26706396 16.81123514 -8.5 18.125 C-9.12003906 18.49753906 -9.74007812 18.87007812 -10.37890625 19.25390625 C-11.91537838 20.17578953 -13.45720675 21.08873475 -15 22 C-14.278125 22.495 -13.55625 22.99 -12.8125 23.5 C-5.56519574 29.94204823 -2.85656509 38.96687335 0.375 47.875 C0.83777344 49.10992187 1.30054687 50.34484375 1.77734375 51.6171875 C4.26905528 58.4005932 4.26905528 58.4005932 5 61 C4 63 4 63 3 64 C3.99 64 4.98 64 6 64 C6.34611328 65.28583984 6.34611328 65.28583984 6.69921875 66.59765625 C8.63970297 73.40085585 10.58716624 78.48395781 15 84 C15 84.66 15 85.32 15 86 C15.99 85.34 16.98 84.68 18 84 C17.60167969 83.45472656 17.20335937 82.90945312 16.79296875 82.34765625 C11.41852713 74.69790359 7.94553332 67.49020008 9 58 C11.07322122 50.93722637 16.14375324 46.20701706 22 42 C29.67402507 38.45633705 37.05095201 38.35031734 45 41 C52.46993296 44.45228786 56.58316682 49.60499676 60 57 C62.38555122 64.55180631 61.29840931 71.66700032 58.15625 78.79296875 C56.74055278 81.49522866 55.08032279 83.77108272 53 86 C56.58327753 87.00217064 56.58327753 87.00217064 60 86 C60.1546875 85.13375 60.1546875 85.13375 60.3125 84.25 C61.12162883 81.60194201 62.46142196 80.43713496 64.44921875 78.578125 C66.28072913 76.71432099 67.79374412 74.70578116 69.375 72.625 C73.17856359 67.81247584 77.31992599 63.42218827 81.625 59.0625 C82.25841309 58.41168457 82.89182617 57.76086914 83.54443359 57.09033203 C87.92977154 52.70957527 91.84529348 49.30333717 98.25 48.6875 C101 49 101 49 103 51 C103.125 54.125 103.125 54.125 103 57 C101.68 57.66 100.36 58.32 99 59 C99 59.66 99 60.32 99 61 C97.3615131 62.69437783 95.68870806 64.35567016 94 66 C92.24132621 67.98279264 90.51468319 69.97077102 88.8125 72 C88.37486328 72.50789063 87.93722656 73.01578125 87.48632812 73.5390625 C84.96513142 76.54140362 83.22689421 79.27133826 82 83 C83.010625 82.9175 84.02125 82.835 85.0625 82.75 C92.81584789 82.73608017 103.11292917 84.81164717 109 90 C108.67 90.99 108.34 91.98 108 93 C107.47792969 92.81824219 106.95585937 92.63648438 106.41796875 92.44921875 C103.95305716 91.60743633 101.47880261 90.7999609 99 90 C98.09894531 89.70222656 97.19789063 89.40445313 96.26953125 89.09765625 C89.98532726 87.17428211 85.47648099 86.95540629 79 88 C78.67 87.67 78.34 87.34 78 87 C71.30779741 86.43045084 64.83234571 87.99224535 58.875 91.11328125 C55.98308945 92.48091395 54.05383109 91.77842753 51 91 C48.64583651 90.05007438 46.31104818 89.05047644 44 88 C42.3357865 87.32723284 40.67013418 86.65793165 39 86 C38.67 86.99 38.34 87.98 38 89 C37.01 88.67 36.02 88.34 35 88 C35 87.01 35 86.02 35 85 C31.37 85 27.74 85 24 85 C23.67 86.65 23.34 88.3 23 90 C21.35 90.33 19.7 90.66 18 91 C18 90.01 18 89.02 18 88 C16.948125 88.680625 15.89625 89.36125 14.8125 90.0625 C12.34454843 91.45786095 11.26130857 92 8.375 92 C5.46207636 90.77350584 3.45425562 88.98677836 1 87 C-5.72376628 82.85129315 -12.3947528 83.78515745 -20 85 C-25.9061207 86.4577448 -30.6238225 88.50092104 -35.375 92.3125 C-38.71096899 94.97180185 -38.71096899 94.97180185 -41.5625 95.25 C-43.91812999 94.04198462 -45.27996908 92.85912796 -47.1875 91.0625 C-51.39260027 87.30243194 -55.3949223 86.14750204 -61 86 C-69.30771442 86.73582613 -74.15911271 90.28695401 -79.90625 96.13671875 C-82 98 -82 98 -85 98 C-78.91936727 90.34220316 -72.84000846 84.93285881 -63 83 C-53.9962968 81.96678816 -47.43641552 86.29027017 -40 91 C-39.57332031 90.61328125 -39.14664063 90.2265625 -38.70703125 89.828125 C-28.75491815 81.53811738 -17.58047791 80.3209937 -5 81 C-5.61101562 79.87464844 -6.22203125 78.74929687 -6.8515625 77.58984375 C-9.12653013 73.03490637 -10.28117347 68.51242967 -11.375 63.5625 C-12.94428946 56.78241323 -14.86883866 50.36490141 -17.375 43.875 C-19.74454314 37.66143522 -20.76436967 32.52816778 -19 26 C-23.94515667 28.62711448 -27.87775489 32.26645294 -32 36 C-29.59454362 37.20272819 -28.05003047 37.10071472 -25.375 37.0625 C-24.55773437 37.05347656 -23.74046875 37.04445312 -22.8984375 37.03515625 C-22.27195312 37.02355469 -21.64546875 37.01195312 -21 37 C-21 37.66 -21 38.32 -21 39 C-22.03898437 39.01675781 -23.07796875 39.03351563 -24.1484375 39.05078125 C-31.6988858 39.41796804 -37.12041075 40.01131285 -42.5 45.8125 C-44.06152854 47.82881715 -45.56165656 49.89403837 -47 52 C-47.73992188 53.04285156 -48.47984375 54.08570313 -49.2421875 55.16015625 C-54.04443081 62.39870249 -56.9078504 69.59010917 -59 78 C-59.66 78 -60.32 78 -61 78 C-59.75965332 63.73601315 -51.07272074 52.49487841 -42.25 41.7421875 C-40.80567994 40.08653789 -40.80567994 40.08653789 -41 38 C-43.81509993 35.7226499 -43.81509993 35.7226499 -47 36 C-47.81498562 37.6029053 -48.62689927 39.20737278 -49.4375 40.8125 C-49.88996094 41.70582031 -50.34242187 42.59914062 -50.80859375 43.51953125 C-52.0831605 46.03999478 -52.0831605 46.03999478 -53 49 C-53.66 49 -54.32 49 -55 49 C-54.40075776 44.80530429 -53.42500059 40.99000166 -52 37 C-57.66781474 36.65299093 -61.04562817 37.47424181 -66 40 C-66.66 40.66 -67.32 41.32 -68 42 C-71.03060812 41.75427502 -72.82605429 41.11443797 -75.375 39.4375 C-78.90347428 37.50524028 -81.01142194 37.52677887 -85 38 C-89.8155697 39.75849455 -93.63404296 42.07305012 -97 46 C-97.66 45.67 -98.32 45.34 -99 45 C-94.29555205 39.09923195 -90.80629402 35.23621708 -83.0625 34.125 C-78.51170198 33.75985424 -75.98717285 34.72161551 -72 37 C-69.26032472 36.82324676 -67.52775093 35.75885154 -65.0625 34.5 C-61.52160774 32.85466034 -58.62109622 32.99361928 -54.75 33.0625 C-49.74970689 32.78851134 -47.24176166 31.89491931 -43.82788086 28.15112305 C-42.4748645 26.5324289 -41.1366903 24.90236236 -39.80078125 23.26953125 C-31.24979628 12.89854238 -13.5627653 0 0 0 Z " fill="#050505" transform="translate(111,71)"/>
<path d="M0 0 C0 0.66 0 1.32 0 2 C-0.75023438 2.21914062 -1.50046875 2.43828125 -2.2734375 2.6640625 C-19.07244127 7.86879163 -32.90329531 18.52338191 -44 32 C-42.27144074 34.14567913 -42.27144074 34.14567913 -40 36 C-36.01448947 36.05681991 -33.5225855 33.07604053 -30.6875 30.5625 C-9.22598522 12 -9.22598522 12 -2 12 C-2 12.66 -2 13.32 -2 14 C-4.14281033 15.46582355 -6.26706396 16.81123514 -8.5 18.125 C-9.12003906 18.49753906 -9.74007812 18.87007812 -10.37890625 19.25390625 C-11.91537838 20.17578953 -13.45720675 21.08873475 -15 22 C-14.278125 22.495 -13.55625 22.99 -12.8125 23.5 C-5.56519574 29.94204823 -2.85656509 38.96687335 0.375 47.875 C0.83777344 49.10992187 1.30054687 50.34484375 1.77734375 51.6171875 C4.26905528 58.4005932 4.26905528 58.4005932 5 61 C4 63 4 63 3 64 C3.99 64 4.98 64 6 64 C6.34611328 65.28583984 6.34611328 65.28583984 6.69921875 66.59765625 C8.63970297 73.40085585 10.58716624 78.48395781 15 84 C15 84.66 15 85.32 15 86 C16.65 85.67 18.3 85.34 20 85 C20 85.99 20 86.98 20 88 C11.30434783 92 11.30434783 92 7 92 C5.47418525 90.83129083 3.95270103 89.64946795 2.53515625 88.3515625 C-2.31717107 84.07953895 -6.48984097 83.78229638 -12.75 84.0625 C-21.33507413 84.91918468 -28.5853892 86.86561074 -35.375 92.3125 C-38.71096899 94.97180185 -38.71096899 94.97180185 -41.5625 95.25 C-43.91812999 94.04198462 -45.27996908 92.85912796 -47.1875 91.0625 C-51.39260027 87.30243194 -55.3949223 86.14750204 -61 86 C-69.30771442 86.73582613 -74.15911271 90.28695401 -79.90625 96.13671875 C-82 98 -82 98 -85 98 C-78.91936727 90.34220316 -72.84000846 84.93285881 -63 83 C-53.9962968 81.96678816 -47.43641552 86.29027017 -40 91 C-39.57332031 90.61328125 -39.14664063 90.2265625 -38.70703125 89.828125 C-28.75491815 81.53811738 -17.58047791 80.3209937 -5 81 C-5.61101562 79.87464844 -6.22203125 78.74929687 -6.8515625 77.58984375 C-9.12653013 73.03490637 -10.28117347 68.51242967 -11.375 63.5625 C-12.94428946 56.78241323 -14.86883866 50.36490141 -17.375 43.875 C-19.74454314 37.66143522 -20.76436967 32.52816778 -19 26 C-23.94515667 28.62711448 -27.87775489 32.26645294 -32 36 C-29.59454362 37.20272819 -28.05003047 37.10071472 -25.375 37.0625 C-24.55773437 37.05347656 -23.74046875 37.04445312 -22.8984375 37.03515625 C-22.27195312 37.02355469 -21.64546875 37.01195312 -21 37 C-21 37.66 -21 38.32 -21 39 C-22.03898437 39.01675781 -23.07796875 39.03351563 -24.1484375 39.05078125 C-31.6988858 39.41796804 -37.12041075 40.01131285 -42.5 45.8125 C-44.06152854 47.82881715 -45.56165656 49.89403837 -47 52 C-47.73992188 53.04285156 -48.47984375 54.08570313 -49.2421875 55.16015625 C-54.04443081 62.39870249 -56.9078504 69.59010917 -59 78 C-59.66 78 -60.32 78 -61 78 C-59.75965332 63.73601315 -51.07272074 52.49487841 -42.25 41.7421875 C-40.80567994 40.08653789 -40.80567994 40.08653789 -41 38 C-43.81509993 35.7226499 -43.81509993 35.7226499 -47 36 C-47.81498562 37.6029053 -48.62689927 39.20737278 -49.4375 40.8125 C-49.88996094 41.70582031 -50.34242187 42.59914062 -50.80859375 43.51953125 C-52.0831605 46.03999478 -52.0831605 46.03999478 -53 49 C-53.66 49 -54.32 49 -55 49 C-54.40075776 44.80530429 -53.42500059 40.99000166 -52 37 C-57.66781474 36.65299093 -61.04562817 37.47424181 -66 40 C-66.66 40.66 -67.32 41.32 -68 42 C-71.03060812 41.75427502 -72.82605429 41.11443797 -75.375 39.4375 C-78.90347428 37.50524028 -81.01142194 37.52677887 -85 38 C-89.8155697 39.75849455 -93.63404296 42.07305012 -97 46 C-97.66 45.67 -98.32 45.34 -99 45 C-94.29555205 39.09923195 -90.80629402 35.23621708 -83.0625 34.125 C-78.51170198 33.75985424 -75.98717285 34.72161551 -72 37 C-69.26032472 36.82324676 -67.52775093 35.75885154 -65.0625 34.5 C-61.52160774 32.85466034 -58.62109622 32.99361928 -54.75 33.0625 C-49.74970689 32.78851134 -47.24176166 31.89491931 -43.82788086 28.15112305 C-42.4748645 26.5324289 -41.1366903 24.90236236 -39.80078125 23.26953125 C-31.24979628 12.89854238 -13.5627653 0 0 0 Z " fill="#030303" transform="translate(111,71)"/>
<path d="M0 0 C2 2 2 2 2.125 5.125 C2.08375 6.07375 2.0425 7.0225 2 8 C0.02 8.99 0.02 8.99 -2 10 C-2 10.66 -2 11.32 -2 12 C-3.6384869 13.69437783 -5.31129194 15.35567016 -7 17 C-8.75867379 18.98279264 -10.48531681 20.97077102 -12.1875 23 C-12.62513672 23.50789063 -13.06277344 24.01578125 -13.51367188 24.5390625 C-16.03486858 27.54140362 -17.77310579 30.27133826 -19 34 C-17.989375 33.9175 -16.97875 33.835 -15.9375 33.75 C-8.18415211 33.73608017 2.11292917 35.81164717 8 41 C7.67 41.99 7.34 42.98 7 44 C6.47792969 43.81824219 5.95585937 43.63648438 5.41796875 43.44921875 C2.95305716 42.60743633 0.47880261 41.7999609 -2 41 C-2.90105469 40.70222656 -3.80210937 40.40445313 -4.73046875 40.09765625 C-11.01467274 38.17428211 -15.52351901 37.95540629 -22 39 C-22.495 38.505 -22.495 38.505 -23 38 C-29.66474034 37.43278806 -36.18797407 38.95556151 -42.09765625 42.125 C-44.9057423 43.41660426 -47.06395797 42.66728228 -50 42 C-49.67 40.68 -49.34 39.36 -49 38 C-48.05125 38.020625 -47.1025 38.04125 -46.125 38.0625 C-43.09333717 38.22551826 -43.09333717 38.22551826 -41 37 C-40.896875 36.4225 -40.79375 35.845 -40.6875 35.25 C-39.87837117 32.60194201 -38.53857804 31.43713496 -36.55078125 29.578125 C-34.71927087 27.71432099 -33.20625588 25.70578116 -31.625 23.625 C-27.82143641 18.81247584 -23.68007401 14.42218827 -19.375 10.0625 C-18.74158691 9.41168457 -18.10817383 8.76086914 -17.45556641 8.09033203 C-12.316481 2.95661522 -7.65920418 -0.87036411 0 0 Z " fill="#020202" transform="translate(212,120)"/>
<path d="M0 0 C1.04671875 0.16628906 2.0934375 0.33257812 3.171875 0.50390625 C13.05955126 2.17626631 22.47649454 4.96387809 31.375 9.625 C32.88320313 10.40617188 32.88320313 10.40617188 34.421875 11.203125 C35.14890625 11.58984375 35.8759375 11.9765625 36.625 12.375 C36.295 13.365 35.965 14.355 35.625 15.375 C31.17169412 15.07811294 28.03230952 14.16753103 24.0625 12.125 C18.3847058 9.40850319 12.60958732 7.9999491 6.5 6.625 C5.10479126 6.30934082 5.10479126 6.30934082 3.68139648 5.98730469 C-9.05866956 3.22475288 -17.82533578 2.72170216 -29.375 9.375 C-29.705 9.705 -30.035 10.035 -30.375 10.375 C-35.76200479 10.80011505 -38.96759851 9.91422471 -43.6875 7.375 C-49.66054108 4.49404632 -53.83145336 3.40777893 -60.375 4.375 C-61.40496094 4.52195313 -62.43492187 4.66890625 -63.49609375 4.8203125 C-69.64278813 5.96422029 -73.99164688 7.56145571 -79.0625 11.25 C-83.6176822 14.40613788 -83.6176822 14.40613788 -87.03515625 14.265625 C-89.62822 13.49904809 -91.94956612 12.56680803 -94.375 11.375 C-103.38114468 7.03275167 -112.85967445 7.40666229 -122.375 10.375 C-124.87435434 11.7431481 -127.12189027 13.23248805 -129.40234375 14.9375 C-133.24380745 17.73682404 -133.24380745 17.73682404 -135.375 18.375 C-138.1796875 17.2578125 -138.1796875 17.2578125 -141.25 15.5 C-145.55792751 13.04304902 -148.38282504 11.83475093 -153.375 12.375 C-157.30088196 13.85095181 -160.02788487 15.8543273 -162.375 19.375 C-163.035 19.045 -163.695 18.715 -164.375 18.375 C-162.39782501 13.92635627 -159.93327039 11.98547618 -155.62109375 10.0390625 C-151.05927076 8.69034962 -146.64604223 9.2007938 -142.42578125 11.3828125 C-141.53439453 11.93582031 -141.53439453 11.93582031 -140.625 12.5 C-137.64717616 14.54625202 -137.64717616 14.54625202 -134.9375 14.5 C-131.74394778 13.09795268 -129.35667336 11.12668669 -126.73046875 8.84765625 C-121.08893683 5.32052933 -114.48900361 4.98812218 -108 5 C-106.88854614 4.99806641 -106.88854614 4.99806641 -105.75463867 4.99609375 C-100.39175275 5.09919238 -96.24957058 6.17591646 -91.3671875 8.4609375 C-88.38408429 9.82965544 -86.59904498 10.06096702 -83.375 9.375 C-81.97447791 8.47607335 -80.60224364 7.53253524 -79.25 6.5625 C-73.95974174 2.79263529 -68.7063096 1.51181444 -62.375 0.375 C-61.50488281 0.20871094 -60.63476562 0.04242188 -59.73828125 -0.12890625 C-52.46166742 -1.21411553 -45.88925064 0.08665075 -39.6875 4.125 C-36.22407417 5.99712207 -34.1397058 5.33212859 -30.375 4.375 C-29.0894398 3.75900241 -27.81876931 3.11122507 -26.5625 2.4375 C-17.72440355 -2.2197072 -9.60424891 -1.72594693 0 0 Z " fill="#030303" transform="translate(203.375,196.625)"/>
<path d="M0 0 C6.19966055 -0.26149711 12.04638605 1.26314042 17.3984375 4.43359375 C18.36330078 4.82224609 18.36330078 4.82224609 19.34765625 5.21875 C22.49285828 3.61214536 22.49285828 3.61214536 24.37109375 2.26171875 C29.8135877 -0.61011106 36.59471227 0.00290615 42.59765625 -0.03125 C43.48839844 -0.051875 44.37914062 -0.0725 45.296875 -0.09375 C55.89643689 -0.15528592 64.18611353 2.52643844 72.09765625 9.71875 C74.04241082 11.87958841 75.40510796 13.48535997 76.34765625 16.21875 C76.01765625 16.87875 75.68765625 17.53875 75.34765625 18.21875 C72.54937269 17.83277985 71.52706785 17.41738427 69.59765625 15.28125 C68.34765625 13.21875 68.34765625 13.21875 68.34765625 11.21875 C67.54328125 10.8165625 67.54328125 10.8165625 66.72265625 10.40625 C64.92257909 9.50621142 63.13261292 8.58591493 61.34765625 7.65625 C55.1108028 4.66775772 49.04107562 4.93055858 42.22265625 4.84375 C41.13210937 4.80636719 40.0415625 4.76898438 38.91796875 4.73046875 C32.03129939 4.65632997 27.44323252 5.55725522 21.57080078 9.23583984 C18.71966181 10.49640272 17.2717994 10.1853763 14.34765625 9.21875 C13.63222656 8.54714844 12.91679687 7.87554687 12.1796875 7.18359375 C7.94184126 4.24340526 4.06908844 4.67235126 -0.96484375 4.78125 C-1.87685547 4.77416016 -2.78886719 4.76707031 -3.72851562 4.75976562 C-12.2037546 4.83874635 -18.05253973 6.71891331 -24.65234375 12.21875 C-26.65234375 13.21875 -26.65234375 13.21875 -28.65234375 13.21875 C-30.34906761 11.92388179 -32.01267165 10.58514342 -33.65234375 9.21875 C-40.84144008 6.30645319 -48.95929519 5.88161173 -56.27734375 8.53125 C-58.63649581 10.07378033 -58.63649581 10.07378033 -60.15234375 11.90625 C-61.65234375 13.21875 -61.65234375 13.21875 -64.40234375 13.65625 C-67.65234375 13.21875 -67.65234375 13.21875 -70.83984375 11.21875 C-75.57970287 8.30191362 -80.25520337 8.49767456 -85.65234375 9.21875 C-94.81104202 11.60742026 -104.57611142 15.8501409 -111.65234375 22.21875 C-111.28742666 19.60818931 -110.93584519 18.47125356 -108.9375 16.69140625 C-98.45763219 10.04249188 -88.43701887 4.20409324 -75.65234375 5.21875 C-73.28711817 6.14078709 -70.94832568 7.13573965 -68.65234375 8.21875 C-66.11884573 9.27720809 -66.11884573 9.27720809 -63.65234375 9.21875 C-62.93046875 8.64125 -62.20859375 8.06375 -61.46484375 7.46875 C-56.27068366 3.31342193 -50.19771866 1.84895912 -43.58984375 2.28125 C-39.20954465 2.88828358 -35.57123661 4.35120592 -31.66015625 6.37890625 C-29.40004445 7.47600964 -29.40004445 7.47600964 -25.65234375 7.21875 C-23.98269972 6.19968348 -23.98269972 6.19968348 -22.33984375 4.84375 C-15.71004044 0.46112721 -7.69895734 0.63496555 0 0 Z " fill="#030303" transform="translate(144.65234375,43.78125)"/>
<path d="M0 0 C0 1.32 0 2.64 0 4 C-2.38037877 3.07856306 -4.71438251 2.14730666 -6.984375 0.9765625 C-12.68019357 -1.87134678 -17.64132706 -3.08712796 -24 -2 C-26.17863106 -1.04780111 -28.18543354 0.05209723 -30.24609375 1.234375 C-32 2 -32 2 -34.875 1.375 C-37 0 -37 0 -39 -2 C-46.21134693 -3.19264584 -52.65543572 -1.41191496 -59 2 C-59.845625 2.804375 -60.69125 3.60875 -61.5625 4.4375 C-64 6 -64 6 -66.19140625 5.6171875 C-68.51898109 4.84755601 -70.74778733 3.96583652 -73 3 C-80.56188946 0.47937018 -88.89063794 1.58537207 -96 5 C-98.48139497 6.54112515 -100.69846218 8.18815108 -103 10 C-103 7 -103 7 -101.1875 5.0625 C-93.03310152 -0.21387549 -84.65186187 -2.17109257 -75 -1 C-73.17319166 -0.46315242 -71.35874438 0.11838291 -69.5625 0.75 C-67.18512036 1.61131695 -67.18512036 1.61131695 -65 2 C-62.35832772 0.47208796 -62.35832772 0.47208796 -60 -2 C-53.09374748 -5.84538083 -45.84663048 -7.27709088 -38 -6 C-37.31679687 -5.47019531 -36.63359375 -4.94039063 -35.9296875 -4.39453125 C-34.08955957 -2.72299475 -34.08955957 -2.72299475 -31.78125 -3.328125 C-31.0284375 -3.63234375 -30.275625 -3.9365625 -29.5 -4.25 C-18.54147775 -8.52832718 -10.07078936 -5.72352887 0 0 Z " fill="#030303" transform="translate(254,95)"/>
<path d="M0 0 C25.66508078 -0.71145501 25.66508078 -0.71145501 35 7 C46 18.06333973 46 18.06333973 46 25 C45.34 25 44.68 25 44 25 C42.68766499 23.14677016 41.44998356 21.24038057 40.25 19.3125 C34.5147529 10.52878823 28.82562268 6.1917238 18.375 3.875 C12.29817537 2.74966211 6.161902 2.36700984 0 2 C0 1.34 0 0.68 0 0 Z " fill="#030303" transform="translate(194,109)"/>
<path d="M0 0 C0 0.99 0 1.98 0 3 C-0.79664063 3.02578125 -1.59328125 3.0515625 -2.4140625 3.078125 C-9.36929418 3.23417224 -9.36929418 3.23417224 -15.4375 6.1875 C-16.283125 6.785625 -17.12875 7.38375 -18 8 C-20.6875 7.3125 -20.6875 7.3125 -23 6 C-31.70035883 3.09988039 -40.01498299 5.04282343 -48 9 C-47 6 -47 6 -44.59375 4.61328125 C-37.2594534 1.52954291 -30.90923367 -0.85459939 -23.1875 2.0625 C-22.1046875 2.5265625 -22.1046875 2.5265625 -21 3 C-18.23067975 2.50628922 -15.86619376 1.52068232 -13.3125 0.375 C-8.69993156 -1.4231199 -4.77814728 -0.91802367 0 0 Z " fill="#040404" transform="translate(256,19)"/>
<path d="M0 0 C7.21261333 -0.47730529 13.18490036 -0.65415283 19 4 C23.23643305 8.11574477 27.13297229 12.54002804 31 17 C30.01 17.33 29.02 17.66 28 18 C27.27554688 17.16855469 26.55109375 16.33710937 25.8046875 15.48046875 C24.82860982 14.38238136 23.85201995 13.28474909 22.875 12.1875 C22.400625 11.64029297 21.92625 11.09308594 21.4375 10.52929688 C16.74441904 5.29714581 12.27500216 2.74847574 5.125 2.3125 C4.15820312 2.24675781 3.19140625 2.18101563 2.1953125 2.11328125 C1.47085938 2.07589844 0.74640625 2.03851563 0 2 C0 1.34 0 0.68 0 0 Z " fill="#030303" transform="translate(209,101)"/>
<path d="M0 0 C-0.234375 1.859375 -0.234375 1.859375 -1 4 C-5.1345426 6.76775166 -9.9890377 8.64657578 -15 8 C-15.33 8.99 -15.66 9.98 -16 11 C-16.66 10.67 -17.32 10.34 -18 10 C-17.375 7.625 -17.375 7.625 -16 5 C-13.3125 3.875 -13.3125 3.875 -10 3 C-8.76322325 2.47594205 -7.53390513 1.93394811 -6.3125 1.375 C-3 0 -3 0 0 0 Z " fill="#030303" transform="translate(132,104)"/>
<path d="M0 0 C0.66 0.66 1.32 1.32 2 2 C0.68 3.32 -0.64 4.64 -2 6 C0.31856917 7.54571278 2.50638429 8.79618552 5 10 C4.34 10.66 3.68 11.32 3 12 C-3.46153846 11.53846154 -3.46153846 11.53846154 -6 9 C-5.9375 6.625 -5.9375 6.625 -5 4 C-2.4375 1.6875 -2.4375 1.6875 0 0 Z " fill="#FAFAFA" transform="translate(154,123)"/>
<path d="M0 0 C2.28125 1.01953125 2.28125 1.01953125 4 2 C4 3.32 4 4.64 4 6 C3.01 5.67 2.02 5.34 1 5 C1.33 4.34 1.66 3.68 2 3 C-1.63 3 -5.26 3 -9 3 C-9.33 3.66 -9.66 4.32 -10 5 C-8.68 5.33 -7.36 5.66 -6 6 C-6 6.66 -6 7.32 -6 8 C-8.97 7.505 -8.97 7.505 -12 7 C-12.33 5.68 -12.66 4.36 -13 3 C-9.3245548 -0.83524716 -4.98393089 -0.67563852 0 0 Z " fill="#FCFCFC" transform="translate(147,143)"/>
<path d="M0 0 C1.98 0 3.96 0 6 0 C6.33 0.99 6.66 1.98 7 3 C8.1446875 3.1546875 8.1446875 3.1546875 9.3125 3.3125 C12.19807812 4.05067115 13.26179817 4.62140803 15 7 C15 7.99 15 8.98 15 10 C13.66666667 9.33333333 12.33333333 8.66666667 11 8 C9.948125 7.505 8.89625 7.01 7.8125 6.5 C5 5 5 5 4 3 C1.98330173 1.86649466 1.98330173 1.86649466 0 1 C0 0.67 0 0.34 0 0 Z " fill="#040404" transform="translate(161,112)"/>
<path d="M0 0 C3.465 1.485 3.465 1.485 7 3 C6.69381595 6.67420866 6.24228216 7.78135513 3.4375 10.3125 C2.633125 10.869375 1.82875 11.42625 1 12 C0.34 11.67 -0.32 11.34 -1 11 C0.13304992 7.60085025 1.12518475 6.94745549 4 5 C3.01 4.319375 3.01 4.319375 2 3.625 C1.34 3.08875 0.68 2.5525 0 2 C0 1.34 0 0.68 0 0 Z " fill="#FAFAFA" transform="translate(129,127)"/>
<path d="M0 0 C0.66 0.33 1.32 0.66 2 1 C2 4.20395416 1.25664978 6.09399739 0 9 C-1.32 9 -2.64 9 -4 9 C-4 8.01 -4 7.02 -4 6 C-3.34 6 -2.68 6 -2 6 C-1.34 4.02 -0.68 2.04 0 0 Z " fill="#777777" transform="translate(133,153)"/>
<path d="M0 0 C0.99 0 1.98 0 3 0 C2.67 0.66 2.34 1.32 2 2 C1.34 1.34 0.68 0.68 0 0 Z M1 2 C1.66 2.66 2.32 3.32 3 4 C0.1875 4.6875 0.1875 4.6875 -3 5 C-4.875 3.5625 -4.875 3.5625 -6 2 C-2.85179059 0.95059686 -2.00659136 0.933145 1 2 Z " fill="#F6F6F6" transform="translate(107,73)"/>
<path d="M0 0 C1.32 0.99 2.64 1.98 4 3 C3.67 3.99 3.34 4.98 3 6 C2.01 5.67 1.02 5.34 0 5 C-0.75 3 -0.75 3 -1 1 C-0.67 0.67 -0.34 0.34 0 0 Z " fill="#FCFCFC" transform="translate(158,152)"/>
</svg>
