<?xml version="1.0" encoding="UTF-8"?>
<svg version="1.1" xmlns="http://www.w3.org/2000/svg" width="256" height="256">
<path d="M0 0 C84.48 0 168.96 0 256 0 C256 84.48 256 168.96 256 256 C171.52 256 87.04 256 0 256 C0 171.52 0 87.04 0 0 Z " fill="#FEFEFE" transform="translate(0,0)"/>
<path d="M0 0 C0.66 0.99 1.32 1.98 2 3 C2.66 2.67 3.32 2.34 4 2 C5.37957422 5.25185351 6.49567861 8.50616641 7.42578125 11.9140625 C7.86174351 13.49776212 8.32182003 15.07484719 8.79296875 16.6484375 C10.34882367 21.98071023 11.10741238 26.41455614 11 32 C11.66152556 34.3347961 12.32741333 36.66836622 13 39 C12.67 39.99 12.34 40.98 12 42 C12.66 42 13.32 42 14 42 C14 45.3 14 48.6 14 52 C18 50.5 18 50.5 19 48 C19.5775 47.7525 20.155 47.505 20.75 47.25 C23.05529856 45.96927858 24.01073704 44.90954444 25.625 42.875 C26.40875 41.92625 27.1925 40.9775 28 40 C28.66 40 29.32 40 30 40 C30.33 39.01 30.66 38.02 31 37 C32.9375 35.9375 32.9375 35.9375 35 35 C35.99 34.01 35.99 34.01 37 33 C37.66 33 38.32 33 39 33 C39.99 32.67 40.98 32.34 42 32 C45 31 45 31 47 31 C47.99 31.99 47.99 31.99 49 33 C49.67546875 33.42796875 50.3509375 33.8559375 51.046875 34.296875 C54.68316319 37.4677183 54.49952878 42.41234716 55 47 C55.07403678 49.33215844 55.09515886 51.66860788 55 54 C55 57.4174487 55.3283952 60.59511418 55.78125 63.97265625 C56.07018827 66.65049486 56 69.30890235 56 72 C56.33 72.99 56.66 73.98 57 75 C57.04278083 76.37433431 57.04057273 77.75059873 57 79.125 C57 80.40375 57 81.6825 57 83 C57.33 83.33 57.66 83.66 58 84 C58.06038855 87.5855703 58.02009479 91.15725572 57.9609375 94.7421875 C57.92650977 98.09315336 57.93215008 100.79645023 59 104 C58.67 104.33 58.34 104.66 58 105 C58.0666239 106.89878126 58.20607423 108.79507481 58.375 110.6875 C58.47296875 111.85796875 58.5709375 113.0284375 58.671875 114.234375 C58.78015625 115.47703125 58.8884375 116.7196875 59 118 C59.21597002 120.47851308 59.42450449 122.95768717 59.625 125.4375 C59.72039062 126.54996094 59.81578125 127.66242188 59.9140625 128.80859375 C60.00056001 132.02079657 59.63520249 134.85716977 59 138 C59.66 138.33 60.32 138.66 61 139 C60.7215625 140.3303125 60.7215625 140.3303125 60.4375 141.6875 C59.89382252 145.80391524 60.66936048 148.78765508 61.75 152.75 C62.09979457 157.29732942 61.18827909 160.99207666 59 165 C56 167.125 56 167.125 53 168 C49.40582825 166.80194275 48.9111833 165.4952657 47.24804688 162.22851562 C46.93931641 161.59623047 46.63058594 160.96394531 46.3125 160.3125 C45.99216797 159.69955078 45.67183594 159.08660156 45.34179688 158.45507812 C43.34236234 154.43489311 42.7588615 151.45128635 43 147 C42.67 146.34 42.34 145.68 42 145 C42.33 144.34 42.66 143.68 43 143 C42.34 142.67 41.68 142.34 41 142 C41.33 141.34 41.66 140.68 42 140 C41.01 139.67 40.02 139.34 39 139 C38.0859375 137.109375 38.0859375 137.109375 37.375 134.75 C37.13523437 133.98171875 36.89546875 133.2134375 36.6484375 132.421875 C35.98961521 129.96121343 35.49797704 127.49760578 35 125 C34.54463613 123.26441313 34.06541252 121.53491024 33.5625 119.8125 C33.31628906 118.95269531 33.07007812 118.09289062 32.81640625 117.20703125 C32.11377903 114.83520113 32.11377903 114.83520113 30 113 C29.33333333 111 28.66666667 109 28 107 C27.34 106.34 26.68 105.68 26 105 C23.37930947 106.9655179 21.16095414 108.79612476 19.125 111.375 C16.45442607 114.67394427 13.45521293 117.52348038 10 120 C9.34 120 8.68 120 8 120 C7.34 121.32 6.68 122.64 6 124 C5.34 124 4.68 124 4 124 C4 124.66 4 125.32 4 126 C3.34 126 2.68 126 2 126 C2 126.66 2 127.32 2 128 C1.01 128.33 0.02 128.66 -1 129 C-1.33 129.66 -1.66 130.32 -2 131 C-2.99 131 -3.98 131 -5 131 C-5.33 131.66 -5.66 132.32 -6 133 C-6.66 133 -7.32 133 -8 133 C-10.62788203 135.30935087 -11.87994369 136.63983107 -13 140 C-13.66 140 -14.32 140 -15 140 C-15.144375 140.763125 -15.28875 141.52625 -15.4375 142.3125 C-16 145 -16 145 -17 148 C-19.0625 148.6875 -19.0625 148.6875 -21 149 C-21 150.32 -21 151.64 -21 153 C-27.15384615 156.2 -27.15384615 156.2 -31.4375 155.1875 C-32.283125 154.795625 -33.12875 154.40375 -34 154 C-34.33820166 152.4176994 -34.67035939 150.83410625 -35 149.25 C-35.2784375 147.92742187 -35.2784375 147.92742187 -35.5625 146.578125 C-36 144 -36 144 -36 140 C-36.25640595 136.17964327 -36.25640595 136.17964327 -38 133 C-39.06520943 129.80437171 -39.0999574 127.57743421 -39.0625 124.22265625 C-39.05476563 123.06830078 -39.04703125 121.91394531 -39.0390625 120.72460938 C-39.01339579 118.31835535 -38.98736524 115.91210517 -38.9609375 113.50585938 C-38.89485508 103.54393501 -39.54021972 93.85351689 -41 84 C-41.57970738 78.98116349 -42.05802402 74.05637848 -42 69 C-41.93310124 65.92133136 -41.93310124 65.92133136 -42.4609375 62.5859375 C-43.1907259 56.95135215 -43.39232786 51.29809422 -43.625 45.625 C-43.6765625 44.53316406 -43.728125 43.44132812 -43.78125 42.31640625 C-43.82507813 41.27613281 -43.86890625 40.23585937 -43.9140625 39.1640625 C-43.9548291 38.21998535 -43.9955957 37.2759082 -44.03759766 36.30322266 C-44 34 -44 34 -43 32 C-42.34 32 -41.68 32 -41 32 C-41 31.34 -41 30.68 -41 30 C-39.35 29.34 -37.7 28.68 -36 28 C-36 27.01 -36 26.02 -36 25 C-35.34 25 -34.68 25 -34 25 C-33.67 24.01 -33.34 23.02 -33 22 C-30.9375 21.3125 -30.9375 21.3125 -29 21 C-28.67 19.68 -28.34 18.36 -28 17 C-27.34 17 -26.68 17 -26 17 C-26 16.34 -26 15.68 -26 15 C-21.13513514 9.45945946 -21.13513514 9.45945946 -17 9 C-17 8.34 -17 7.68 -17 7 C-12.61538462 4 -12.61538462 4 -10 4 C-9.67 3.01 -9.34 2.02 -9 1 C-5.95699684 -0.52150158 -3.345915 -0.23899393 0 0 Z " fill="#010101" transform="translate(72,0)"/>
<path d="M0 0 C9.44787007 7.20860217 16.95077348 16.71708927 19.40234375 28.5703125 C21.13260997 42.17541948 18.3589551 54.03790105 10.59765625 65.375 C3.70564031 74.16971973 -5.5079711 79.24967026 -16.3125 81.8125 C-30.79067693 83.35891215 -42.70153595 80.8849453 -54.3125 71.8125 C-54.92867187 71.33425781 -55.54484375 70.85601562 -56.1796875 70.36328125 C-62.62159233 64.68008965 -67.54655248 55.23571747 -69.3125 46.8125 C-70.21484804 32.01990921 -68.92888279 20.34843194 -59.50390625 8.28515625 C-44.42393396 -8.73021356 -19.15954579 -12.59725488 0 0 Z " fill="#010101" transform="translate(223.3125,136.1875)"/>
<path d="M0 0 C0.66 1.32 1.32 2.64 2 4 C1.01 5.485 1.01 5.485 0 7 C0.2475 8.1446875 0.2475 8.1446875 0.5 9.3125 C1.35936915 13.93160916 -0.47030563 17.20545844 -3 21 C-6.96776004 23.03454886 -10.61013155 24.31851152 -15 23.3125 C-17 22 -17 22 -18 20 C-18.34675781 19.39542969 -18.69351563 18.79085937 -19.05078125 18.16796875 C-20.12861915 15.70624021 -20.23611124 13.98611813 -20.1875 11.3125 C-20.18105469 10.52488281 -20.17460937 9.73726562 -20.16796875 8.92578125 C-20 7 -20 7 -19 6 C-19.99 5.01 -20.98 4.02 -22 3 C-21.67 2.34 -21.34 1.68 -21 1 C-14.00609057 -0.14654253 -7.07251199 -0.10770323 0 0 Z " fill="#FBFBFB" transform="translate(205,183)"/>
<path d="M0 0 C2.9637386 0.30659365 3.92259392 0.91775604 6 3.125 C6.66 3.74375 7.32 4.3625 8 5 C10.21858253 4.86358623 10.21858253 4.86358623 12 4 C12 3.34 12 2.68 12 2 C14.475 2.495 14.475 2.495 17 3 C15.02 5.31 13.04 7.62 11 10 C11.495 10.763125 11.99 11.52625 12.5 12.3125 C14 15 14 15 14 18 C12.35 18 10.7 18 9 18 C8.34 16.68 7.68 15.36 7 14 C6.0925 14.680625 5.185 15.36125 4.25 16.0625 C1 18 1 18 -1.375 17.75 C-1.91125 17.5025 -2.4475 17.255 -3 17 C-2.67 15.68 -2.34 14.36 -2 13 C-1.34 13 -0.68 13 0 13 C0 12.34 0 11.68 0 11 C0.66 11 1.32 11 2 11 C1.01 7.7 0.02 4.4 -1 1 C-0.67 0.67 -0.34 0.34 0 0 Z " fill="#F7F7F7" transform="translate(168,153)"/>
<path d="M0 0 C1.98 0.66 3.96 1.32 6 2 C6.42893701 6.39660438 5.83217291 9.64695426 3.46875 13.4453125 C0.63232486 16.44769869 -2.98713952 17.45636828 -7 18 C-10 17.3125 -10 17.3125 -12 16 C-12.33 15.34 -12.66 14.68 -13 14 C-13.34804687 13.39671875 -13.69609375 12.7934375 -14.0546875 12.171875 C-15.13909238 9.68043239 -15.20445754 7.95155625 -15.125 5.25 C-15.10695312 4.45078125 -15.08890625 3.6515625 -15.0703125 2.828125 C-15.04710937 2.22484375 -15.02390625 1.6215625 -15 1 C-12.525 1.99 -12.525 1.99 -10 3 C-9.67 5.64 -9.34 8.28 -9 11 C-8.01 11.33 -7.02 11.66 -6 12 C-5.67 11.34 -5.34 10.68 -5 10 C-4.01 9.67 -3.02 9.34 -2 9 C-0.29466783 5.67908998 0 3.81507216 0 0 Z " fill="#FBFBFB" transform="translate(200,189)"/>
<path d="M0 0 C3.77254453 0.50980331 5.44987123 1.20700182 8 4 C8.66 4 9.32 4 10 4 C10 3.34 10 2.68 10 2 C10.99 1.67 11.98 1.34 13 1 C13.6875 2.75 13.6875 2.75 14 5 C12.5625 7.125 12.5625 7.125 11 9 C11 9.66 11 10.32 11 11 C11.66 11 12.32 11 13 11 C13.66 12.98 14.32 14.96 15 17 C14.01 17.99 13.02 18.98 12 20 C10 18 8 16 6 14 C3.69 15.65 1.38 17.3 -1 19 C-1.66 17.68 -2.32 16.36 -3 15 C-0.5175644 11.15222482 -0.5175644 11.15222482 2.125 10.375 C2.74375 10.25125 3.3625 10.1275 4 10 C4.33 9.34 4.66 8.68 5 8 C4.01 7.67 3.02 7.34 2 7 C0.35179805 4.39757586 0 3.13751221 0 0 Z " fill="#F9F9F9" transform="translate(204,153)"/>
<path d="M0 0 C0.66 0.33 1.32 0.66 2 1 C1.87431641 2.04800781 1.87431641 2.04800781 1.74609375 3.1171875 C1.64425781 4.02726563 1.54242188 4.93734375 1.4375 5.875 C1.33308594 6.77992188 1.22867188 7.68484375 1.12109375 8.6171875 C0.80325148 11.01653057 0.80325148 11.01653057 2 13 C0.68 12.67 -0.64 12.34 -2 12 C-2.24954005 10.56589632 -2.47392642 9.12739928 -2.6875 7.6875 C-2.81511719 6.88699219 -2.94273437 6.08648437 -3.07421875 5.26171875 C-3 3 -3 3 -1.51953125 1.20703125 C-1.01808594 0.80871094 -0.51664063 0.41039062 0 0 Z " fill="#040404" transform="translate(192,188)"/>
<path d="M0 0 C0.66 1.32 1.32 2.64 2 4 C-0.31 5.65 -2.62 7.3 -5 9 C-5.66 7.68 -6.32 6.36 -7 5 C-4.53846154 1.18461538 -4.53846154 1.18461538 -1.8125 0.25 C-1.214375 0.1675 -0.61625 0.085 0 0 Z " fill="#FCFCFC" transform="translate(208,163)"/>
<path d="M0 0 C1.32 0 2.64 0 4 0 C4.75 2.125 4.75 2.125 5 5 C3.0625 8.3125 3.0625 8.3125 1 11 C0.34 10.67 -0.32 10.34 -1 10 C-0.67 6.7 -0.34 3.4 0 0 Z " fill="#030303" transform="translate(196,189)"/>
<path d="M0 0 C0.99 0.33 1.98 0.66 3 1 C2.67 3.31 2.34 5.62 2 8 C0.68 8.33 -0.64 8.66 -2 9 C-2.125 5.625 -2.125 5.625 -2 2 C-1.34 1.34 -0.68 0.68 0 0 Z " fill="#EBEBEB" transform="translate(194,191)"/>
<path d="M0 0 C1.65 0 3.3 0 5 0 C6.125 3.75 6.125 3.75 5 6 C0.125 4.25 0.125 4.25 -1 2 C-0.67 1.34 -0.34 0.68 0 0 Z " fill="#DFDFDF" transform="translate(184,184)"/>
<path d="M0 0 C0.66 0.33 1.32 0.66 2 1 C1.34 3.31 0.68 5.62 0 8 C-0.99 6.68 -1.98 5.36 -3 4 C-2.01 2.68 -1.02 1.36 0 0 Z " fill="#DDDDDD" transform="translate(204,164)"/>
</svg>
