<?xml version="1.0" encoding="UTF-8"?>
<svg version="1.1" xmlns="http://www.w3.org/2000/svg" width="256" height="256">
<path d="M0 0 C84.48 0 168.96 0 256 0 C256 84.48 256 168.96 256 256 C171.52 256 87.04 256 0 256 C0 171.52 0 87.04 0 0 Z " fill="#FEFEFE" transform="translate(0,0)"/>
<path d="M0 0 C-2.44910774 9.14333557 -7.25412092 16.8912129 -12 25 C-11.34773438 24.855625 -10.69546875 24.71125 -10.0234375 24.5625 C-5.27379823 23.55372706 -0.88590812 22.74284694 4 23 C3.42770367 28.19228855 0.9017839 32.3103703 -1.5625 36.8125 C-2.19961914 37.99489258 -2.19961914 37.99489258 -2.84960938 39.20117188 C-3.89396554 41.1373378 -4.9442077 43.07005367 -6 45 C-5.57299805 44.6292334 -5.14599609 44.2584668 -4.70605469 43.87646484 C-0.62987261 40.35693708 3.51031256 36.94522259 7.75 33.625 C8.6464624 32.91827148 8.6464624 32.91827148 9.56103516 32.19726562 C14.28201199 28.49876982 19.12612254 25.02949591 24.0859375 21.65625 C25.03339844 20.83640625 25.03339844 20.83640625 26 20 C26 19.01 26 18.02 26 17 C25.33613281 16.95101562 24.67226562 16.90203125 23.98828125 16.8515625 C15.21792619 16.10896309 15.21792619 16.10896309 11 14 C12.3255581 10.37723685 13.94346955 7.36494652 16.125 4.1875 C16.66382813 3.39730469 17.20265625 2.60710937 17.7578125 1.79296875 C18.16773438 1.20128906 18.57765625 0.60960937 19 0 C34.83951833 0.07453891 49.61908352 8.83192537 60.875 19.4375 C73.30753668 32.79324485 81.20226207 50.61662515 81 69 C79.62113555 90.08601937 72.07700737 108.18396657 56.1875 122.5 C53.84418705 124.52395879 51.58253896 126.27830736 49 128 C54.04737978 131.08755119 59.07988242 134.04379501 64.375 136.6875 C71.24406285 140.38997359 76.50866255 145.54082265 82 151 C82.96486328 151.89525391 82.96486328 151.89525391 83.94921875 152.80859375 C93.7935054 162.75206717 94 180.96401301 94 194 C39.55 194 -14.9 194 -71 194 C-69.86308244 176.94623656 -69.86308244 176.94623656 -68.1875 170.4375 C-67.87167969 169.15746094 -67.55585937 167.87742188 -67.23046875 166.55859375 C-60.93209082 148.34328488 -40.86693747 139.24395537 -25 131 C-25 130.34 -25 129.68 -25 129 C-26.6559174 127.79358199 -26.6559174 127.79358199 -28.8125 126.5625 C-44.74413529 116.16685747 -53.26622567 101.06148231 -58 83 C-61.49292645 62.86561503 -57.02137383 45.59822311 -46.49609375 28.56640625 C-45.09833135 26.5872384 -43.61952025 24.80200141 -42 23 C-41.30648437 22.20335938 -40.61296875 21.40671875 -39.8984375 20.5859375 C-30.52342852 10.4780288 -14.41592951 0 0 0 Z " fill="#000000" transform="translate(117,62)"/>
</svg>
