<?xml version="1.0" encoding="UTF-8"?>
<svg version="1.1" xmlns="http://www.w3.org/2000/svg" width="256" height="256">
<path d="M0 0 C84.48 0 168.96 0 256 0 C256 84.48 256 168.96 256 256 C171.52 256 87.04 256 0 256 C0 171.52 0 87.04 0 0 Z " fill="#FDFDFD" transform="translate(0,0)"/>
<path d="M0 0 C2.94349922 5.61940761 2.00474841 11.49931211 0.30712891 17.4140625 C-0.5361063 19.86098136 -1.4385495 22.27478559 -2.375 24.6875 C-2.67921875 25.50283203 -2.9834375 26.31816406 -3.296875 27.15820312 C-4.97073243 31.58248014 -6.86851224 35.77366896 -9 40 C-9.51315112 41.50970548 -9.99619092 43.03025295 -10.4375 44.5625 C-12.61921478 51.2300875 -16.85698922 54.8611801 -22.0625 59.3203125 C-24.50099754 61.43433255 -26.74568636 63.6907031 -29 66 C-38.45289079 75.62633833 -38.45289079 75.62633833 -43 79 C-41.948125 78.443125 -40.89625 77.88625 -39.8125 77.3125 C-39.22082031 76.99925781 -38.62914063 76.68601562 -38.01953125 76.36328125 C-35.34052183 74.55482034 -33.22483455 72.32164443 -31 70 C-28.15465 67.07462115 -25.29724776 64.16129687 -22.4375 61.25 C-21.30538086 60.08017578 -21.30538086 60.08017578 -20.15039062 58.88671875 C-19.05307617 57.77490234 -19.05307617 57.77490234 -17.93359375 56.640625 C-17.27415771 55.96547852 -16.61472168 55.29033203 -15.93530273 54.59472656 C-14 53 -14 53 -11.81665039 52.45996094 C-10.91740845 52.23228027 -10.91740845 52.23228027 -10 52 C-9.67 51.01 -9.34 50.02 -9 49 C-6.78515625 47.17578125 -6.78515625 47.17578125 -4.0625 45.3125 C-2.71865234 44.37857422 -2.71865234 44.37857422 -1.34765625 43.42578125 C1 42 1 42 3 42 C3 41.34 3 40.68 3 40 C5.22109528 38.7947778 7.4497865 37.61112596 9.6875 36.4375 C10.31333984 36.09525391 10.93917969 35.75300781 11.58398438 35.40039062 C14.50780469 33.88490261 16.51755791 32.96416524 19.83984375 33.2109375 C22.37790176 34.13804007 23.56378096 34.68609155 25 37 C24.33622844 46.16515349 16.61661304 52.59160452 10.4453125 58.8203125 C9 60 9 60 7 60 C6.74863281 60.57878906 6.49726563 61.15757812 6.23828125 61.75390625 C4.84407086 64.28283677 3.26209642 65.9343046 1.1875 67.9375 C0.10662109 68.989375 0.10662109 68.989375 -0.99609375 70.0625 C-1.98802734 71.0215625 -1.98802734 71.0215625 -3 72 C-3.78375 72.804375 -4.5675 73.60875 -5.375 74.4375 C-11.54896222 80.46446312 -17.83739279 86.17302557 -25 91 C-19.91376569 89.46343208 -16.57310965 86.33684022 -12.6875 82.875 C-12.02105469 82.28823486 -11.35460937 81.70146973 -10.66796875 81.09692383 C-3.23472311 74.50844768 3.56204292 67.56459956 10 60 C10.99 60.66 11.98 61.32 13 62 C12.34 62 11.68 62 11 62 C11 62.66 11 63.32 11 64 C16.34130346 63.71899901 21.67858515 63.40069777 27.015625 63.04785156 C28.83076129 62.93310902 30.64656982 62.82852554 32.46289062 62.734375 C35.07665992 62.59710922 37.68581958 62.42325708 40.296875 62.2421875 C41.10743347 62.20753387 41.91799194 62.17288025 42.75311279 62.13717651 C44.98975755 61.961862 46.88300356 61.74534678 49 61 C51.51869478 58.20387959 51.51869478 58.20387959 53 55 C63.16875317 40.00108908 80.14298455 17.97138554 98.875 13.875 C102 14 102 14 104.4375 15.4375 C106.13726127 18.22510848 106.87523966 20.3899174 106.69921875 23.6796875 C105.26933099 28.42467816 101.58081936 31.82961676 98.33496094 35.45556641 C96.00186975 38.15474981 93.88920929 41.02150132 91.75 43.875 C88.72473547 47.89879956 85.6056797 51.48874072 82 55 C78.22287977 59.12977519 74.82460456 63.50444297 71.5234375 68.01953125 C69.986744 70.0172328 68.33472236 71.83730749 66.625 73.6875 C64.73823724 75.87217267 64.04249762 76.81726024 63.375 79.6875 C64.24683148 82.91327648 65.21169952 84.14113302 68 86 C76.14507058 86.66490372 82.27606001 80.09992842 88.16796875 75.1953125 C90.13697188 73.48962915 92.06918892 71.74873066 94 70 C94.81082031 69.29230469 95.62164062 68.58460938 96.45703125 67.85546875 C97.27558594 67.14003906 98.09414062 66.42460937 98.9375 65.6875 C99.68902344 65.03136719 100.44054687 64.37523437 101.21484375 63.69921875 C103.08624197 62.11045152 103.08624197 62.11045152 104 60 C106.475 59.505 106.475 59.505 109 59 C109 93.32 109 127.64 109 163 C24.52 163 -59.96 163 -147 163 C-147 33.33333333 -147 33.33333333 -140 24 C-139.319375 22.7934375 -139.319375 22.7934375 -138.625 21.5625 C-133.90886429 14.12551676 -127.07732207 10.87234329 -119 8 C-115.31508772 7.3268369 -111.7434176 7.01500368 -108 7 C-108.78913943 9.08429193 -109.58140963 11.16739869 -110.375 13.25 C-110.81585938 14.41015625 -111.25671875 15.5703125 -111.7109375 16.765625 C-112.70590855 19.26209781 -113.74410046 21.62904947 -115 24 C-115.66 24 -116.32 24 -117 24 C-117 24.66 -117 25.32 -117 26 C-115.824375 26.103125 -114.64875 26.20625 -113.4375 26.3125 C-109.1992365 26.6842775 -105.84332777 28.26234999 -102 30 C-101.54109375 29.03578125 -101.0821875 28.0715625 -100.609375 27.078125 C-99.99001725 25.80187267 -99.37020128 24.52584263 -98.75 23.25 C-98.44964844 22.61578125 -98.14929688 21.9815625 -97.83984375 21.328125 C-96.01407122 17.59888748 -94.22508892 14.64965812 -91 12 C-87.10718089 12 -84.00292464 14.74780652 -81 17 C-78.5625 19.5 -78.5625 19.5 -77 22 C-77.28619313 23.34424045 -77.62837565 24.67682796 -78 26 C-78.38211735 30.93078354 -78.58316458 35.46535636 -76.8125 40.125 C-74.60451242 42.40912508 -73.12474407 42.74664237 -70 43 C-69.38812915 50.83534611 -70.93540281 56.8036691 -74 64 C-73.67 64.33 -73.34 64.66 -73 65 C-72.26394531 64.52949219 -71.52789062 64.05898437 -70.76953125 63.57421875 C-69.79371094 62.95160156 -68.81789063 62.32898438 -67.8125 61.6875 C-66.84957031 61.07261719 -65.88664062 60.45773438 -64.89453125 59.82421875 C-63.93933594 59.22222656 -62.98414062 58.62023437 -62 58 C-61.17886719 57.47019531 -60.35773438 56.94039062 -59.51171875 56.39453125 C-54.20005778 53.44544421 -49.27483214 52.67565688 -43.25 52.3125 C-41.93515625 52.22613281 -40.6203125 52.13976562 -39.265625 52.05078125 C-36 52 -36 52 -34 53 C-33.92265625 51.99646484 -33.92265625 51.99646484 -33.84375 50.97265625 C-32.92675719 43.2094785 -30.44364658 37.02184964 -26.91992188 30.14086914 C-25.20354083 26.75262067 -23.82446587 23.66124805 -23.0234375 19.9375 C-22.05539619 15.6183835 -20.08698591 12.38665893 -17.625 8.75 C-17.23828125 8.151875 -16.8515625 7.55375 -16.453125 6.9375 C-11.29182168 -0.89105402 -11.29182168 -0.89105402 -7.0625 -2.9375 C-3.88505268 -3.03378628 -2.43632089 -1.98752493 0 0 Z " fill="#010101" transform="translate(147,93)"/>
<path d="M0 0 C0.33 0 0.66 0 1 0 C1.21914063 0.83402344 1.43828125 1.66804687 1.6640625 2.52734375 C4.589864 12.91037101 8.64424564 21.98296582 18 28 C29.55115466 33.64884052 41.20012985 34.96635927 53.5 30.75 C58.40420182 28.92779657 63.54301842 26.91396316 66 22 C66.66 22 67.32 22 68 22 C67.10416211 24.83681999 66.16763177 27.61611044 64.9765625 30.34375 C62.5693752 35.87515911 61.19462132 39.95965992 62 46 C64.56822759 51.44464249 67.66077129 52.91840786 73 55 C74.00341431 55.40230835 74.00341431 55.40230835 75.02709961 55.81274414 C90.24167994 61.83976746 105.75487905 66.47094535 122.03515625 68.46484375 C125.31240415 68.87789801 128.55568823 69.43047573 131.80859375 70.00390625 C133.38205566 70.27932251 133.38205566 70.27932251 134.98730469 70.56030273 C137.06339814 70.92664422 139.13836216 71.29946801 141.21191406 71.67993164 C146.88103289 72.66832856 152.22195103 73.11495265 157.97094727 73.0078125 C163.59091399 72.99331754 169.19462793 73.42512835 174.79980469 73.79956055 C176.89227538 73.9386483 178.98512992 74.07023777 181.078125 74.20117188 C182.42450801 74.28861947 183.77086335 74.37649453 185.1171875 74.46484375 C186.31972168 74.543396 187.52225586 74.62194824 188.76123047 74.70288086 C191.58265412 74.96171341 194.23439393 75.4085484 197 76 C202.31258416 76.43616101 207.21819569 76.81962998 212.125 74.5625 C213.07375 73.716875 214.0225 72.87125 215 72 C215.72316406 71.35546875 216.44632813 70.7109375 217.19140625 70.046875 C218.90508527 68.51287751 220.60904787 66.96797702 222.3046875 65.4140625 C224.91101214 63.07970217 227.58306183 60.87582506 230.3125 58.6875 C239.47027996 51.24680378 248.25145061 43.74790468 255 34 C255.33 34 255.66 34 256 34 C256 60.07 256 86.14 256 113 C171.52 113 87.04 113 0 113 C0 75.71 0 38.42 0 0 Z " fill="#FEFEFE" transform="translate(0,143)"/>
<path d="M0 0 C4.97093824 0.41153737 9.44508386 0.79600832 14 3 C11.20917156 7.80642676 8.09925102 12.38997202 5 17 C4.34 17.99 3.68 18.98 3 20 C-0.71888239 19.49287967 -3.73454239 18.88391785 -7 17 C-5.24009216 11.08030998 -2.60305395 5.58365008 0 0 Z " fill="#020202" transform="translate(41,100)"/>
<path d="M0 0 C3.47125918 2.68233664 4.283258 5.77122218 5 10 C3.625 13.4375 3.625 13.4375 2 16 C1.34 16 0.68 16 0 16 C0 18.64 0 21.28 0 24 C-0.66 24 -1.32 24 -2 24 C-2 23.34 -2 22.68 -2 22 C-5.3 23.32 -8.6 24.64 -12 26 C-12 25.01 -12 24.02 -12 23 C-5.375 20 -5.375 20 -2 20 C-1.8453125 18.88625 -1.8453125 18.88625 -1.6875 17.75 C-1 15 -1 15 0.625 13 C2.26783602 11.07430217 2.26783602 11.07430217 1.75 8.625 C1.5025 7.75875 1.255 6.8925 1 6 C0.66055205 4.00102872 0.32578384 2.00124361 0 0 Z " fill="#040404" transform="translate(43,70)"/>
<path d="M0 0 C0.33 1.32 0.66 2.64 1 4 C-4.75 8 -4.75 8 -7 8 C-7.33 7.01 -7.66 6.02 -8 5 C-7.67 4.34 -7.34 3.68 -7 3 C-7.99 2.67 -8.98 2.34 -10 2 C-6.5980513 -0.09350689 -3.94727588 -0.17942163 0 0 Z " fill="#FBFBFB" transform="translate(165,121)"/>
<path d="M0 0 C0.66 0.33 1.32 0.66 2 1 C1.9129995 2.62600941 1.8048219 4.25089678 1.6875 5.875 C1.62949219 6.77992187 1.57148437 7.68484375 1.51171875 8.6171875 C1 11 1 11 -2 13 C-2.72965366 15.56282742 -2.72965366 15.56282742 -3 18 C-3.66 17.67 -4.32 17.34 -5 17 C-5.1875 14.625 -5.1875 14.625 -5 12 C-4.01 11.34 -3.02 10.68 -2 10 C-1.95758277 7.66705225 -1.95907063 5.33297433 -2 3 C-1.34 2.01 -0.68 1.02 0 0 Z " fill="#040404" transform="translate(55,78)"/>
<path d="M0 0 C0.66 0.33 1.32 0.66 2 1 C-0.15789474 9.36842105 -0.15789474 9.36842105 -3.5 11.875 C-4.325 12.24625 -5.15 12.6175 -6 13 C-7.75149165 14.58245275 -7.75149165 14.58245275 -9 16 C-8.8125 13.6875 -8.8125 13.6875 -8 11 C-7.21625 10.566875 -6.4325 10.13375 -5.625 9.6875 C-1.73739029 7.18832233 -1.35441321 4.34837924 0 0 Z " fill="#040404" transform="translate(65,83)"/>
<path d="M0 0 C0.33 0.99 0.66 1.98 1 3 C-2.63 3 -6.26 3 -10 3 C-8.0130571 -0.97388579 -3.91761109 -0.08705802 0 0 Z " fill="#050505" transform="translate(165,121)"/>
<path d="M0 0 C0.66 0 1.32 0 2 0 C1.375 2.4375 1.375 2.4375 0 5 C-3.125 5.8125 -3.125 5.8125 -6 6 C-6 5.34 -6 4.68 -6 4 C-4.35 3.67 -2.7 3.34 -1 3 C-0.67 2.01 -0.34 1.02 0 0 Z " fill="#030303" transform="translate(250,198)"/>
<path d="M0 0 C-1.29299694 2.88437779 -2.65941363 4.87219421 -5 7 C-5.99 6.67 -6.98 6.34 -8 6 C-7.0479279 4.99403703 -6.08812654 3.99538437 -5.125 3 C-4.59132812 2.443125 -4.05765625 1.88625 -3.5078125 1.3125 C-2 0 -2 0 0 0 Z " fill="#040404" transform="translate(250,192)"/>
<path d="M0 0 C0.99 0.33 1.98 0.66 3 1 C2.34 1.66 1.68 2.32 1 3 C0.34 2.34 -0.32 1.68 -1 1 C-0.67 0.67 -0.34 0.34 0 0 Z M-4 4 C-3.34 4.66 -2.68 5.32 -2 6 C-2.33 6.66 -2.66 7.32 -3 8 C-3.99 8 -4.98 8 -6 8 C-5.34 6.68 -4.68 5.36 -4 4 Z " fill="#F8F8F8" transform="translate(221,158)"/>
<path d="M0 0 C5.625 -0.25 5.625 -0.25 9 2 C9 2.66 9 3.32 9 4 C4.545 3.01 4.545 3.01 0 2 C0 1.34 0 0.68 0 0 Z " fill="#040404" transform="translate(149,85)"/>
</svg>
