<?xml version="1.0" encoding="UTF-8"?>
<svg version="1.1" xmlns="http://www.w3.org/2000/svg" width="256" height="256">
<path d="M0 0 C84.48 0 168.96 0 256 0 C256 84.48 256 168.96 256 256 C171.52 256 87.04 256 0 256 C0 171.52 0 87.04 0 0 Z " fill="#FEFEFE" transform="translate(0,0)"/>
<path d="M0 0 C7.89205072 5.7467909 12.13239307 15.01376281 13.96875 24.43359375 C15.60898015 37.7538021 12.96179046 48.51108314 6.96875 60.43359375 C5.81874512 60.4586499 4.66874023 60.48370605 3.48388672 60.50952148 C-0.79893373 60.60397589 -5.08160632 60.70410251 -9.36425781 60.8059082 C-11.21480846 60.84911361 -13.06539529 60.89079833 -14.91601562 60.9309082 C-17.58214194 60.98896095 -20.2480886 61.05255299 -22.9140625 61.1171875 C-23.73617218 61.13389999 -24.55828186 61.15061249 -25.40530396 61.16783142 C-31.77673555 61.31422972 -31.77673555 61.31422972 -38.03125 62.43359375 C-40.06281461 65.3823255 -40.06281461 65.3823255 -41.40625 68.99609375 C-42.16035156 70.79240234 -42.16035156 70.79240234 -42.9296875 72.625 C-43.29320312 73.55183594 -43.65671875 74.47867188 -44.03125 75.43359375 C-44.36125 75.43359375 -44.69125 75.43359375 -45.03125 75.43359375 C-45.36125 64.54359375 -45.69125 53.65359375 -46.03125 42.43359375 C-48.88094136 46.20334731 -48.88094136 46.20334731 -50.3828125 50.2890625 C-50.59421875 50.99353516 -50.805625 51.69800781 -51.0234375 52.42382812 C-51.23226562 53.14892578 -51.44109375 53.87402344 -51.65625 54.62109375 C-53.92019052 62.32253427 -53.92019052 62.32253427 -55.03125 63.43359375 C-57.36422433 63.47452312 -59.69830225 63.47601098 -62.03125 63.43359375 C-63.02125 58.97859375 -63.02125 58.97859375 -64.03125 54.43359375 C-67.96459705 55.74470943 -68.25685015 57.16715444 -70.16796875 60.78125 C-70.74482422 61.86083984 -71.32167969 62.94042969 -71.91601562 64.05273438 C-72.51091797 65.18904297 -73.10582031 66.32535156 -73.71875 67.49609375 C-74.32525391 68.63626953 -74.93175781 69.77644531 -75.55664062 70.95117188 C-77.05676397 73.77423864 -78.54782973 76.60172455 -80.03125 79.43359375 C-82.76407438 76.70076937 -82.79678299 73.87324705 -83.3203125 70.1953125 C-83.42846283 69.47753128 -83.53661316 68.75975006 -83.64804077 68.0202179 C-83.87539246 66.50014256 -84.09872717 64.97946184 -84.31835938 63.45825195 C-84.65361326 61.13933181 -85.00147779 58.82258192 -85.3515625 56.50585938 C-85.57106255 55.02745492 -85.78983607 53.54894237 -86.0078125 52.0703125 C-86.16245468 51.03568123 -86.16245468 51.03568123 -86.32022095 49.98014832 C-86.82793598 46.43528838 -87.14450596 43.01498941 -87.03125 39.43359375 C-90.87183668 40.71378931 -91.09131761 41.90183342 -92.90625 45.43359375 C-93.946426 47.43436944 -94.98832335 49.4342505 -96.03125 51.43359375 C-96.33796631 52.20759521 -96.64468262 52.98159668 -96.96069336 53.77905273 C-98.10209593 56.35813684 -99.14353005 58.33166054 -101.03125 60.43359375 C-104.63514691 61.70812399 -108.05303347 61.60237552 -111.84375 61.49609375 C-112.86025635 61.5024585 -113.8767627 61.50882324 -114.92407227 61.51538086 C-117.96140674 61.52710432 -120.99437283 61.48210294 -124.03125 61.43359375 C-125.72137885 61.43859969 -127.41150467 61.44856058 -129.1015625 61.46484375 C-132.74565921 61.49596294 -136.38719875 61.48119384 -140.03125 61.43359375 C-140.03125 62.09359375 -140.03125 62.75359375 -140.03125 63.43359375 C-134.63766295 63.51902382 -129.25633896 63.50527111 -123.86303711 63.40307617 C-122.03307265 63.38194196 -120.20259756 63.38700576 -118.37280273 63.41967773 C-108.21768706 63.91805996 -108.21768706 63.91805996 -99.32928467 59.93438721 C-96.05840133 55.82338019 -94.10127041 51.22662455 -92.03125 46.43359375 C-90.31665039 43.95678711 -90.31665039 43.95678711 -89.03125 42.43359375 C-87.48697683 46.69630489 -86.56997704 50.73325405 -85.9609375 55.22265625 C-85.78691406 56.49367187 -85.61289063 57.7646875 -85.43359375 59.07421875 C-85.34706543 59.72841797 -85.26053711 60.38261719 -85.17138672 61.05664062 C-84.90595273 63.06083834 -84.63142599 65.06363308 -84.35546875 67.06640625 C-83.03125 76.86363369 -83.03125 76.86363369 -83.03125 81.43359375 C-82.04125 81.43359375 -81.05125 81.43359375 -80.03125 81.43359375 C-79.64791504 80.71179932 -79.26458008 79.99000488 -78.86962891 79.24633789 C-77.13768363 75.99310351 -75.39709688 72.7445728 -73.65625 69.49609375 C-73.05296875 68.35978516 -72.4496875 67.22347656 -71.828125 66.05273438 C-71.24804688 64.97314453 -70.66796875 63.89355469 -70.0703125 62.78125 C-69.53615723 61.78101807 -69.00200195 60.78078613 -68.45166016 59.75024414 C-67.03125 57.43359375 -67.03125 57.43359375 -65.03125 56.43359375 C-64.04125 60.88859375 -64.04125 60.88859375 -63.03125 65.43359375 C-58.57625 64.93859375 -58.57625 64.93859375 -54.03125 64.43359375 C-52.05125 58.49359375 -50.07125 52.55359375 -48.03125 46.43359375 C-47.70125 46.43359375 -47.37125 46.43359375 -47.03125 46.43359375 C-46.70125 56.99359375 -46.37125 67.55359375 -46.03125 78.43359375 C-41.77021197 74.17255572 -40.70331085 71.33162539 -38.86328125 65.796875 C-37.03125 63.43359375 -37.03125 63.43359375 -33.421875 62.60546875 C-31.62675031 62.50764525 -29.82887342 62.45792781 -28.03125 62.43359375 C-26.76885498 62.41321045 -25.50645996 62.39282715 -24.20581055 62.37182617 C-19.79308339 62.32469625 -15.38155392 62.34609871 -10.96875 62.37109375 C-9.41992332 62.37611872 -7.87109507 62.38067987 -6.32226562 62.38476562 C-2.55855424 62.39569237 1.20508015 62.412902 4.96875 62.43359375 C3.19524936 67.1017287 0.78983975 70.57304295 -2.25512695 74.52001953 C-2.67238037 75.06126465 -3.08963379 75.60250977 -3.51953125 76.16015625 C-3.94314941 76.70704102 -4.36676758 77.25392578 -4.80322266 77.81738281 C-5.92751425 79.29706678 -7.00357973 80.81307493 -8.07421875 82.33203125 C-13.6722441 90.10196807 -20.17144145 96.89725525 -26.90625 103.68359375 C-28.26979614 105.06780518 -28.26979614 105.06780518 -29.66088867 106.47998047 C-35.25275067 112.03444038 -40.94792966 116.81269436 -47.38232422 121.34838867 C-51.35666878 124.47694875 -54.22664833 128.25631733 -57.03125 132.43359375 C-60.73536548 131.8559252 -63.4409247 130.84944187 -66.6640625 128.94921875 C-67.54320313 128.43286865 -68.42234375 127.91651855 -69.328125 127.38452148 C-70.26140625 126.82321533 -71.1946875 126.26190918 -72.15625 125.68359375 C-73.61417969 124.81166382 -73.61417969 124.81166382 -75.1015625 123.92211914 C-93.85388367 112.5910657 -110.41946706 100.0925872 -126.03125 84.74609375 C-126.73781738 84.05741211 -127.44438477 83.36873047 -128.17236328 82.65917969 C-139.4480941 71.36461563 -146.72921747 56.75257275 -147.34375 40.62109375 C-147.09566719 29.98661067 -143.70704955 18.1093933 -136.03125 10.43359375 C-132.81663106 8.19136844 -129.49194119 6.26944822 -126.03125 4.43359375 C-125.391875 4.088125 -124.7525 3.74265625 -124.09375 3.38671875 C-113.05696946 -1.65594822 -95.40396949 1.04138818 -83.94140625 4.31640625 C-76.90216802 7.00507769 -71.61603445 10.37512859 -67.03125 16.43359375 C-66.37125 16.76359375 -65.71125 17.09359375 -65.03125 17.43359375 C-64.97066406 16.84578125 -64.91007812 16.25796875 -64.84765625 15.65234375 C-63.1161496 10.94662233 -57.18412524 8.83403453 -53.03125 6.43359375 C-52.40089844 6.04945312 -51.77054687 5.6653125 -51.12109375 5.26953125 C-37.2794983 -2.48680698 -14.84629994 -7.55383923 0 0 Z " fill="#000000" transform="translate(181.03125,74.56640625)"/>
<path d="M0 0 C-0.33 1.32 -0.66 2.64 -1 4 C-2.65 4 -4.3 4 -6 4 C-6.33 3.01 -6.66 2.02 -7 1 C-2.25 0 -2.25 0 0 0 Z " fill="#070707" transform="translate(155,72)"/>
</svg>
