<?xml version="1.0" encoding="UTF-8"?>
<svg version="1.1" xmlns="http://www.w3.org/2000/svg" width="256" height="256">
<path d="M0 0 C84.48 0 168.96 0 256 0 C256 84.48 256 168.96 256 256 C171.52 256 87.04 256 0 256 C0 171.52 0 87.04 0 0 Z " fill="#FEFEFE" transform="translate(0,0)"/>
<path d="M0 0 C11.22970459 9.26024544 17.04427909 21.75761616 18.56640625 36.09765625 C19.20879679 50.67992148 14.6342135 63.89453868 4.94140625 74.78515625 C2.54447269 77.30628326 0.08893971 79.7634984 -2.37109375 82.22265625 C-1.80189209 82.48892822 -1.23269043 82.7552002 -0.64624023 83.02954102 C1.97388411 84.2660311 4.58242539 85.5253339 7.19140625 86.78515625 C8.08666016 87.20345703 8.98191406 87.62175781 9.90429688 88.05273438 C15.93172463 90.98917354 20.16503986 94.25451316 24.62890625 99.22265625 C25.37269531 99.90070313 26.11648437 100.57875 26.8828125 101.27734375 C33.87486659 109.06714897 35.58416842 121.71020623 37.50390625 131.59765625 C37.71909912 132.70254395 37.93429199 133.80743164 38.15600586 134.94580078 C39.31748061 141.31877476 39.62890625 146.57089987 39.62890625 153.22265625 C-5.91109375 153.22265625 -51.45109375 153.22265625 -98.37109375 153.22265625 C-95.79986712 112.08303009 -95.79986712 112.08303009 -82.37109375 97.22265625 C-78.75618292 94.57709198 -74.94481617 92.57586483 -70.93359375 90.59765625 C-69.91587891 90.07042969 -68.89816406 89.54320312 -67.84960938 89 C-65.36730776 87.7180602 -62.87578706 86.46010355 -60.37109375 85.22265625 C-61.10585937 84.64515625 -61.840625 84.06765625 -62.59765625 83.47265625 C-76.378886 72.29239099 -83.65038862 59.09913222 -85.6796875 41.5546875 C-85.74488893 39.38769866 -85.63633966 37.37318851 -85.37109375 35.22265625 C-85.27699219 34.45050781 -85.18289062 33.67835938 -85.0859375 32.8828125 C-82.77566983 18.68475976 -75.80292958 7.35081282 -64.95703125 -1.921875 C-44.62212816 -16.51262873 -19.5815709 -14.67811328 0 0 Z " fill="#000000" transform="translate(163.37109375,102.77734375)"/>
<path d="M0 0 C5.16168618 4.26400163 9.54645986 9.74320186 10.2734375 16.56640625 C10.53009265 24.13773318 9.57198499 29.82342412 5 36 C-0.21279583 41.06566046 -5.87543953 44.26718479 -13.25 44.375 C-20.98423513 44.18788141 -26.51371614 41.93175358 -31.875 36.3125 C-36.36748639 30.66032527 -38.36986873 25.17690468 -37.9375 17.9375 C-36.8317241 10.42986362 -33.92041471 4.9509162 -27.91796875 0.25390625 C-18.61810851 -5.82604311 -9.57562986 -5.0772338 0 0 Z " fill="#030303" transform="translate(154,99)"/>
<path d="M0 0 C5.22646118 3.56349626 8.41166214 7.5197632 9.66015625 13.7265625 C9.88683804 19.14721399 7.78001317 23.52126841 4.5625 27.75 C-0.54391032 31.60817669 -4.84322706 33.38836463 -11.3125 32.5625 C-17.05370772 31.17149751 -20.01295115 27.62663133 -23.25 22.875 C-25.22436212 18.92627576 -24.68829693 14.17883233 -24.25 9.875 C-22.06473658 5.42353749 -19.3105479 2.68614855 -15.25 -0.125 C-10.0828841 -1.84737197 -5.14400242 -1.78061622 0 0 Z " fill="#030303" transform="translate(148.25,104.125)"/>
<path d="M0 0 C5.16168618 4.26400163 9.54645986 9.74320186 10.2734375 16.56640625 C10.53009265 24.13773318 9.57198499 29.82342412 5 36 C-0.21279583 41.06566046 -5.87543953 44.26718479 -13.25 44.375 C-20.98423513 44.18788141 -26.51371614 41.93175358 -31.875 36.3125 C-36.36748639 30.66032527 -38.36986873 25.17690468 -37.9375 17.9375 C-36.8317241 10.42986362 -33.92041471 4.9509162 -27.91796875 0.25390625 C-18.61810851 -5.82604311 -9.57562986 -5.0772338 0 0 Z M-32.62109375 7.9375 C-36.31900862 13.46865879 -36.36640097 18.88444539 -35.59375 25.28515625 C-34.22983438 31.52148097 -31.19569721 35.49815429 -25.875 38.9375 C-20.014068 42.30126448 -14.65516303 42.63816632 -8 42 C-1.82484396 40.25072371 2.5282227 36.31823211 6 31 C8.91366347 24.97310707 9.16692093 18.04444186 7.3125 11.6171875 C4.59241888 5.65567638 0.3999494 2.31317986 -5.3125 -0.8125 C-16.23999628 -4.33152423 -25.543435 -0.99578622 -32.62109375 7.9375 Z " fill="#FAFAFA" transform="translate(154,99)"/>
<path d="M0 0 C2.4375 2.125 2.4375 2.125 4 5 C4 8.92016134 3.55226285 11.17160572 1.375 14.4375 C-2.00237979 16.65946039 -4.03523594 16.62601538 -8 16 C-11.38677089 13.54999553 -12.78698584 12.13607554 -13.5625 8 C-12.87206143 4.31766096 -11.63186072 2.63186072 -9 0 C-5.39297148 -1.20234284 -3.64185324 -1.0405295 0 0 Z " fill="#020202" transform="translate(145,112)"/>
<path d="M0 0 C-0.11859375 0.88042969 -0.2371875 1.76085937 -0.359375 2.66796875 C-0.48828125 3.82941406 -0.6171875 4.99085937 -0.75 6.1875 C-0.88921875 7.33605469 -1.0284375 8.48460938 -1.171875 9.66796875 C-0.96135776 13.74913243 0.14956605 15.15476758 3 18 C6.13871188 19.56935594 8.53855822 19.35201103 12 19 C14.81331378 16.60416349 14.81331378 16.60416349 17 14 C17.66 14 18.32 14 19 14 C19 13.34 19 12.68 19 12 C20.32 12.33 21.64 12.66 23 13 C22.14500784 16.41996866 21.33769752 18.63160271 18.9375 21.25 C14.46494849 23.91449877 10.06652596 25.42788734 4.81640625 24.6953125 C0.31317877 23.31625229 -2.64424095 21.09022552 -5.15625 17.1015625 C-6.73053923 13.18041618 -6.82786747 9.11864067 -6 5 C-2.85863874 0 -2.85863874 0 0 0 Z " fill="#030303" transform="translate(132,110)"/>
<path d="M0 0 C5.22646118 3.56349626 8.41166214 7.5197632 9.66015625 13.7265625 C9.88683804 19.14721399 7.78001317 23.52126841 4.5625 27.75 C-0.54391032 31.60817669 -4.84322706 33.38836463 -11.3125 32.5625 C-17.05370772 31.17149751 -20.01295115 27.62663133 -23.25 22.875 C-25.22436212 18.92627576 -24.68829693 14.17883233 -24.25 9.875 C-22.06473658 5.42353749 -19.3105479 2.68614855 -15.25 -0.125 C-10.0828841 -1.84737197 -5.14400242 -1.78061622 0 0 Z M-20.625 7.5 C-22.83907902 12.09847181 -23.14636613 15.86169564 -22.25 20.875 C-20.47079479 25.26971885 -17.79510011 27.96175395 -13.5 29.9375 C-8.77949123 31.38310004 -4.79109269 30.6202383 -0.25 28.875 C4.00498788 26.47000685 5.88599583 23.64239277 7.37109375 19.09375 C8.05861378 15.06785951 7.33139523 11.60766262 5.75 7.875 C2.66254751 4.05630876 -0.46164988 1.31099656 -5.3984375 0.5390625 C-12.35133073 0.41708192 -15.88995026 2.26652397 -20.625 7.5 Z " fill="#FBFBFB" transform="translate(148.25,104.125)"/>
<path d="M0 0 C3.44394159 2.6020892 4.7839468 4.30100434 6.0625 8.4375 C5.98493382 12.85877235 4.80829096 14.64565246 2 18 C-1.76875875 20.51250583 -3.53150134 20.53016086 -8 20 C-10.97361628 18.21847933 -13.42653612 16.14692775 -15 13 C-15.43964729 9.13110388 -15.12635224 7.24334506 -13.3125 3.75 C-9.36794237 -0.94082529 -5.86069075 -1.83146586 0 0 Z M-11 4 C-13.34549674 7.51824511 -13.57991403 8.85775694 -13 13 C-10.39836569 16.62652055 -8.90093281 17.82303105 -4.5 18.6875 C-0.80678618 18.2593629 -0.80678618 18.2593629 2 15.4375 C4.30907001 12.13161668 4.30907001 12.13161668 4 8.3125 C2.91417162 4.42302593 2.91417162 4.42302593 0 2 C-4.7528764 0.5534724 -7.08397375 0.95420181 -11 4 Z " fill="#FAFAFA" transform="translate(145,110)"/>
<path d="M0 0 C0.495 0.515625 0.99 1.03125 1.5 1.5625 C5.24714452 3.7171081 7.80844613 2.76845154 12 2 C12 2.66 12 3.32 12 4 C12.556875 3.649375 13.11375 3.29875 13.6875 2.9375 C16.56103283 1.77255426 18.05015281 2.22372442 21 3 C23.6465335 3 25.5808163 2.01860366 28 1 C29.5 2.375 29.5 2.375 31 4 C31 4.66 31 5.32 31 6 C30.34 6 29.68 6 29 6 C28.67 5.34 28.34 4.68 28 4 C27.4225 4.33 26.845 4.66 26.25 5 C23.35426073 6.28699523 21.03120558 6.32225174 18 5.375 C15.39225482 4.88604778 14.21979834 5.65226529 12 7 C11.67 6.01 11.34 5.02 11 4 C10.443125 4.350625 9.88625 4.70125 9.3125 5.0625 C6.42840819 6.23172641 4.94809235 5.85339516 2 5 C1.34 4.67 0.68 4.34 0 4 C-0.99 4.99 -1.98 5.98 -3 7 C-2.25 2.25 -2.25 2.25 0 0 Z " fill="#FAFAFA" transform="translate(118,166)"/>
</svg>
