<?xml version="1.0" encoding="UTF-8"?>
<svg version="1.1" xmlns="http://www.w3.org/2000/svg" width="256" height="256">
<path d="M0 0 C84.48 0 168.96 0 256 0 C256 84.48 256 168.96 256 256 C171.52 256 87.04 256 0 256 C0 171.52 0 87.04 0 0 Z " fill="#FEFEFE" transform="translate(0,0)"/>
<path d="M0 0 C5.51949378 5.36617451 7.87004003 11.00794038 8.5625 18.625 C7.81750194 27.11797787 4.09815283 32.16310147 -1.75 38.1875 C-0.98945313 38.3009375 -0.22890625 38.414375 0.5546875 38.53125 C3.29239352 39.1978219 4.36669572 39.79991347 6.375 41.6875 C9.04530799 44.3325352 9.04530799 44.3325352 12.25 45.1875 C13.53945834 52.92425002 14.62821763 60.1974491 10.25 67.1875 C8.0381488 69.97443251 5.69734088 72.60605825 3.25 75.1875 C4.24 75.5175 5.23 75.8475 6.25 76.1875 C6.745 74.7025 6.745 74.7025 7.25 73.1875 C7.58 73.1875 7.91 73.1875 8.25 73.1875 C8.24777939 74.4011322 8.24555878 75.6147644 8.24327087 76.86517334 C8.22294008 88.34002724 8.20798014 99.81487746 8.19818783 111.28974533 C8.19298417 117.18812566 8.18593253 123.08649137 8.17456055 128.98486328 C8.16364185 134.68422844 8.15770423 140.38357959 8.15512276 146.08295441 C8.15328463 148.25008616 8.14969541 150.41721721 8.14426994 152.58434296 C8.05357902 167.23862725 8.05357902 167.23862725 9.01026917 181.85235596 C9.78134426 189.36316036 9.61498312 195.33735579 6.25 202.1875 C4.375 204.25 4.375 204.25 2.25 205.1875 C-2.13015657 205.07518829 -4.66783091 203.18636722 -7.75 200.1875 C-10.21769346 195.46836608 -10.58546227 190.28220318 -11.2578125 185.07421875 C-11.45333206 183.61989189 -11.45333206 183.61989189 -11.65280151 182.13618469 C-12.06630043 179.04990054 -12.47076619 175.96250995 -12.875 172.875 C-13.15435233 170.77791537 -13.43429352 168.68090909 -13.71484375 166.58398438 C-14.40005688 161.45270592 -15.07717302 156.32041663 -15.75 151.1875 C-15.88575439 152.25597168 -16.02150879 153.32444336 -16.16137695 154.42529297 C-16.6729109 158.43341511 -17.19558476 162.44002227 -17.72143555 166.44628906 C-17.94642741 168.17213931 -18.16849728 169.89837334 -18.38745117 171.625 C-21.69110557 197.63281232 -21.69110557 197.63281232 -28.75 204.1875 C-31.59722052 205.29861045 -32.96239892 205.41914738 -35.875 204.5625 C-38.35513238 202.74373626 -39.35360809 200.92389616 -40.75 198.1875 C-41.14872742 195.5247345 -41.14872742 195.5247345 -41.18237305 192.60864258 C-41.20216217 191.4983519 -41.22195129 190.38806122 -41.24234009 189.24412537 C-41.25193253 187.43138878 -41.25193253 187.43138878 -41.26171875 185.58203125 C-41.28871353 183.66143639 -41.28871353 183.66143639 -41.31625366 181.70204163 C-41.36460747 178.19792725 -41.39410856 174.69388191 -41.41975784 171.18953705 C-41.44345615 168.26495851 -41.47807324 165.34055094 -41.51267529 162.41608429 C-41.88934393 130.34188284 -41.85470164 98.26323786 -41.75 66.1875 C-41.42 67.1775 -41.09 68.1675 -40.75 69.1875 C-40.09 69.1875 -39.43 69.1875 -38.75 69.1875 C-38.75 70.1775 -38.75 71.1675 -38.75 72.1875 C-38.09 72.5175 -37.43 72.8475 -36.75 73.1875 C-36.02840576 74.83113134 -35.35648579 76.49800386 -34.75 78.1875 C-34.09 78.1875 -33.43 78.1875 -32.75 78.1875 C-32.646875 78.826875 -32.54375 79.46625 -32.4375 80.125 C-32.210625 80.805625 -31.98375 81.48625 -31.75 82.1875 C-30.265 82.6825 -30.265 82.6825 -28.75 83.1875 C-28.255 83.6825 -28.255 83.6825 -27.75 84.1875 C-27.75 83.1975 -27.75 82.2075 -27.75 81.1875 C-28.41 81.1875 -29.07 81.1875 -29.75 81.1875 C-30.3275 80.135625 -30.905 79.08375 -31.5 78 C-33.80329269 73.96515394 -36.4603593 70.4771407 -39.75 67.1875 C-40.08 66.5275 -40.41 65.8675 -40.75 65.1875 C-41.41 64.89875 -42.07 64.61 -42.75 64.3125 C-44.75 63.1875 -44.75 63.1875 -45.375 61.125 C-45.49875 60.485625 -45.6225 59.84625 -45.75 59.1875 C-46.41 58.8575 -47.07 58.5275 -47.75 58.1875 C-48.07196385 54.60097248 -47.87724586 51.621557 -46.75 48.1875 C-41.6005275 42.21375737 -36.67972239 38.83018324 -28.75 38.1875 C-29.471875 37.73375 -30.19375 37.28 -30.9375 36.8125 C-36.21384364 31.8879126 -39.0158887 25.92102752 -39.375 18.6875 C-39.01006209 11.89773418 -36.70835815 6.12155952 -31.84765625 1.30078125 C-21.8663109 -6.61149443 -10.5605715 -6.96037667 0 0 Z " fill="#000000" transform="translate(140.75,36.8125)"/>
<path d="M0 0 C5.51949378 5.36617451 7.87004003 11.00794038 8.5625 18.625 C7.81750194 27.11797787 4.09815283 32.16310147 -1.75 38.1875 C-0.98945313 38.3009375 -0.22890625 38.414375 0.5546875 38.53125 C3.29239352 39.1978219 4.36669572 39.79991347 6.375 41.6875 C9.04530799 44.3325352 9.04530799 44.3325352 12.25 45.1875 C13.53512763 52.89826581 14.6542408 60.23183694 10.25 67.1875 C8.45686962 69.26753124 6.61971589 71.25540257 4.67578125 73.1953125 C2.88008454 75.70436818 3.16272453 77.16679884 3.25 80.1875 C1.0625 83 1.0625 83 -1.75 85.1875 C-4.5625 85.5 -4.5625 85.5 -6.75 85.1875 C-7.08 84.1975 -7.41 83.2075 -7.75 82.1875 C-9.08076989 81.84407551 -10.41431979 81.51130126 -11.75 81.1875 C-12.41 80.1975 -13.07 79.2075 -13.75 78.1875 C-16.87197478 79.4964572 -16.87197478 79.4964572 -18.75 82.1875 C-19.74 82.1875 -20.73 82.1875 -21.75 82.1875 C-21.75 82.8475 -21.75 83.5075 -21.75 84.1875 C-24.225 84.6825 -24.225 84.6825 -26.75 85.1875 C-27.08 84.1975 -27.41 83.2075 -27.75 82.1875 C-28.41 81.8575 -29.07 81.5275 -29.75 81.1875 C-30.73664781 79.47731046 -31.71996965 77.76492455 -32.671875 76.03515625 C-34.61321727 72.70814576 -37.03602085 69.90147915 -39.75 67.1875 C-40.08 66.5275 -40.41 65.8675 -40.75 65.1875 C-41.41 64.89875 -42.07 64.61 -42.75 64.3125 C-44.75 63.1875 -44.75 63.1875 -45.375 61.125 C-45.49875 60.485625 -45.6225 59.84625 -45.75 59.1875 C-46.41 58.8575 -47.07 58.5275 -47.75 58.1875 C-48.07196385 54.60097248 -47.87724586 51.621557 -46.75 48.1875 C-41.6005275 42.21375737 -36.67972239 38.83018324 -28.75 38.1875 C-29.471875 37.73375 -30.19375 37.28 -30.9375 36.8125 C-36.21384364 31.8879126 -39.0158887 25.92102752 -39.375 18.6875 C-39.01006209 11.89773418 -36.70835815 6.12155952 -31.84765625 1.30078125 C-21.8663109 -6.61149443 -10.5605715 -6.96037667 0 0 Z " fill="#050505" transform="translate(140.75,36.8125)"/>
<path d="M0 0 C0.99 0.66 1.98 1.32 3 2 C3.99 1.67 4.98 1.34 6 1 C6 1.99 6 2.98 6 4 C6.99 4 7.98 4 9 4 C9 4.66 9 5.32 9 6 C7.02 6.99 7.02 6.99 5 8 C5 9.32 5 10.64 5 12 C5.763125 11.835 6.52625 11.67 7.3125 11.5 C10 11 10 11 13 11 C13 11.66 13 12.32 13 13 C13.33 13.99 13.66 14.98 14 16 C13.34 16.33 12.68 16.66 12 17 C12.33 17.66 12.66 18.32 13 19 C12.01 19 11.02 19 10 19 C9.67 18.34 9.34 17.68 9 17 C7.02463255 17.34786708 7.02463255 17.34786708 5 18 C4.67 18.66 4.34 19.32 4 20 C5.32 20 6.64 20 8 20 C8 21.32 8 22.64 8 24 C8.2981424 25.34164079 8.62243192 26.67851173 9 28 C7 27 5 26 3 25 C3 25.66 3 26.32 3 27 C2.34 27 1.68 27 1 27 C1 25.35 1 23.7 1 22 C-1.34287418 24.67247634 -1.34287418 24.67247634 -2 28 C-2.99 28 -3.98 28 -5 28 C-5.66 28.66 -6.32 29.32 -7 30 C-7.33 28.35 -7.66 26.7 -8 25 C-8.99 24.67 -9.98 24.34 -11 24 C-9.68 23.67 -8.36 23.34 -7 23 C-7.99 22.67 -8.98 22.34 -10 22 C-10 21.01 -10 20.02 -10 19 C-10.99 19 -11.98 19 -13 19 C-13.33 19.66 -13.66 20.32 -14 21 C-14.99 20.01 -15.98 19.02 -17 18 C-16.2575 17.319375 -16.2575 17.319375 -15.5 16.625 C-13.77390663 15.12364481 -13.77390663 15.12364481 -14 13 C-13.01 13.33 -12.02 13.66 -11 14 C-10.67 13.01 -10.34 12.02 -10 11 C-12.475 10.01 -12.475 10.01 -15 9 C-13.625 7 -13.625 7 -12 5 C-11.34 5 -10.68 5 -10 5 C-10 4.34 -10 3.68 -10 3 C-9.34 3 -8.68 3 -8 3 C-7.67 4.65 -7.34 6.3 -7 8 C-6.01 7.34 -5.02 6.68 -4 6 C-4 7.65 -4 9.3 -4 11 C-3.34 11 -2.68 11 -2 11 C-2 9.35 -2 7.7 -2 6 C-1.01 5.67 -0.02 5.34 1 5 C0.67 3.35 0.34 1.7 0 0 Z " fill="#181818" transform="translate(175,18)"/>
<path d="M0 0 C0.99 0.66 1.98 1.32 3 2 C3.99 1.67 4.98 1.34 6 1 C6 1.99 6 2.98 6 4 C6.99 4 7.98 4 9 4 C9 4.66 9 5.32 9 6 C7.02 6.99 7.02 6.99 5 8 C5 9.32 5 10.64 5 12 C5.763125 11.835 6.52625 11.67 7.3125 11.5 C10 11 10 11 13 11 C13 11.66 13 12.32 13 13 C13.33 13.99 13.66 14.98 14 16 C13.34 16.33 12.68 16.66 12 17 C12.33 17.66 12.66 18.32 13 19 C12.01 19 11.02 19 10 19 C9.67 18.34 9.34 17.68 9 17 C7.02463255 17.34786708 7.02463255 17.34786708 5 18 C4.67 18.66 4.34 19.32 4 20 C5.32 20 6.64 20 8 20 C8 22.66666667 8 25.33333333 8 28 C6.35 27.01 4.7 26.02 3 25 C3 25.66 3 26.32 3 27 C2.34 27 1.68 27 1 27 C1 25.35 1 23.7 1 22 C-1.34287418 24.67247634 -1.34287418 24.67247634 -2 28 C-2.99 28 -3.98 28 -5 28 C-5.66 28.66 -6.32 29.32 -7 30 C-7.33 28.35 -7.66 26.7 -8 25 C-8.99 24.67 -9.98 24.34 -11 24 C-9.68 23.67 -8.36 23.34 -7 23 C-7.99 22.67 -8.98 22.34 -10 22 C-10 21.01 -10 20.02 -10 19 C-10.99 19 -11.98 19 -13 19 C-13.33 19.66 -13.66 20.32 -14 21 C-14.66 20.67 -15.32 20.34 -16 20 C-16 17 -16 17 -14 15 C-14 14.34 -14 13.68 -14 13 C-13.01 13.33 -12.02 13.66 -11 14 C-10.67 13.01 -10.34 12.02 -10 11 C-12.475 10.01 -12.475 10.01 -15 9 C-13.625 7 -13.625 7 -12 5 C-11.34 5 -10.68 5 -10 5 C-10 4.34 -10 3.68 -10 3 C-9.34 3 -8.68 3 -8 3 C-7.67 4.65 -7.34 6.3 -7 8 C-6.01 7.34 -5.02 6.68 -4 6 C-4 7.65 -4 9.3 -4 11 C-3.34 11 -2.68 11 -2 11 C-2 9.35 -2 7.7 -2 6 C-1.01 5.67 -0.02 5.34 1 5 C0.67 3.35 0.34 1.7 0 0 Z " fill="#1C1C1C" transform="translate(78,108)"/>
<path d="M0 0 C3.98175544 2.10148204 6.35039045 4.36905358 9 8 C8.34 5.69 7.68 3.38 7 1 C8.70884005 2.62339805 10.37446717 4.29319053 12 6 C12 6.66 12 7.32 12 8 C12.66 8 13.32 8 14 8 C15.625 10 15.625 10 17 12 C17.680625 11.2575 17.680625 11.2575 18.375 10.5 C20 9 20 9 22 9 C22.66 7.68 23.32 6.36 24 5 C24.66 5 25.32 5 26 5 C26 4.34 26 3.68 26 3 C27.98 2.01 29.96 1.02 32 0 C30.55922954 3.36179774 28.75249979 5.59156268 26 8 C25.34 8 24.68 8 24 8 C23.67 8.99 23.34 9.98 23 11 C22.34 11 21.68 11 21 11 C20.773125 11.61875 20.54625 12.2375 20.3125 12.875 C18.57304072 15.69126741 17.18773336 16.24101587 14 17 C11.6875 16.125 11.6875 16.125 10 15 C10 14.34 10 13.68 10 13 C9.01 12.67 8.02 12.34 7 12 C5.68359375 10.29296875 5.68359375 10.29296875 4.4375 8.1875 C4.02371094 7.50042969 3.60992187 6.81335938 3.18359375 6.10546875 C2.05535572 4.09847107 1.00899537 2.06913796 0 0 Z " fill="#FBFBFB" transform="translate(102,88)"/>
<path d="M0 0 C0 0.66 0 1.32 0 2 C0.66 2 1.32 2 2 2 C2.33 2.99 2.66 3.98 3 5 C6.00847418 6.22520264 6.00847418 6.22520264 9 7 C7.50902342 10.7952131 5.24299151 12.61042731 2 15 C1.34 14.67 0.68 14.34 0 14 C-0.625 11.9375 -0.625 11.9375 -1 10 C-1.66 10 -2.32 10 -3 10 C-5.8394052 6.32547562 -7 4.73113419 -7 0 C-4.3333581 -1.33332095 -2.83319697 -0.67102033 0 0 Z " fill="#020202" transform="translate(117,86)"/>
<path d="M0 0 C0.66 0.33 1.32 0.66 2 1 C1.67 2.32 1.34 3.64 1 5 C-0.32 5.33 -1.64 5.66 -3 6 C-2.01 7.485 -2.01 7.485 -1 9 C-0.34 8.01 0.32 7.02 1 6 C1.66 6 2.32 6 3 6 C3 6.99 3 7.98 3 9 C2.34 9 1.68 9 1 9 C1.33 9.99 1.66 10.98 2 12 C1.13375 11.690625 0.2675 11.38125 -0.625 11.0625 C-3.95359647 10.61750665 -3.95359647 10.61750665 -5.6640625 12.4921875 C-6.71235389 13.77802275 -7.72672291 15.09235325 -8.703125 16.43359375 C-9.13109375 16.95050781 -9.5590625 17.46742187 -10 18 C-10.66 18 -11.32 18 -12 18 C-12.66 19.32 -13.32 20.64 -14 22 C-14.99 22 -15.98 22 -17 22 C-17 22.66 -17 23.32 -17 24 C-18.65 24.33 -20.3 24.66 -22 25 C-20.73012888 21.44436087 -18.98578898 20.37562584 -15.8515625 18.4765625 C-12.33145341 15.6693869 -9.7769739 11.91816113 -7.05078125 8.36328125 C-5 6 -5 6 -2 5 C-0.78130071 2.49552484 -0.78130071 2.49552484 0 0 Z " fill="#FAFAFA" transform="translate(136,97)"/>
<path d="M0 0 C2.0625 0.4375 2.0625 0.4375 4 1 C5.0326802 3.78823655 5.04509293 4.8677274 4.0625 7.75 C3.711875 8.4925 3.36125 9.235 3 10 C2.01 10 1.02 10 0 10 C-0.66 10.66 -1.32 11.32 -2 12 C-2.33 10.35 -2.66 8.7 -3 7 C-3.99 6.67 -4.98 6.34 -6 6 C-4.02 5.34 -2.04 4.68 0 4 C-0.33 3.01 -0.66 2.02 -1 1 C-0.67 0.67 -0.34 0.34 0 0 Z " fill="#1D1D1D" transform="translate(170,36)"/>
<path d="M0 0 C1.65 0 3.3 0 5 0 C4.67 0.99 4.34 1.98 4 3 C5.32 3 6.64 3 8 3 C8 4.32 8 5.64 8 7 C8.2981424 8.34164079 8.62243192 9.67851173 9 11 C7 10 5 9 3 8 C3 8.66 3 9.32 3 10 C2.34 10 1.68 10 1 10 C1 8.35 1 6.7 1 5 C0.34 4.67 -0.32 4.34 -1 4 C-0.67 2.68 -0.34 1.36 0 0 Z " fill="#040404" transform="translate(175,35)"/>
<path d="M0 0 C0.99 0.33 1.98 0.66 3 1 C2.67 1.66 2.34 2.32 2 3 C3.32 3 4.64 3 6 3 C6 5.66666667 6 8.33333333 6 11 C4.35 10.01 2.7 9.02 1 8 C1 8.66 1 9.32 1 10 C0.34 10 -0.32 10 -1 10 C-0.9071875 8.824375 -0.9071875 8.824375 -0.8125 7.625 C-0.874375 6.75875 -0.93625 5.8925 -1 5 C-1.99 4.34 -2.98 3.68 -4 3 C-2.1875 1.4375 -2.1875 1.4375 0 0 Z " fill="#030303" transform="translate(80,125)"/>
<path d="M0 0 C0.66 0.33 1.32 0.66 2 1 C1.67 2.32 1.34 3.64 1 5 C-0.32 5.33 -1.64 5.66 -3 6 C-2.01 7.485 -2.01 7.485 -1 9 C-0.34 8.01 0.32 7.02 1 6 C1.66 6 2.32 6 3 6 C3 6.99 3 7.98 3 9 C2.34 9 1.68 9 1 9 C1.33 9.99 1.66 10.98 2 12 C-0.97 11.505 -0.97 11.505 -4 11 C-4.33 11.66 -4.66 12.32 -5 13 C-5.66 13 -6.32 13 -7 13 C-6.1875 9.5625 -6.1875 9.5625 -5 6 C-4.01 5.67 -3.02 5.34 -2 5 C-0.78130071 2.49552484 -0.78130071 2.49552484 0 0 Z " fill="#E5E5E5" transform="translate(136,97)"/>
<path d="M0 0 C4.15050444 3.90635712 8.02455804 8.11250427 11 13 C11 13.99 11 14.98 11 16 C11.66 16 12.32 16 13 16 C13 16.99 13 17.98 13 19 C11.0625 18.25 11.0625 18.25 9 17 C8.25 14.875 8.25 14.875 8 13 C7.34 13 6.68 13 6 13 C2 7.70588235 2 7.70588235 2 4 C1.34 4 0.68 4 0 4 C0 2.68 0 1.36 0 0 Z " fill="#EAEAEA" transform="translate(100,102)"/>
<path d="M0 0 C0.66 0 1.32 0 2 0 C1.67 1.98 1.34 3.96 1 6 C1.66 6.33 2.32 6.66 3 7 C2.67 8.32 2.34 9.64 2 11 C1.34 11 0.68 11 0 11 C0 10.01 0 9.02 0 8 C-0.99 8 -1.98 8 -3 8 C-3.33 8.66 -3.66 9.32 -4 10 C-4.66 9.67 -5.32 9.34 -6 9 C-6 6 -6 6 -4 4 C-4 3.34 -4 2.68 -4 2 C-3.01 2.33 -2.02 2.66 -1 3 C-0.67 2.01 -0.34 1.02 0 0 Z " fill="#090909" transform="translate(68,119)"/>
<path d="M0 0 C1.98 0 3.96 0 6 0 C7.26264601 4.29299643 6.62950412 6.87831311 5 11 C4.34 11 3.68 11 3 11 C2.67 11.99 2.34 12.98 2 14 C1.34 13.67 0.68 13.34 0 13 C0.64544429 9.51460083 2.10134397 6.97180943 4 4 C2.68 3.34 1.36 2.68 0 2 C0 1.34 0 0.68 0 0 Z " fill="#FBFBFB" transform="translate(138,84)"/>
<path d="M0 0 C0.66 0.33 1.32 0.66 2 1 C0.625 3.5 0.625 3.5 -1 6 C-1.66 6 -2.32 6 -3 6 C-3.33 5.01 -3.66 4.02 -4 3 C-3 1 -3 1 0 0 Z M-6 4 C-5.34 4.33 -4.68 4.66 -4 5 C-3.67 5.99 -3.34 6.98 -3 8 C-3.928125 8.12375 -3.928125 8.12375 -4.875 8.25 C-7.18437567 8.81258459 -7.18437567 8.81258459 -8.25 11.0625 C-8.4975 11.701875 -8.745 12.34125 -9 13 C-9.66 12.67 -10.32 12.34 -11 12 C-11 11.01 -11 10.02 -11 9 C-10.360625 8.731875 -9.72125 8.46375 -9.0625 8.1875 C-6.66868314 7.11332248 -6.66868314 7.11332248 -6 4 Z " fill="#686868" transform="translate(144,94)"/>
<path d="M0 0 C1.70884005 1.62339805 3.37446717 3.29319053 5 5 C5 5.66 5 6.32 5 7 C5.66 7 6.32 7 7 7 C7.66 8.32 8.32 9.64 9 11 C8.01 11.99 7.02 12.98 6 14 C2.48001267 9.84001498 1.20744643 5.23226788 0 0 Z " fill="#D9D9D9" transform="translate(109,89)"/>
<path d="M0 0 C0.66 0.66 1.32 1.32 2 2 C0.02 2.99 0.02 2.99 -2 4 C-2 4.66 -2 5.32 -2 6 C-0.35 6 1.3 6 3 6 C3.33 7.32 3.66 8.64 4 10 C1.36 9.34 -1.28 8.68 -4 8 C-4.33 6.35 -4.66 4.7 -5 3 C-3.35 2.01 -1.7 1.02 0 0 Z " fill="#FBFBFB" transform="translate(136,51)"/>
<path d="M0 0 C2.31 0.66 4.62 1.32 7 2 C7.33 3.32 7.66 4.64 8 6 C5.69 7.32 3.38 8.64 1 10 C0.34 9.01 -0.32 8.02 -1 7 C-0.34 6.67 0.32 6.34 1 6 C1.33 6.33 1.66 6.66 2 7 C2 3.89448334 1.4606285 2.64738916 0 0 Z " fill="#F9F9F9" transform="translate(112,52)"/>
<path d="M0 0 C0.66 0 1.32 0 2 0 C2.66 2.31 3.32 4.62 4 7 C0.23375329 8.25541557 -1.37188934 7.37061958 -5 6 C-3.625 4 -3.625 4 -2 2 C-1.34 2 -0.68 2 0 2 C0 1.34 0 0.68 0 0 Z M5 3 C5.33 3.99 5.66 4.98 6 6 C5.34 6 4.68 6 4 6 C4.33 5.01 4.66 4.02 5 3 Z " fill="#030303" transform="translate(165,21)"/>
<path d="M0 0 C0.99 0.33 1.98 0.66 3 1 C3 1.66 3 2.32 3 3 C4.98 2.67 6.96 2.34 9 2 C8.67 2.99 8.34 3.98 8 5 C6.865625 5.12375 5.73125 5.2475 4.5625 5.375 C2.7990625 5.684375 2.7990625 5.684375 1 6 C0.67 6.66 0.34 7.32 0 8 C-0.99 7.01 -1.98 6.02 -3 5 C-2.505 4.54625 -2.01 4.0925 -1.5 3.625 C0.22609337 2.12364481 0.22609337 2.12364481 0 0 Z " fill="#030303" transform="translate(161,31)"/>
<path d="M0 0 C0.66 0.33 1.32 0.66 2 1 C2 1.66 2 2.32 2 3 C2.33 3.99 2.66 4.98 3 6 C2.01 6.495 2.01 6.495 1 7 C1.33 7.66 1.66 8.32 2 9 C1.01 9 0.02 9 -1 9 C-1.33 8.34 -1.66 7.68 -2 7 C-2.99 6.67 -3.98 6.34 -5 6 C-5.33 5.01 -5.66 4.02 -6 3 C-5.195625 2.690625 -4.39125 2.38125 -3.5625 2.0625 C-1.10919595 1.23664655 -1.10919595 1.23664655 0 0 Z " fill="#070707" transform="translate(89,118)"/>
<path d="M0 0 C0.66 0.33 1.32 0.66 2 1 C2 1.66 2 2.32 2 3 C2.33 3.99 2.66 4.98 3 6 C2.01 6.495 2.01 6.495 1 7 C1.33 7.66 1.66 8.32 2 9 C1.01 9 0.02 9 -1 9 C-1.33 8.34 -1.66 7.68 -2 7 C-4.01669827 5.86649466 -4.01669827 5.86649466 -6 5 C-4.60210322 2.20420645 -2.7371003 1.40192942 0 0 Z " fill="#040404" transform="translate(186,28)"/>
<path d="M0 0 C1.485 0.99 1.485 0.99 3 2 C3.99 1.67 4.98 1.34 6 1 C6 1.99 6 2.98 6 4 C6.99 4 7.98 4 9 4 C9 4.66 9 5.32 9 6 C7.02 6.33 5.04 6.66 3 7 C0 3.375 0 3.375 0 0 Z " fill="#030303" transform="translate(78,108)"/>
<path d="M0 0 C0.886875 0.845625 1.77375 1.69125 2.6875 2.5625 C5.33719169 4.83085061 5.33719169 4.83085061 8.875 4.8125 C9.57625 4.544375 10.2775 4.27625 11 4 C11 4.99 11 5.98 11 7 C10 8 10 8 7.4375 8.0625 C6.633125 8.041875 5.82875 8.02125 5 8 C4.67 7.01 4.34 6.02 4 5 C3.34 4.835 2.68 4.67 2 4.5 C1.34 4.335 0.68 4.17 0 4 C-0.33 3.01 -0.66 2.02 -1 1 C-0.67 0.67 -0.34 0.34 0 0 Z " fill="#FCFCFC" transform="translate(129,114)"/>
<path d="M0 0 C0.66 0 1.32 0 2 0 C2 2.31 2 4.62 2 7 C0.02 7 -1.96 7 -4 7 C-4.33 6.34 -4.66 5.68 -5 5 C-3.625 3.5 -3.625 3.5 -2 2 C-1.34 2 -0.68 2 0 2 C0 1.34 0 0.68 0 0 Z " fill="#050505" transform="translate(68,111)"/>
<path d="M0 0 C0.33 0 0.66 0 1 0 C1.33 4.29 1.66 8.58 2 13 C1.01 12.67 0.02 12.34 -1 12 C-1.02712066 10.56260487 -1.04645067 9.12506137 -1.0625 7.6875 C-1.07410156 6.88699219 -1.08570312 6.08648437 -1.09765625 5.26171875 C-1 3 -1 3 0 0 Z " fill="#F8F8F8" transform="translate(125,185)"/>
<path d="M0 0 C0 3 0 3 -2.375 5.6875 C-5 8 -5 8 -7 8 C-7.33 8.99 -7.66 9.98 -8 11 C-8.33 10.34 -8.66 9.68 -9 9 C-8.67 8.34 -8.34 7.68 -8 7 C-7.34 7 -6.68 7 -6 7 C-5.9071875 6.1028125 -5.9071875 6.1028125 -5.8125 5.1875 C-4.6763243 2.12856542 -2.82669858 1.44958901 0 0 Z " fill="#FAFAFA" transform="translate(133,88)"/>
<path d="M0 0 C2.125 0.375 2.125 0.375 4 1 C3.67 2.32 3.34 3.64 3 5 C1.35 5 -0.3 5 -2 5 C-2 2 -2 2 0 0 Z " fill="#F7F7F7" transform="translate(84,124)"/>
<path d="M0 0 C0 0.66 0 1.32 0 2 C0.66 2.33 1.32 2.66 2 3 C1.34 3.66 0.68 4.32 0 5 C-0.33 4.01 -0.66 3.02 -1 2 C-2.98 2.33 -4.96 2.66 -7 3 C-7 2.01 -7 1.02 -7 0 C-4.3333581 -1.33332095 -2.83319697 -0.67102033 0 0 Z " fill="#FAFAFA" transform="translate(117,86)"/>
<path d="M0 0 C1.2065625 0.0309375 1.2065625 0.0309375 2.4375 0.0625 C2.1075 1.7125 1.7775 3.3625 1.4375 5.0625 C0.4475 5.0625 -0.5425 5.0625 -1.5625 5.0625 C-2.2225 3.7425 -2.8825 2.4225 -3.5625 1.0625 C-2.5625 0.0625 -2.5625 0.0625 0 0 Z " fill="#111111" transform="translate(113.5625,87.9375)"/>
<path d="M0 0 C3.26460973 1.80412643 4.88929795 2.83394693 7 6 C7 6.99 7 7.98 7 9 C6.34 9 5.68 9 5 9 C3.08152136 6.12228205 1.49920512 3.11373372 0 0 Z " fill="#D6D6D6" transform="translate(102,88)"/>
<path d="M0 0 C0.99 0.66 1.98 1.32 3 2 C3 2.99 3 3.98 3 5 C3.66 5 4.32 5 5 5 C5 5.99 5 6.98 5 8 C3.0625 7.25 3.0625 7.25 1 6 C0.375 3.9375 0.375 3.9375 0 2 C-0.66 1.67 -1.32 1.34 -2 1 C-1.34 0.67 -0.68 0.34 0 0 Z " fill="#FBFBFB" transform="translate(108,113)"/>
<path d="M0 0 C0.66 0 1.32 0 2 0 C2 0.99 2 1.98 2 3 C1.34 3 0.68 3 0 3 C0.33 3.99 0.66 4.98 1 6 C-0.65 5.67 -2.3 5.34 -4 5 C-2.71937515 3.2925002 -1.38232443 1.62626404 0 0 Z " fill="#FAFAFA" transform="translate(137,103)"/>
</svg>
