<?xml version="1.0" encoding="UTF-8"?>
<svg version="1.1" xmlns="http://www.w3.org/2000/svg" width="256" height="256">
<path d="M0 0 C84.48 0 168.96 0 256 0 C256 84.48 256 168.96 256 256 C171.52 256 87.04 256 0 256 C0 171.52 0 87.04 0 0 Z " fill="#FEFEFE" transform="translate(0,0)"/>
<path d="M0 0 C3.85297417 2.78833657 6.19454142 6.10233328 8.55078125 10.19921875 C10.09094947 12.47693232 11.69052996 13.69371536 13.9375 15.25 C18.20515716 19.51765716 18.49584989 26.43665205 18.9375 32.25 C19.00324219 33.06210938 19.06898438 33.87421875 19.13671875 34.7109375 C19.55506515 44.54929085 17.71710353 54.61499115 11.1875 62.25 C6.22169594 67.19741219 1.4866937 71.72519211 -5.4375 73.375 C-7.48371825 73.90298847 -7.48371825 73.90298847 -9.0625 75.25 C-10.04999425 78.30506034 -10.43375441 81.14431874 -10.7109375 84.33984375 C-11.05274604 87.16925891 -11.47341404 88.9018661 -13.0625 91.25 C-16.57650258 92.42133419 -18.36822351 92.5340222 -21.8125 91.125 C-24.36122512 89.0010624 -25.12729312 87.39569587 -26.0625 84.25 C-26.495625 84.848125 -26.92875 85.44625 -27.375 86.0625 C-27.931875 86.784375 -28.48875 87.50625 -29.0625 88.25 C-29.454375 88.848125 -29.84625 89.44625 -30.25 90.0625 C-32.8783565 91.78452667 -35.05242387 91.10729688 -38.02734375 90.57421875 C-40.37739459 90.14511658 -40.37739459 90.14511658 -44.0625 90.25 C-44.7225 90.91 -45.3825 91.57 -46.0625 92.25 C-50.08450516 93.55443411 -52.31591909 93.12329045 -56.0625 91.25 C-57.0525 90.59 -58.0425 89.93 -59.0625 89.25 C-59.743125 89.765625 -60.42375 90.28125 -61.125 90.8125 C-64.98885729 92.70332378 -66.96331728 92.44248952 -71.0625 91.25 C-73.5 89.25 -73.5 89.25 -75.0625 86.25 C-75.08984375 84.05859375 -75.08984375 84.05859375 -74.9375 81.6875 C-74.77258402 79.35809994 -74.77258402 79.35809994 -75.0625 77.25 C-77.6792447 75.1146306 -77.6792447 75.1146306 -81.0625 73.25 C-83.01961578 71.00519225 -84.77966471 68.66951993 -86.546875 66.2734375 C-88.04716713 64.17064409 -88.04716713 64.17064409 -90.0625 62.25 C-94.01447112 50.31558106 -92.01747042 31.25664952 -87 20.0625 C-79.02963104 5.748368 -66.92810889 -1.43731121 -51.6640625 -5.8046875 C-34.21034357 -10.38581546 -15.67181934 -9.27357243 0 0 Z " fill="#010101" transform="translate(162.0625,67.75)"/>
<path d="M0 0 C0.639375 0.639375 1.27875 1.27875 1.9375 1.9375 C2.39640625 2.38351563 2.8553125 2.82953125 3.328125 3.2890625 C4.59869996 4.58932379 5.80736869 5.95040645 6.984375 7.3359375 C10.98906806 12.11736146 10.98906806 12.11736146 16.5234375 14.4375 C18.20933872 14.35450179 19.89382051 14.23363445 21.57421875 14.07421875 C25.70261754 13.94790703 28.73874564 15.58035967 32 18 C34.92367731 21.21604504 36.24772091 23.77666156 36.5625 28.0625 C36 32 36 32 33.9375 34.875 C31 37 31 37 27.375 37.9375 C26.26125 38.288125 25.1475 38.63875 24 39 C22.98308736 40.99145391 21.98357352 42.99187074 21 45 C17.75 47.0625 17.75 47.0625 14 48 C10.28660103 46.94787029 7.90151075 45.87146039 5.125 43.1875 C3.30327166 39.64525045 2.50144633 36.7592276 3.61328125 32.8359375 C4.34742585 30.86662069 5.16808225 28.93004918 6 27 C0.86877855 21.74595676 -4.4069024 16.76008307 -10 12 C-9.34 10.68 -8.68 9.36 -8 8 C-7.34 8 -6.68 8 -6 8 C-5.7525 7.4225 -5.505 6.845 -5.25 6.25 C-3.83316683 3.6997003 -2.12372463 1.98214299 0 0 Z " fill="#010101" transform="translate(178,126)"/>
<path d="M0 0 C2.34934283 4.02744486 3.04597629 6.88501521 3.125 11.5 C3.35413192 14.69693579 3.71826274 15.71826274 6.0234375 18.0234375 C7.63608254 19.22910587 9.28443507 20.38885462 10.96875 21.4921875 C13 23 13 23 14 26 C13.2578125 27.9375 13.2578125 27.9375 12.125 30 C10.84169028 32.36918718 9.85840339 34.42478983 9 37 C4.57100203 34.92685201 0.62228631 32.1627141 -3.44140625 29.4609375 C-5.94315153 27.75207332 -5.94315153 27.75207332 -9 28 C-9.5775 28.33 -10.155 28.66 -10.75 29 C-14.02646236 30.4562055 -16.44776155 30.36747294 -20 30 C-23.375 28.375 -23.375 28.375 -26 26 C-26.875 22.75 -26.875 22.75 -27 20 C-23.64871128 17.03171571 -21.39704421 15.70204908 -17 15 C-16.90203125 14.32453125 -16.8040625 13.6490625 -16.703125 12.953125 C-15.4864278 5.69489685 -15.4864278 5.69489685 -13.25 2.5 C-9.09283155 -0.27144563 -4.77495439 -2.19389796 0 0 Z " fill="#020202" transform="translate(62,58)"/>
<path d="M0 0 C4.875 4.625 4.875 4.625 6 8 C6 8.66 6 9.32 6 10 C6.66 9.67 7.32 9.34 8 9 C8.66 9.66 9.32 10.32 10 11 C9.32453125 11.59167969 8.6490625 12.18335938 7.953125 12.79296875 C7.06109375 13.58316406 6.1690625 14.37335938 5.25 15.1875 C4.36828125 15.96480469 3.4865625 16.74210937 2.578125 17.54296875 C0.09965145 19.90502915 -2.03882824 22.19373316 -4 25 C-3.979375 25.99 -3.95875 26.98 -3.9375 28 C-4 31 -4 31 -5.8125 33.875 C-10.43126613 36.95417742 -14.59919168 37.03767422 -20 36 C-22.8125 33.6875 -22.8125 33.6875 -25 31 C-26.97620986 29.95377125 -28.9737129 28.94560065 -31 28 C-31.66 27.34 -32.32 26.68 -33 26 C-32.91951793 22.37830703 -32.1964569 20.30871798 -30.25 17.25 C-26.65599239 14.76184089 -25.18436467 14.71068032 -20.9375 14.375 C-12.21119307 13.40099308 -7.72466665 8.13154379 -2 2 C-1.34 1.34 -0.68 0.68 0 0 Z " fill="#030303" transform="translate(74,135)"/>
<path d="M0 0 C0.66 0.66 1.32 1.32 2 2 C3.11375 2.103125 4.2275 2.20625 5.375 2.3125 C9 3 9 3 11.375 5.0625 C13.95643152 9.7289339 14.64567342 13.71530942 13.1875 18.875 C10.65307759 21.33701035 9.88766901 21.2835649 6.5 21.6875 C0.19225156 22.60046359 -3.04266343 26.24154557 -7.359375 30.6875 C-10.18394991 33.16109223 -12.39511688 34.07242774 -16 35 C-20.875 29.5 -20.875 29.5 -22 25 C-19.03 22.36 -16.06 19.72 -13 17 C-13.33 15.68 -13.66 14.36 -14 13 C-14.67967853 5.86337543 -14.67967853 5.86337543 -11.6875 2.0625 C-7.48227399 -1.16476647 -5.0429736 -1.18027042 0 0 Z " fill="#020202" transform="translate(189,44)"/>
<path d="M0 0 C3.78584676 2.49521718 5.11842695 4.96636339 6.5625 9.1875 C6.8274818 12.89724518 6.16404037 15.36961911 4.75 18.8125 C1.71777777 22.1335053 -0.84683843 24.01959351 -5.25 24.8125 C-9.68011088 24.8125 -11.64745485 24.35065681 -15.25 21.8125 C-18.67872169 17.93263072 -19.91819797 14.84586346 -19.63671875 9.76953125 C-18.7727502 5.39732678 -16.30612023 2.6688137 -12.9375 -0.0625 C-8.29592704 -2.00548403 -4.67854386 -1.70946795 0 0 Z " fill="#FCFCFC" transform="translate(107.25,97.1875)"/>
<path d="M0 0 C3.03240352 2.59920302 4.35256275 4.47915787 4.9609375 8.43359375 C5.0309667 12.47427879 4.98385159 14.66841295 2.8125 18.1875 C-1.45898751 22.21490251 -4.19365677 22.7356466 -9.859375 22.64453125 C-13.9264375 22.00668449 -15.60737372 20.2305206 -18.375 17.25 C-20.22610583 13.54778834 -19.83954795 9.29093083 -19.375 5.25 C-14.98611861 -2.27379667 -7.6202592 -3.95124551 0 0 Z " fill="#FCFCFC" transform="translate(147.375,98.75)"/>
<path d="M0 0 C3.13498176 1.08102819 3.9868559 1.97840612 5.75 4.875 C7 8 7 8 7 12 C4.69 11.67 2.38 11.34 0 11 C-1.05404945 7.01803543 -0.84098656 4.01804691 0 0 Z " fill="#FBFBFB" transform="translate(121,126)"/>
<path d="M0 0 C0.66 0 1.32 0 2 0 C2 2.97 2 5.94 2 9 C1.34 9 0.68 9 0 9 C0 9.66 0 10.32 0 11 C-1.98 11.33 -3.96 11.66 -6 12 C-2.83561644 2.95890411 -2.83561644 2.95890411 0 0 Z " fill="#F8F8F8" transform="translate(117,126)"/>
<path d="M0 0 C1.32 0 2.64 0 4 0 C3.75 2.375 3.75 2.375 3 5 C1.1875 6 1.1875 6 -1 7 C-2.33827304 8.66270287 -3.67189785 10.32916181 -5 12 C-5.99 12.33 -6.98 12.66 -8 13 C-6.59578698 8.53204949 -4.3156598 6.23064288 -1 3 C-0.67 2.01 -0.34 1.02 0 0 Z " fill="#F8F8F8" transform="translate(177,122)"/>
<path d="M0 0 C0.66 0 1.32 0 2 0 C3.38938077 1.96147874 4.7260411 3.96166576 6 6 C4.35 6.66 2.7 7.32 1 8 C1 7.01 1 6.02 1 5 C0.68911632 3.32900023 0.35919668 1.66128463 0 0 Z " fill="#F0F0F0" transform="translate(78,138)"/>
</svg>
