<?xml version="1.0" encoding="UTF-8"?>
<svg version="1.1" xmlns="http://www.w3.org/2000/svg" width="256" height="256">
<path d="M0 0 C84.48 0 168.96 0 256 0 C256 84.48 256 168.96 256 256 C171.52 256 87.04 256 0 256 C0 171.52 0 87.04 0 0 Z " fill="#FEFEFE" transform="translate(0,0)"/>
<path d="M0 0 C7.71687229 6.35902543 10.84357046 13.91743951 12.25 23.75 C12.60177122 34.19056979 9.0004111 42.04949419 2.51953125 50.0234375 C1.05073226 51.83576704 1.05073226 51.83576704 0.25 54.75 C1.19875 55.306875 2.1475 55.86375 3.125 56.4375 C6.44707273 58.89583382 7.49854267 59.74792045 8.25 63.75 C6.79504648 66.11967113 5.43676422 67.93906469 3.625 70 C-2.3653116 77.31634033 -6.6444637 83.66245754 -6.19921875 93.50390625 C-5.83654692 96.0584385 -5.83654692 96.0584385 -3.625 98.9375 C-0.91612498 100.95081792 -0.91612498 100.95081792 2.0625 101 C8.0443606 98.65417231 12.20235574 93.84301363 16.625 89.3125 C19.25 86.75 19.25 86.75 21.25 86.75 C21.25 86.09 21.25 85.43 21.25 84.75 C22.9 84.09 24.55 83.43 26.25 82.75 C26.38122487 90.59821941 25.98382389 98.30785881 25.3125 106.125 C24.63009793 114.41571123 24.07575953 122.68775378 23.75 131 C22.82563025 153.17436975 22.82563025 153.17436975 19.25 156.75 C10.02313053 158.2507938 0.38549324 157.94270095 -8.9375 157.9375 C-9.96020493 157.93808914 -9.96020493 157.93808914 -11.00357056 157.93869019 C-19.38369601 157.93293755 -27.61803321 157.69840656 -35.92285156 156.53417969 C-44.38866987 155.39925473 -52.91819337 155.30856725 -61.44799805 155.09204102 C-62.60855713 155.06037842 -63.76911621 155.02871582 -64.96484375 154.99609375 C-66.00761475 154.97216553 -67.05038574 154.9482373 -68.12475586 154.92358398 C-70.75 154.75 -70.75 154.75 -73.75 153.75 C-74.04106161 129.67024932 -73.30285185 105.77996937 -71.75 81.75 C-68.0516009 82.9827997 -67.75778077 84.42847777 -65.96484375 87.703125 C-63.28285117 92.22198067 -60.33938233 96.62549287 -55.40234375 98.76953125 C-53.09647872 99.35068423 -51.12853233 99.79609559 -48.75 99.75 C-45.50150023 98.02773504 -45.50150023 98.02773504 -44.75 94.75 C-43.30926339 81.78337049 -51.97525421 68.91259794 -57.75 57.75 C-54.65636311 54.49495597 -51.85432418 52.6156019 -47.75 50.75 C-48.14832031 50.15574219 -48.54664062 49.56148437 -48.95703125 48.94921875 C-54.73011293 39.9173659 -58.38732347 30.56590262 -56.12890625 19.78515625 C-53.6192606 10.22619481 -49.20170457 2.57078009 -41 -3.1875 C-26.92709408 -10.92622126 -12.67168372 -9.1587417 0 0 Z " fill="#000000" transform="translate(149.75,65.25)"/>
<path d="M0 0 C2.6875 0.6875 2.6875 0.6875 4.5 2.1875 C6.82812754 7.08882114 7.26020042 10.59727542 5.83984375 15.78125 C3.29946734 22.77341143 0.12880257 28.74912914 -4.3125 34.6875 C-5.04082031 35.69167969 -5.76914063 36.69585937 -6.51953125 37.73046875 C-10.19692531 42.73733529 -13.83460412 47.36697426 -18.3125 51.6875 C-22.23748374 55.5390433 -25.89962814 59.36452898 -29.3125 63.6875 C-30.9561814 65.37683922 -32.6267876 67.04009924 -34.3125 68.6875 C-34.92351562 69.32042969 -35.53453125 69.95335937 -36.1640625 70.60546875 C-40.27111356 74.83144986 -44.20738424 78.7014889 -49.3125 81.6875 C-52.32206755 81.6875 -53.58735857 81.26303701 -55.921875 79.41015625 C-58.20994431 76.57577826 -57.84148291 73.95705117 -57.71875 70.43359375 C-56.37809904 61.37130887 -50.0329475 54.45423213 -44.3125 47.6875 C-43.61253906 46.76582031 -42.91257813 45.84414062 -42.19140625 44.89453125 C-41.57136719 44.16621094 -40.95132813 43.43789062 -40.3125 42.6875 C-39.6525 42.6875 -38.9925 42.6875 -38.3125 42.6875 C-38.044375 42.09839844 -37.77625 41.50929687 -37.5 40.90234375 C-36.30099512 38.66604189 -35.03220563 37.10612459 -33.3125 35.25 C-30.15986598 31.73032335 -27.23779194 28.06888965 -24.375 24.3125 C-23.94783691 23.75425537 -23.52067383 23.19601074 -23.08056641 22.62084961 C-21.10806719 20.04208926 -19.13982406 17.46021174 -17.17578125 14.875 C-6.71550919 1.39378493 -6.71550919 1.39378493 0 0 Z " fill="#010101" transform="translate(202.3125,83.3125)"/>
<path d="M0 0 C6.23165173 4.21958706 9.0720172 9.66260293 11.63671875 16.5546875 C13.57398609 21.45058948 15.99028082 26.07231707 18.41015625 30.74414062 C21 35.79931641 21 35.79931641 21 38 C21.99 38.33 22.98 38.66 24 39 C25.27099609 40.83496094 25.27099609 40.83496094 26.5234375 43.234375 C26.98516357 44.11262939 27.44688965 44.99088379 27.92260742 45.89575195 C28.40189697 46.83765381 28.88118652 47.77955566 29.375 48.75 C29.86524658 49.70414795 30.35549316 50.6582959 30.8605957 51.64135742 C41.2815326 72.18946336 41.2815326 72.18946336 40 81 C38.5 83.5 38.5 83.5 37 85 C32.60314776 84.69092422 29.18625413 84.0966843 25.87890625 81.0390625 C21.20352224 75.18754239 21.20352224 75.18754239 20.59765625 71.65234375 C19.74251179 67.8572909 17.62066942 65.0232373 15.4375 61.875 C14.98930908 61.21483887 14.54111816 60.55467773 14.0793457 59.87451172 C11.36278222 55.89677267 8.55320663 51.99698529 5.6875 48.125 C0.21740565 40.66379131 -3.6949796 32.71186519 -7.50219727 24.31542969 C-8.76122753 21.55489998 -10.04138995 18.93451449 -11.6640625 16.3671875 C-13.14562999 13.74195388 -13.51240984 11.86315321 -13.75 8.875 C-13.82734375 8.02679688 -13.9046875 7.17859375 -13.984375 6.3046875 C-14 4 -14 4 -13 1 C-8.83297523 -1.52546956 -4.51418888 -1.65742359 0 0 Z " fill="#010101" transform="translate(64,79)"/>
<path d="M0 0 C3.06458538 2.04305692 3.82153128 3.44079802 4.9375 6.9375 C5.0128328 10.62880732 4.24574926 12.1126081 2 15 C-1.7205836 17.48038907 -3.59796571 17.46337203 -8 17 C-11.32635764 14.81160682 -11.90585122 13.37659512 -12.875 9.5 C-12.99677465 6.09030968 -12.99358484 4.69133953 -11 2 C-7.31572341 -0.45618439 -4.27922232 -0.69019715 0 0 Z " fill="#FBFBFB" transform="translate(132,93)"/>
<path d="M0 0 C2.625 0.375 2.625 0.375 5 1 C5.33 1.99 5.66 2.98 6 4 C5.01 5.485 5.01 5.485 4 7 C2.35 6.67 0.7 6.34 -1 6 C-1.625 4.125 -1.625 4.125 -2 2 C-1.34 1.34 -0.68 0.68 0 0 Z " fill="#FAFAFA" transform="translate(136,83)"/>
<path d="M0 0 C0.26941406 0.56332031 0.53882812 1.12664062 0.81640625 1.70703125 C2.06837707 4.13246646 3.45071762 6.39868743 4.9375 8.6875 C5.44152344 9.47511719 5.94554688 10.26273438 6.46484375 11.07421875 C7.93912768 13.28232381 7.93912768 13.28232381 11 14 C11 14.66 11 15.32 11 16 C5.61838837 15.19571518 3.17418489 11.07890425 0 7 C-1.9375 4 -1.9375 4 -3 2 C-2.01 1.34 -1.02 0.68 0 0 Z " fill="#F5F5F5" transform="translate(84,148)"/>
<path d="M0 0 C1.65 0.33 3.3 0.66 5 1 C5.625 2.875 5.625 2.875 6 5 C5.34 5.66 4.68 6.32 4 7 C1.375 6.625 1.375 6.625 -1 6 C-1.33 5.01 -1.66 4.02 -2 3 C-1.34 2.01 -0.68 1.02 0 0 Z " fill="#FAFAFA" transform="translate(114,82)"/>
<path d="M0 0 C1.8871875 0.061875 1.8871875 0.061875 3.8125 0.125 C2.8125 2.125 2.8125 2.125 0.8125 3.125 C0.8125 2.465 0.8125 1.805 0.8125 1.125 C0.1525 1.125 -0.5075 1.125 -1.1875 1.125 C-1.5175 2.115 -1.8475 3.105 -2.1875 4.125 C-2.8475 3.795 -3.5075 3.465 -4.1875 3.125 C-4.8475 4.445 -5.5075 5.765 -6.1875 7.125 C-6.8475 7.125 -7.5075 7.125 -8.1875 7.125 C-7.875 4.75 -7.875 4.75 -7.1875 2.125 C-4.09861478 0.06574319 -3.47814073 -0.1140374 0 0 Z " fill="#F5F5F5" transform="translate(128.1875,92.875)"/>
<path d="M0 0 C-0.33 0.99 -0.66 1.98 -1 3 C-1.99 3 -2.98 3 -4 3 C-5.68798827 4.43750191 -5.68798827 4.43750191 -7 6 C-7 3 -7 3 -5.75 1.3125 C-4 0 -4 0 0 0 Z " fill="#060606" transform="translate(136,58)"/>
</svg>
