<?xml version="1.0" encoding="UTF-8"?>
<svg version="1.1" xmlns="http://www.w3.org/2000/svg" width="256" height="256">
<path d="M0 0 C84.48 0 168.96 0 256 0 C256 84.48 256 168.96 256 256 C171.52 256 87.04 256 0 256 C0 171.52 0 87.04 0 0 Z " fill="#FEFEFE" transform="translate(0,0)"/>
<path d="M0 0 C18.91014839 15.85335737 30.66179407 34.71339215 35 59.3125 C36.80254059 85.71661182 31.89506703 108.48002328 15 129.3125 C14.5565625 129.91835937 14.113125 130.52421875 13.65625 131.1484375 C0.84145513 147.79204303 -19.92724536 156.58451324 -39.80859375 160.92578125 C-64.43446617 163.90982209 -89.10058658 158.98045288 -109 143.625 C-127.75899019 127.89836639 -140.83738233 108.06385534 -144 83.3125 C-145.95739139 58.67558756 -140.5532465 34.97364613 -124.734375 15.52734375 C-122.54650403 13.0604076 -120.29529451 10.67925972 -118 8.3125 C-117.46117188 7.70019531 -116.92234375 7.08789062 -116.3671875 6.45703125 C-87.40802297 -25.33984035 -32.63914567 -25.18611241 0 0 Z " fill="#000000" transform="translate(182,54.6875)"/>
<path d="M0 0 C0.763125 0.350625 1.52625 0.70125 2.3125 1.0625 C5.04759379 2.32360884 5.04759379 2.32360884 8 1 C8.61875 1.495 9.2375 1.99 9.875 2.5 C11.94611211 4.31496211 11.94611211 4.31496211 14.75 3.6875 C15.4925 3.460625 16.235 3.23375 17 3 C17.33 3.66 17.66 4.32 18 5 C20.58340384 5.02703562 23.16652308 5.04685611 25.75 5.0625 C26.47960937 5.07087891 27.20921875 5.07925781 27.9609375 5.08789062 C31.5040923 5.10399587 34.58627843 4.867147 38 4 C38.99 4 39.98 4 41 4 C41.33 3.34 41.66 2.68 42 2 C45.45043117 0.84985628 48.35282355 0 52 0 C53.125 5.625 53.125 5.625 52 9 C51.34 9 50.68 9 50 9 C49.67 9.99 49.34 10.98 49 12 C46.6875 13.0625 46.6875 13.0625 44 14 C43.38125 14.33 42.7625 14.66 42.125 15 C34.72460602 18.48253834 26.99237264 19.59847453 19 18 C18.67 17.67 18.34 17.34 18 17 C17.46375 17.19078125 16.9275 17.3815625 16.375 17.578125 C12.82670449 18.20841433 10.34974015 16.98486183 7 15.75 C5.783125 15.31171875 4.56625 14.8734375 3.3125 14.421875 C0.45153881 13.19382091 -1.64581398 12.00105812 -4 10 C-3.835 9.236875 -3.67 8.47375 -3.5 7.6875 C-2.90854604 4.96403764 -2.90854604 4.96403764 -3 2 C-2.01 2 -1.02 2 0 2 C0 1.34 0 0.68 0 0 Z " fill="#F8F8F8" transform="translate(62,110)"/>
<path d="M0 0 C2.875 -0.125 2.875 -0.125 6 0 C6.66 0.66 7.32 1.32 8 2 C13.06674177 3.80728586 17.73111206 4.28388094 23.0625 4.1875 C23.74376953 4.18685547 24.42503906 4.18621094 25.12695312 4.18554688 C29.18551705 4.15045843 33.01410395 3.73424401 37 3 C38.66621616 2.96125079 40.33394172 2.9549714 42 3 C42.99 3 43.98 3 45 3 C45.66 3.99 46.32 4.98 47 6 C47.66 6.66 48.32 7.32 49 8 C47.66666667 9.33333333 46.33333333 10.66666667 45 12 C44.67 12.66 44.34 13.32 44 14 C39.05367218 16.87577199 34.69600834 18 29 18 C28.01128906 18.02320313 27.02257812 18.04640625 26.00390625 18.0703125 C24.86824219 18.08835938 23.73257813 18.10640625 22.5625 18.125 C21.42941406 18.14820313 20.29632813 18.17140625 19.12890625 18.1953125 C16.12630984 18.00788451 14.51730357 17.57099535 12 16 C12 15.34 12 14.68 12 14 C11.46375 14.2475 10.9275 14.495 10.375 14.75 C8 15 8 15 4.9375 13.4375 C1.72243187 10.76967751 0.363798 8.93094719 -1 5 C-0.6875 2.125 -0.6875 2.125 0 0 Z " fill="#FCFCFC" transform="translate(147,112)"/>
<path d="M0 0 C0.99 0 1.98 0 3 0 C3 0.66 3 1.32 3 2 C3.99 2.33 4.98 2.66 6 3 C7.31640625 4.59375 7.31640625 4.59375 8.5625 6.5 C10.31619395 9.25536594 10.31619395 9.25536594 13 11 C14.37905284 14.58553739 14.3319687 18.21555685 14 22 C12.5 24.9375 12.5 24.9375 10 27 C5.48723824 27.57304911 3.13971925 27.49862717 -1 25.6875 C-1.66 25.130625 -2.32 24.57375 -3 24 C-3 23.01 -3 22.02 -3 21 C-3.66 21 -4.32 21 -5 21 C-5.66 18.36 -6.32 15.72 -7 13 C-6.34 13 -5.68 13 -5 13 C-5.33 12.01 -5.66 11.02 -6 10 C-6 7 -6 7 -5 5 C-4.34 5 -3.68 5 -3 5 C-3 4.01 -3 3.02 -3 2 C-2.01 2 -1.02 2 0 2 C0 1.34 0 0.68 0 0 Z " fill="#FAFAFA" transform="translate(180,141)"/>
<path d="M0 0 C1.98 0 3.96 0 6 0 C6 1.70707147 5.99313387 3.41425671 5.96484375 5.12109375 C5.95582031 5.88550781 5.94679688 6.64992187 5.9375 7.4375 C5.92589844 8.19933594 5.91429688 8.96117187 5.90234375 9.74609375 C5.99858722 11.96739298 6.38375738 13.8698385 7 16 C6.34 16 5.68 16 5 16 C5.185625 16.53625 5.37125 17.0725 5.5625 17.625 C6.11419324 20.61990614 5.60597444 23.03745829 5 26 C4.01 26 3.02 26 2 26 C1.67 26.99 1.34 27.98 1 29 C-2.28750944 30.03321725 -3.57797876 30.20141923 -6.75 28.6875 C-9 27 -9 27 -10 25 C-10.49421662 17.91622843 -8.31102812 12.17055241 -5 6 C-4.34 6 -3.68 6 -3 6 C-2.690625 5.38125 -2.38125 4.7625 -2.0625 4.125 C-1.375 2.75 -0.6875 1.375 0 0 Z " fill="#FCFCFC" transform="translate(70,140)"/>
<path d="M0 0 C2.56616632 3.84924948 2.55097676 6.4349304 3 11 C3.66 11 4.32 11 5 11 C6.43668357 15.60367946 5.82952236 19.57238881 4 24 C1.25 26.1875 1.25 26.1875 -2 27 C-5.375 26.1875 -5.375 26.1875 -8 25 C-9.06271452 19.67262591 -8.82133872 15.51805124 -7.375 10.25 C-7.22160156 9.59128906 -7.06820312 8.93257812 -6.91015625 8.25390625 C-5.98658573 4.77817903 -5.28190262 3.20789279 -2.3515625 1.046875 C-1.57554688 0.70140625 -0.79953125 0.3559375 0 0 Z " fill="#FBFBFB" transform="translate(94,152)"/>
<path d="M0 0 C1.32 0 2.64 0 4 0 C6.27119666 5.65874423 7.6210724 9.88980402 6 16 C5.34 16.66 4.68 17.32 4 18 C0.5625 17.9375 0.5625 17.9375 -3 17 C-4.86328125 14.80078125 -4.86328125 14.80078125 -6 12 C-5.234375 9.140625 -5.234375 9.140625 -3.75 6.25 C-3.27046875 5.28578125 -2.7909375 4.3215625 -2.296875 3.328125 C-1 1 -1 1 0 0 Z " fill="#FAFAFA" transform="translate(149,131)"/>
</svg>
