<?xml version="1.0" encoding="UTF-8"?>
<svg version="1.1" xmlns="http://www.w3.org/2000/svg" width="256" height="256">
<path d="M0 0 C84.48 0 168.96 0 256 0 C256 84.48 256 168.96 256 256 C171.52 256 87.04 256 0 256 C0 171.52 0 87.04 0 0 Z " fill="#FEFEFE" transform="translate(0,0)"/>
<path d="M0 0 C6.47496935 5.28699977 10.89385341 12.01682002 12.48828125 20.3046875 C13.45098895 30.92603642 11.69688696 39.81059549 4.86328125 48.1796875 C-1.65304959 54.98888714 -9.73881 58.38100539 -19.07421875 58.6171875 C-28.91069917 58.48555577 -36.45265729 55.40153127 -43.56640625 48.59375 C-49.91613191 41.12198447 -51.90948271 33.11373067 -51.78125 23.53125 C-50.98490145 13.99815002 -46.7695639 6.47261734 -39.51171875 0.3046875 C-27.03890251 -7.52359656 -12.53369022 -8.45975359 0 0 Z " fill="#010101" transform="translate(147.51171875,101.6953125)"/>
<path d="M0 0 C2.53843297 1.42258014 4.88831057 2.9917651 7 5 C7 5.66 7 6.32 7 7 C7.66 7 8.32 7 9 7 C9.25394531 7.56589844 9.50789063 8.13179687 9.76953125 8.71484375 C10.11371094 9.44832031 10.45789063 10.18179688 10.8125 10.9375 C11.14894531 11.66839844 11.48539063 12.39929688 11.83203125 13.15234375 C12.93600134 15.33029489 12.93600134 15.33029489 16 16 C14.125 19.875 14.125 19.875 13 21 C7.49684802 21.28464579 3.27891889 20.75963963 -2 19 C-3.0725 18.690625 -4.145 18.38125 -5.25 18.0625 C-8.02852111 16.98898048 -9.34043839 16.44566975 -11 14 C-12.16464768 10.25648961 -12.1676593 8.45885704 -10.8125 4.75 C-7.99940487 0.48185567 -5.08553106 -0.82787715 0 0 Z " fill="#020202" transform="translate(83,90)"/>
<path d="M0 0 C0 0.66 0 1.32 0 2 C0.66 2 1.32 2 2 2 C2.54372951 5.05847848 3 7.88772805 3 11 C2.34 11 1.68 11 1 11 C1 11.66 1 12.32 1 13 C0.34 13 -0.32 13 -1 13 C-1.33 13.99 -1.66 14.98 -2 16 C-18.25360231 19.87319885 -18.25360231 19.87319885 -24 17 C-23.43697042 13.05879291 -22.3208055 10.2491277 -20 7 C-19.34 7 -18.68 7 -18 7 C-18 6.34 -18 5.68 -18 5 C-17.34 5 -16.68 5 -16 5 C-16 4.34 -16 3.68 -16 3 C-10.16680301 -2.34709724 -7.45192082 -2.43620488 0 0 Z " fill="#030303" transform="translate(183,96)"/>
<path d="M0 0 C2.97270015 2.03395273 3.82340322 3.45843653 4.9375 6.875 C5.0196758 10.98378989 4.32725929 12.57755986 2 16 C-2.20497282 20.24540526 -6.62266412 24.31133206 -12 27 C-12.99 26.67 -13.98 26.34 -15 26 C-15.48545276 16.52018643 -15.71691129 8.36751974 -9.1875 0.9375 C-5.9270242 -0.45984677 -3.50201582 -0.43775198 0 0 Z " fill="#020202" transform="translate(160,71)"/>
<path d="M0 0 C2.3125 1.0625 2.3125 1.0625 4 3 C6.0270631 10.09472085 4.04198401 15.44726724 1 22 C-0.22355641 24.14637336 -1.50582446 26.02555375 -3 28 C-5.62933118 27.64120001 -6.72820463 27.32820573 -8.44921875 25.25 C-12.12195843 18.57650455 -13.07974289 13.22637301 -12.9375 5.6875 C-12 3 -12 3 -9.3125 0.5625 C-5.47627775 -1.2470388 -3.98794196 -1.30041586 0 0 Z " fill="#030303" transform="translate(134,65)"/>
<path d="M0 0 C0.48545276 9.47981357 0.71691129 17.63248026 -5.8125 25.0625 C-9.0729758 26.45984677 -11.49798418 26.43775198 -15 26 C-17.97270015 23.96604727 -18.82340322 22.54156347 -19.9375 19.125 C-20.0196758 15.01621011 -19.32725929 13.42244014 -17 10 C-7.09363296 0 -7.09363296 0 0 0 Z " fill="#020202" transform="translate(111,159)"/>
<path d="M0 0 C7.73920236 4.11096463 15.08410432 8.5716289 18.125 17.1875 C17.93030488 21.56814013 16.0271162 23.9728838 13 27 C9.0795282 27.443827 6.74107927 27.40422506 3.25 25.5 C-2.35348374 19.27390696 -2.3286795 12.77390895 -2.30078125 4.7578125 C-2 2 -2 2 0 0 Z " fill="#010101" transform="translate(147,158)"/>
<path d="M0 0 C1.83304688 0.13341797 1.83304688 0.13341797 3.703125 0.26953125 C5.52070313 0.38361328 5.52070313 0.38361328 7.375 0.5 C12.98966159 1.41330194 17.38971497 3.59477418 20.953125 8.08203125 C22.00557095 11.01384496 22.04303281 12.66246147 21.390625 15.70703125 C19.41573738 18.96988906 17.51526597 19.82480502 13.953125 21.08203125 C10.52704447 20.83731121 7.93843292 19.74053565 4.953125 18.08203125 C4.953125 17.42203125 4.953125 16.76203125 4.953125 16.08203125 C4.293125 16.08203125 3.633125 16.08203125 2.953125 16.08203125 C2.953125 15.42203125 2.953125 14.76203125 2.953125 14.08203125 C2.293125 14.08203125 1.633125 14.08203125 0.953125 14.08203125 C-1.026875 10.12203125 -3.006875 6.16203125 -5.046875 2.08203125 C-3.046875 0.08203125 -3.046875 0.08203125 0 0 Z " fill="#030303" transform="translate(162.046875,146.91796875)"/>
<path d="M0 0 C3.02457753 2.09393829 3.82109109 3.43941876 4.9375 6.9375 C5.01378017 10.67522816 4.38228107 12.14126272 2 15 C-1.49199404 17.19496768 -4.56037946 17.2635158 -8.6015625 16.60546875 C-13.58848908 15.34655406 -18.64434098 13.75974556 -23 11 C-23.84765625 8.328125 -23.84765625 8.328125 -24 6 C-8.64300412 -1.95164609 -8.64300412 -1.95164609 0 0 Z " fill="#030303" transform="translate(188,120)"/>
<path d="M0 0 C0.84765625 2.671875 0.84765625 2.671875 1 5 C-14.35699588 12.95164609 -14.35699588 12.95164609 -23 11 C-26.02457753 8.90606171 -26.82109109 7.56058124 -27.9375 4.0625 C-28.01378017 0.32477184 -27.38228107 -1.14126272 -25 -4 C-17.66607948 -8.6098929 -6.67078896 -4.22661188 0 0 Z " fill="#030303" transform="translate(91,125)"/>
<path d="M0 0 C4.38396953 0.44582741 5.755538 1.11726444 8.6875 4.375 C12.15365184 10.94873625 12.74995329 18.02115666 11.6875 25.375 C10.6975 26.035 9.7075 26.695 8.6875 27.375 C-6.06497982 17.19553057 -6.06497982 17.19553057 -8.3125 10.3125 C-8.3125 4.8900243 -5.46242306 0.61838752 0 0 Z " fill="#020202" transform="translate(99.3125,70.625)"/>
<path d="M0 0 C4.14661173 1.38220391 4.9237974 3.4966891 6.921875 7.24609375 C9.09749416 12.80338183 9.90093042 19.29720873 8 25 C7.34 25 6.68 25 6 25 C6 25.66 6 26.32 6 27 C3.31920844 28.75282525 2.13111361 29.01311136 -1.125 28.6875 C-4 28 -4 28 -6 27 C-6 26.34 -6 25.68 -6 25 C-6.66 25 -7.32 25 -8 25 C-9.0006709 19.03654233 -9.0662997 14.71271093 -7 9 C-6.34 9 -5.68 9 -5 9 C-4.9175 8.2575 -4.835 7.515 -4.75 6.75 C-3.8603054 3.48778646 -2.51496251 2.19045122 0 0 Z " fill="#020202" transform="translate(125,165)"/>
<path d="M0 0 C0 0.66 0 1.32 0 2 C0.66 2.33 1.32 2.66 2 3 C0.66666667 5.66666667 -0.66666667 8.33333333 -2 11 C-2.66 11 -3.32 11 -4 11 C-4 11.66 -4 12.32 -4 13 C-4.66 13 -5.32 13 -6 13 C-6 13.66 -6 14.32 -6 15 C-9.73794482 18.73794482 -12.74015662 19.80873297 -18 20 C-20.4375 19.0625 -20.4375 19.0625 -22 18 C-22 17.34 -22 16.68 -22 16 C-22.66 16 -23.32 16 -24 16 C-25 9.25 -25 9.25 -25 7 C-24.34 7 -23.68 7 -23 7 C-23 6.34 -23 5.68 -23 5 C-22.34 5 -21.68 5 -21 5 C-21 4.34 -21 3.68 -21 3 C-14.49193196 -0.75465464 -7.27186141 -0.1164533 0 0 Z " fill="#030303" transform="translate(94,144)"/>
<path d="M0 0 C1.32 0.33 2.64 0.66 4 1 C0.66666667 4.33333333 -2.66666667 7.66666667 -6 11 C-4.74194623 6.49197399 -3.09592835 3.5087188 0 0 Z " fill="#080808" transform="translate(104,106)"/>
<path d="M0 0 C0.99 0.99 1.98 1.98 3 3 C2.34 4.32 1.68 5.64 1 7 C0.01 6.67 -0.98 6.34 -2 6 C-1.125 1.125 -1.125 1.125 0 0 Z " fill="#F7F7F7" transform="translate(157,142)"/>
<path d="M0 0 C-1.27514492 2.55028983 -2.40341297 2.93081711 -5 4 C-5.99 4 -6.98 4 -8 4 C-8 3.01 -8 2.02 -8 1 C-4.93251126 -0.86240388 -3.40254489 -1.2151946 0 0 Z " fill="#090909" transform="translate(82,91)"/>
</svg>
