<?xml version="1.0" encoding="UTF-8"?>
<svg version="1.1" xmlns="http://www.w3.org/2000/svg" width="256" height="256">
<path d="M0 0 C84.48 0 168.96 0 256 0 C256 84.48 256 168.96 256 256 C171.52 256 87.04 256 0 256 C0 171.52 0 87.04 0 0 Z " fill="#FEFEFE" transform="translate(0,0)"/>
<path d="M0 0 C21.70777892 -0.08021762 21.70777892 -0.08021762 31.12695312 -0.09765625 C37.49621001 -0.10950517 43.86540818 -0.1233538 50.23461914 -0.15087891 C138.01584413 -0.52010727 138.01584413 -0.52010727 161.0625 19.8203125 C165.48572025 24.79643528 169.23379024 32.46434631 169.6875 39.1875 C168.11303913 47.91860119 163.3332892 54.90506039 157 61 C156.67 61 156.34 61 156 61 C155.9484375 60.26394531 155.896875 59.52789062 155.84375 58.76953125 C155.28480714 53.06998444 155.28480714 53.06998444 152.4375 48.296875 C150.34415044 46.96320875 148.2897402 45.95911303 146 45 C145.13890625 44.62230469 144.2778125 44.24460938 143.390625 43.85546875 C136.86142473 41.12209053 132.16711477 39.83027955 125.02734375 40.3203125 C124.2987767 40.36850128 123.57020966 40.41669006 122.81956482 40.46633911 C121.15319848 40.5770823 119.48701428 40.69058711 117.82098389 40.80627441 C114.74593442 41.01744746 111.67022907 41.21610886 108.59423828 41.41308594 C102.51718788 41.80374617 96.44120826 42.2089745 90.36547852 42.61962891 C87.84643859 42.78878316 85.32723252 42.95548235 82.80786133 43.11962891 C69.43112278 43.99211992 56.08511972 44.9862209 42.76171875 46.48046875 C41.71746231 46.59482269 40.67320587 46.70917664 39.5973053 46.82699585 C28.63948184 48.11922333 16.90629064 50.08019368 8 57 C6.26666798 60.35745814 6.26666798 60.35745814 6 64 C6.93337029 66.77482237 6.93337029 66.77482237 9 69 C12.17861973 69.82130678 12.17861973 69.82130678 15.6875 69.8125 C16.86699219 69.86019531 18.04648437 69.90789062 19.26171875 69.95703125 C20.16535156 69.97121094 21.06898437 69.98539062 22 70 C22 70.33 22 70.66 22 71 C14.74 71 7.48 71 0 71 C0 47.57 0 24.14 0 0 Z " fill="#000000" transform="translate(0,123)"/>
<path d="M0 0 C8.79540948 5.44872851 15.65873328 13.44475313 18.5 23.53125 C21.09616756 36.34982731 19.96654106 47.5952885 12.72265625 58.68359375 C5.96865131 67.76550968 -2.71262897 73.93064864 -14 76 C-27.6958932 76.93876379 -38.13706786 74.6383855 -49 66 C-57.31088969 57.7030314 -62.08001841 47.63206004 -62.25 35.875 C-62.13506226 25.58807205 -59.13009868 17.30117529 -53 9 C-52.01 8.34 -51.02 7.68 -50 7 C-49.34 10.3 -48.68 13.6 -48 17 C-42.71800407 18.19988045 -42.71800407 18.19988045 -38 16 C-36.96442703 14.28619384 -36.96442703 14.28619384 -37 12 C-37.9578025 9.64903024 -38.96157435 7.31648799 -40 5 C-40.39764263 3.01178687 -40.75455166 1.01267638 -41 -1 C-27.99966236 -7.41426351 -12.55183252 -7.40332637 0 0 Z " fill="#000000" transform="translate(233,111)"/>
<path d="M0 0 C2.31338579 3.89069429 2.48663937 7.53913909 2 12 C0.2952731 14.74238676 -1.10984402 15.73753838 -4.19921875 16.6484375 C-5.78463129 17.0007514 -7.37753733 17.32125664 -8.9765625 17.60546875 C-11.05847316 17.91766367 -11.05847316 17.91766367 -13 19 C-15.30619154 19.07422567 -17.61458362 19.08336473 -19.921875 19.0625 C-20.61831116 19.05871338 -21.31474731 19.05492676 -22.0322876 19.05102539 C-25.00646369 19.03478167 -27.9805011 19.00715813 -30.95458984 18.97949219 C-33.1311779 18.96098461 -35.30774086 18.94914274 -37.484375 18.9375 C-38.78084961 18.92589844 -40.07732422 18.91429687 -41.41308594 18.90234375 C-45.17749188 18.93010218 -48.90193919 19.20263567 -52.65454102 19.49560547 C-59.79409672 20.03248224 -66.88567575 20.14486136 -74.04296875 20.1328125 C-75.33205643 20.13376923 -76.6211441 20.13472595 -77.94929504 20.13571167 C-80.65769676 20.13717097 -83.36606511 20.13509365 -86.07446289 20.13037109 C-89.48518469 20.12470275 -92.89582809 20.12805185 -96.30654716 20.13379288 C-108.26565907 20.15108485 -120.22689352 20.16624161 -132.17578125 19.6171875 C-132.93022018 19.58682404 -133.68465912 19.55646057 -134.46195984 19.525177 C-138.03908694 19.3259931 -141.02709355 19.11268293 -144 17 C-145.13663647 13.67752416 -145.17297047 11.28689527 -144 8 C-135.52178873 -0.40491262 -121.04822041 -1.27723716 -109.86328125 -2.484375 C-108.68906616 -2.61270721 -107.51485107 -2.74103943 -106.30505371 -2.8732605 C-92.56292877 -4.32573829 -78.78778788 -5.23437574 -65 -6.125 C-61.15736882 -6.37836562 -57.31485655 -6.63343641 -53.47241211 -6.88961792 C-51.11398225 -7.04633134 -48.7554286 -7.20119802 -46.39672852 -7.35379028 C-40.4018189 -7.74661415 -34.42668146 -8.21472491 -28.45019531 -8.83004761 C-18.20563599 -9.54063886 -7.96810613 -6.57368756 0 0 Z " fill="#000000" transform="translate(152,173)"/>
<path d="M0 0 C0.66 0 1.32 0 2 0 C0.68 5.28 -0.64 10.56 -2 16 C-0.35 16.66 1.3 17.32 3 18 C4.61811373 18.84893089 6.22305956 19.72352632 7.8125 20.625 C8.60269531 21.07101563 9.39289063 21.51703125 10.20703125 21.9765625 C10.79871094 22.31429687 11.39039063 22.65203125 12 23 C12 23.66 12 24.32 12 25 C7.01475706 23.23104283 2.5878012 20.6020365 -2 18 C-3.65 23.61 -5.3 29.22 -7 35 C-7.66 35 -8.32 35 -9 35 C-7.75297849 28.64549677 -6.42635741 22.31672565 -5 16 C-11.93 12.04 -11.93 12.04 -19 8 C-18.34 7.34 -17.68 6.68 -17 6 C-10.07 9.96 -10.07 9.96 -3 14 C-2.67 11.36 -2.34 8.72 -2 6 C-1.38761101 3.98271862 -0.74023321 1.97395523 0 0 Z " fill="#030303" transform="translate(180,69)"/>
<path d="M0 0 C2 1 2 1 2.8125 2.75 C3.08647973 6.03775678 2.04783606 7.47433552 0 10 C-2.98689164 11.14880448 -4.33874989 11.26807437 -7.3125 10.0625 C-7.869375 9.711875 -8.42625 9.36125 -9 9 C-8.34 7.35 -7.68 5.7 -7 4 C-6.01 4.33 -5.02 4.66 -4 5 C-4.33 5.99 -4.66 6.98 -5 8 C-4.34 8 -3.68 8 -3 8 C-2.67 7.01 -2.34 6.02 -2 5 C-1.34 5 -0.68 5 0 5 C-0.33 4.01 -0.66 3.02 -1 2 C-0.67 1.34 -0.34 0.68 0 0 Z " fill="#F5F5F5" transform="translate(194,119)"/>
<path d="M0 0 C0.66 0 1.32 0 2 0 C1.67 0.99 1.34 1.98 1 3 C1.825 3.45375 2.65 3.9075 3.5 4.375 C4.325 4.91125 5.15 5.4475 6 6 C6 6.66 6 7.32 6 8 C4.741875 7.608125 3.48375 7.21625 2.1875 6.8125 C0.0270506 6.21163866 0.0270506 6.21163866 -2 6 C-3.85602615 7.27159652 -3.85602615 7.27159652 -5 9 C-5.99 9 -6.98 9 -8 9 C-8 8.34 -8 7.68 -8 7 C-6.68 6.34 -5.36 5.68 -4 5 C-6.475 4.01 -6.475 4.01 -9 3 C-9 2.34 -9 1.68 -9 1 C-6.36 1.33 -3.72 1.66 -1 2 C-0.67 1.34 -0.34 0.68 0 0 Z " fill="#FAFAFA" transform="translate(227,128)"/>
<path d="M0 0 C1.32 0.66 2.64 1.32 4 2 C3.01 3.98 2.02 5.96 1 8 C0.34 7.67 -0.32 7.34 -1 7 C-0.67 4.69 -0.34 2.38 0 0 Z " fill="#F8F8F8" transform="translate(177,86)"/>
</svg>
