<?xml version="1.0" encoding="UTF-8"?>
<svg version="1.1" xmlns="http://www.w3.org/2000/svg" width="256" height="256">
<path d="M0 0 C84.48 0 168.96 0 256 0 C256 84.48 256 168.96 256 256 C171.52 256 87.04 256 0 256 C0 171.52 0 87.04 0 0 Z " fill="#FEFEFE" transform="translate(0,0)"/>
<path d="M0 0 C21.70777892 -0.08021762 21.70777892 -0.08021762 31.12695312 -0.09765625 C37.49621001 -0.10950517 43.86540818 -0.1233538 50.23461914 -0.15087891 C138.01584413 -0.52010727 138.01584413 -0.52010727 161.0625 19.8203125 C165.48572025 24.79643528 169.23379024 32.46434631 169.6875 39.1875 C168.11303913 47.91860119 163.3332892 54.90506039 157 61 C156.67 61 156.34 61 156 61 C155.9484375 60.26394531 155.896875 59.52789062 155.84375 58.76953125 C155.28480714 53.06998444 155.28480714 53.06998444 152.4375 48.296875 C150.34415044 46.96320875 148.2897402 45.95911303 146 45 C145.13890625 44.62230469 144.2778125 44.24460938 143.390625 43.85546875 C136.86142473 41.12209053 132.16711477 39.83027955 125.02734375 40.3203125 C124.2987767 40.36850128 123.57020966 40.41669006 122.81956482 40.46633911 C121.15319848 40.5770823 119.48701428 40.69058711 117.82098389 40.80627441 C114.74593442 41.01744746 111.67022907 41.21610886 108.59423828 41.41308594 C102.51718788 41.80374617 96.44120826 42.2089745 90.36547852 42.61962891 C87.84643859 42.78878316 85.32723252 42.95548235 82.80786133 43.11962891 C69.43112278 43.99211992 56.08511972 44.9862209 42.76171875 46.48046875 C41.71746231 46.59482269 40.67320587 46.70917664 39.5973053 46.82699585 C28.63948184 48.11922333 16.90629064 50.08019368 8 57 C6.26666798 60.35745814 6.26666798 60.35745814 6 64 C6.93337029 66.77482237 6.93337029 66.77482237 9 69 C12.17861973 69.82130678 12.17861973 69.82130678 15.6875 69.8125 C16.86699219 69.86019531 18.04648437 69.90789062 19.26171875 69.95703125 C20.16535156 69.97121094 21.06898437 69.98539062 22 70 C22 70.33 22 70.66 22 71 C14.74 71 7.48 71 0 71 C0 47.57 0 24.14 0 0 Z " fill="#000000" transform="translate(0,123)"/>
<path d="M0 0 C8.33950083 5.90481435 14.47423769 14.38158764 16.515625 24.4609375 C18.49855362 36.48244225 16.95670219 46.86056013 10.23828125 57.14453125 C3.48427631 66.22644718 -5.19700397 72.39158614 -16.484375 74.4609375 C-30.1802682 75.39970129 -40.62144286 73.099323 -51.484375 64.4609375 C-59.79526469 56.1639689 -64.56439341 46.09299754 -64.734375 34.3359375 C-64.60951303 23.16079107 -61.05166971 13.55083267 -53.4453125 5.23046875 C-38.29821818 -9.03349109 -17.59183126 -10.89808414 0 0 Z " fill="#000000" transform="translate(235.484375,112.5390625)"/>
<path d="M0 0 C2.31338579 3.89069429 2.48663937 7.53913909 2 12 C0.2952731 14.74238676 -1.10984402 15.73753838 -4.19921875 16.6484375 C-5.78463129 17.0007514 -7.37753733 17.32125664 -8.9765625 17.60546875 C-11.05847316 17.91766367 -11.05847316 17.91766367 -13 19 C-15.30619154 19.07422567 -17.61458362 19.08336473 -19.921875 19.0625 C-20.61831116 19.05871338 -21.31474731 19.05492676 -22.0322876 19.05102539 C-25.00646369 19.03478167 -27.9805011 19.00715813 -30.95458984 18.97949219 C-33.1311779 18.96098461 -35.30774086 18.94914274 -37.484375 18.9375 C-38.78084961 18.92589844 -40.07732422 18.91429687 -41.41308594 18.90234375 C-45.17749188 18.93010218 -48.90193919 19.20263567 -52.65454102 19.49560547 C-59.79409672 20.03248224 -66.88567575 20.14486136 -74.04296875 20.1328125 C-75.33205643 20.13376923 -76.6211441 20.13472595 -77.94929504 20.13571167 C-80.65769676 20.13717097 -83.36606511 20.13509365 -86.07446289 20.13037109 C-89.48518469 20.12470275 -92.89582809 20.12805185 -96.30654716 20.13379288 C-108.26565907 20.15108485 -120.22689352 20.16624161 -132.17578125 19.6171875 C-132.93022018 19.58682404 -133.68465912 19.55646057 -134.46195984 19.525177 C-138.03908694 19.3259931 -141.02709355 19.11268293 -144 17 C-145.13663647 13.67752416 -145.17297047 11.28689527 -144 8 C-135.52178873 -0.40491262 -121.04822041 -1.27723716 -109.86328125 -2.484375 C-108.68906616 -2.61270721 -107.51485107 -2.74103943 -106.30505371 -2.8732605 C-92.56292877 -4.32573829 -78.78778788 -5.23437574 -65 -6.125 C-61.15736882 -6.37836562 -57.31485655 -6.63343641 -53.47241211 -6.88961792 C-51.11398225 -7.04633134 -48.7554286 -7.20119802 -46.39672852 -7.35379028 C-40.4018189 -7.74661415 -34.42668146 -8.21472491 -28.45019531 -8.83004761 C-18.20563599 -9.54063886 -7.96810613 -6.57368756 0 0 Z " fill="#000000" transform="translate(152,173)"/>
<path d="M0 0 C0.33 0.99 0.66 1.98 1 3 C2.051875 2.896875 3.10375 2.79375 4.1875 2.6875 C8 3 8 3 10.9375 5.125 C13 8 13 8 13.625 11 C12.78931708 15.01127801 11.17074734 16.47781462 8 19 C5.6875 19.8125 5.6875 19.8125 4 20 C4 19.34 4 18.68 4 18 C4.99 17.4225 5.98 16.845 7 16.25 C10.28159702 14.29595067 10.28159702 14.29595067 10.6875 10.9375 C10.26541397 7.8591696 10.26541397 7.8591696 7.8125 6.0625 C4.65554385 4.86987212 3.17393763 5.00247675 0 6 C-0.33 5.01 -0.66 4.02 -1 3 C-4.54433503 2.69009791 -4.54433503 2.69009791 -7.6875 4.125 C-9.21061824 6.06000023 -9.21061824 6.06000023 -9.75 9.0625 C-10.1625 10.031875 -10.575 11.00125 -11 12 C-13.31847874 12.7166207 -15.65319703 13.38242027 -18 14 C-20.11734188 16.24952182 -20.11734188 16.24952182 -21 19 C-20.75495152 21.20543633 -20.57580336 22.42419664 -19 24 C-17.48530552 24.23192865 -15.96245438 24.41215238 -14.4375 24.5625 C-13.61121094 24.64628906 -12.78492188 24.73007813 -11.93359375 24.81640625 C-10.97646484 24.90728516 -10.97646484 24.90728516 -10 25 C-10.77904328 37.66970387 -10.77904328 37.66970387 -13 43 C-13.66 42.34 -14.32 41.68 -15 41 C-14.65304233 38.38311586 -14.21130748 35.93773107 -13.625 33.375 C-13.39683594 32.31539062 -13.39683594 32.31539062 -13.1640625 31.234375 C-12.78632276 29.48732869 -12.39447905 27.74334288 -12 26 C-12.66 26.33 -13.32 26.66 -14 27 C-17.85559941 27.50290427 -19.41922946 27.43911919 -22.5625 25.0625 C-24.18109914 21.6141801 -24.07382727 20.89740692 -23.0625 17.375 C-21.84552669 14.32749601 -21.11729486 13.0992495 -18.5625 10.9375 C-16 10 -16 10 -12 10 C-11.938125 9.0925 -11.87625 8.185 -11.8125 7.25 C-11 4 -11 4 -8.8125 1.625 C-5.58028931 -0.24249951 -3.67176009 -0.34155908 0 0 Z " fill="#040404" transform="translate(193,64)"/>
<path d="M0 0 C1.9375 2.25 1.9375 2.25 3 5 C2.10394232 8.85304802 1.34846101 9.76769266 -2 12 C-4.73178163 11.79511638 -6.52728333 11.28363 -8.875 9.875 C-10 8 -10 8 -9.9375 4.4375 C-9 1 -9 1 -7.25 -0.5 C-4.36146884 -1.14189581 -2.7746259 -1.06716381 0 0 Z " fill="#F7F7F7" transform="translate(194,118)"/>
<path d="M0 0 C0.66 0 1.32 0 2 0 C1.67 0.99 1.34 1.98 1 3 C1.825 3.45375 2.65 3.9075 3.5 4.375 C4.325 4.91125 5.15 5.4475 6 6 C6 6.66 6 7.32 6 8 C4.741875 7.608125 3.48375 7.21625 2.1875 6.8125 C0.0270506 6.21163866 0.0270506 6.21163866 -2 6 C-3.85602615 7.27159652 -3.85602615 7.27159652 -5 9 C-5.99 9 -6.98 9 -8 9 C-8 8.34 -8 7.68 -8 7 C-6.68 6.34 -5.36 5.68 -4 5 C-6.475 4.01 -6.475 4.01 -9 3 C-9 2.34 -9 1.68 -9 1 C-6.36 1.33 -3.72 1.66 -1 2 C-0.67 1.34 -0.34 0.68 0 0 Z " fill="#FAFAFA" transform="translate(227,128)"/>
<path d="M0 0 C1.98 0.495 1.98 0.495 4 1 C3.34 2.32 2.68 3.64 2 5 C1.34 5 0.68 5 0 5 C-0.33 4.01 -0.66 3.02 -1 2 C-0.67 1.34 -0.34 0.68 0 0 Z " fill="#F8F8F8" transform="translate(177,76)"/>
</svg>
